<svg width="392" height="74" viewBox="0 0 392 74" fill="none" xmlns="http://www.w3.org/2000/svg">
<path d="M31.1113 73H17V18.6055L0.154297 23.8301V12.3555L29.5977 1.80859H31.1113V73ZM100.594 20.8027C100.594 24.2533 99.7311 27.3132 98.0059 29.9824C96.2806 32.6517 93.9043 34.7839 90.877 36.3789C94.3275 38.0391 97.0618 40.334 99.0801 43.2637C101.098 46.1608 102.107 49.5788 102.107 53.5176C102.107 59.8327 99.959 64.8294 95.6621 68.5078C91.3652 72.1536 85.5221 73.9766 78.1328 73.9766C70.7435 73.9766 64.8841 72.1374 60.5547 68.459C56.2253 64.7806 54.0605 59.8001 54.0605 53.5176C54.0605 49.5788 55.0697 46.1445 57.0879 43.2148C59.1061 40.2852 61.8242 38.0065 65.2422 36.3789C62.2148 34.7839 59.8385 32.6517 58.1133 29.9824C56.4206 27.3132 55.5742 24.2533 55.5742 20.8027C55.5742 14.748 57.5924 9.93034 61.6289 6.34961C65.6654 2.73633 71.1504 0.929688 78.084 0.929688C84.985 0.929688 90.4538 2.72005 94.4902 6.30078C98.5592 9.84896 100.594 14.6829 100.594 20.8027ZM87.9473 52.4922C87.9473 49.3997 87.0521 46.9258 85.2617 45.0703C83.4714 43.2148 81.0625 42.2871 78.0352 42.2871C75.0404 42.2871 72.6478 43.2148 70.8574 45.0703C69.0671 46.8932 68.1719 49.3672 68.1719 52.4922C68.1719 55.5195 69.0508 57.9609 70.8086 59.8164C72.5664 61.6719 75.0078 62.5996 78.1328 62.5996C81.1927 62.5996 83.5853 61.7044 85.3105 59.9141C87.0684 58.1237 87.9473 55.6497 87.9473 52.4922ZM86.4824 21.4863C86.4824 18.7194 85.75 16.5059 84.2852 14.8457C82.8203 13.153 80.7533 12.3066 78.084 12.3066C75.4473 12.3066 73.3965 13.1204 71.9316 14.748C70.4668 16.3757 69.7344 18.6217 69.7344 21.4863C69.7344 24.3184 70.4668 26.597 71.9316 28.3223C73.3965 30.0475 75.4635 30.9102 78.1328 30.9102C80.8021 30.9102 82.8529 30.0475 84.2852 28.3223C85.75 26.597 86.4824 24.3184 86.4824 21.4863ZM169.588 44.582C165.91 48.1953 161.613 50.002 156.697 50.002C150.415 50.002 145.385 47.8535 141.609 43.5566C137.833 39.2272 135.945 33.4004 135.945 26.0762C135.945 21.4212 136.954 17.1569 138.973 13.2832C141.023 9.37695 143.872 6.34961 147.518 4.20117C151.163 2.02018 155.265 0.929688 159.822 0.929688C164.51 0.929688 168.676 2.10156 172.322 4.44531C175.968 6.78906 178.8 10.1582 180.818 14.5527C182.837 18.9473 183.862 23.9766 183.895 29.6406V34.8652C183.895 46.7142 180.949 56.0241 175.057 62.7949C169.165 69.5658 160.815 73.179 150.008 73.6348L146.541 73.6836V61.916L149.666 61.8672C161.938 61.3138 168.579 55.5521 169.588 44.582ZM160.164 39.2109C162.443 39.2109 164.396 38.625 166.023 37.4531C167.684 36.2812 168.937 34.8652 169.783 33.2051V27.3945C169.783 22.6094 168.872 18.8984 167.049 16.2617C165.226 13.625 162.785 12.3066 159.725 12.3066C156.893 12.3066 154.565 13.6087 152.742 16.2129C150.919 18.7845 150.008 22.0234 150.008 25.9297C150.008 29.8034 150.887 32.9935 152.645 35.5C154.435 37.974 156.941 39.2109 160.164 39.2109ZM241.854 43.6055C241.854 53.4362 239.819 60.9557 235.75 66.1641C231.681 71.3724 225.724 73.9766 217.879 73.9766C210.132 73.9766 204.207 71.4212 200.105 66.3105C196.004 61.1999 193.904 53.8757 193.807 44.3379V31.252C193.807 21.3236 195.857 13.7878 199.959 8.64453C204.093 3.5013 210.034 0.929688 217.781 0.929688C225.529 0.929688 231.453 3.48503 235.555 8.5957C239.656 13.6738 241.756 20.9818 241.854 30.5195V43.6055ZM227.742 29.25C227.742 23.3581 226.928 19.0775 225.301 16.4082C223.706 13.7064 221.199 12.3555 217.781 12.3555C214.461 12.3555 212.003 13.6413 210.408 16.2129C208.846 18.752 208.016 22.7396 207.918 28.1758V45.4609C207.918 51.2552 208.699 55.5684 210.262 58.4004C211.857 61.1999 214.396 62.5996 217.879 62.5996C221.329 62.5996 223.82 61.2487 225.35 58.5469C226.88 55.8451 227.677 51.7109 227.742 46.1445V29.25ZM299.275 43.6055C299.275 53.4362 297.241 60.9557 293.172 66.1641C289.103 71.3724 283.146 73.9766 275.301 73.9766C267.553 73.9766 261.629 71.4212 257.527 66.3105C253.426 61.1999 251.326 53.8757 251.229 44.3379V31.252C251.229 21.3236 253.279 13.7878 257.381 8.64453C261.515 3.5013 267.456 0.929688 275.203 0.929688C282.951 0.929688 288.875 3.48503 292.977 8.5957C297.078 13.6738 299.178 20.9818 299.275 30.5195V43.6055ZM285.164 29.25C285.164 23.3581 284.35 19.0775 282.723 16.4082C281.128 13.7064 278.621 12.3555 275.203 12.3555C271.883 12.3555 269.425 13.6413 267.83 16.2129C266.268 18.752 265.438 22.7396 265.34 28.1758V45.4609C265.34 51.2552 266.121 55.5684 267.684 58.4004C269.279 61.1999 271.818 62.5996 275.301 62.5996C278.751 62.5996 281.242 61.2487 282.771 58.5469C284.301 55.8451 285.099 51.7109 285.164 46.1445V29.25ZM366.219 59.5723H349.861V73H340.535V59.5723H330.428V51.8574H340.535V45.168H330.428V37.502H340.535V1.90625H366.756C374.373 1.90625 380.411 3.8431 384.871 7.7168C389.331 11.5905 391.561 16.8314 391.561 23.4395C391.561 30.373 389.412 35.7279 385.115 39.5039C380.851 43.2474 374.78 45.1354 366.902 45.168H349.861V51.8574H366.219V59.5723ZM349.861 37.502H366.756C371.801 37.502 375.643 36.3138 378.279 33.9375C380.916 31.5612 382.234 28.0944 382.234 23.5371C382.234 19.403 380.867 16.0664 378.133 13.5273C375.398 10.9557 371.704 9.65365 367.049 9.62109H349.861V37.502Z" fill="#1939DE"/>
</svg>
