<svg width="381" height="66" viewBox="0 0 381 66" fill="none" xmlns="http://www.w3.org/2000/svg">
<path d="M9.6416 14H0.870117V12.2598L5.00977 7.84766C5.57812 7.22656 5.99707 6.68457 6.2666 6.22168C6.54199 5.75879 6.67969 5.31934 6.67969 4.90332C6.67969 4.33496 6.53613 3.88965 6.24902 3.56738C5.96191 3.23926 5.55176 3.0752 5.01855 3.0752C4.44434 3.0752 3.99023 3.27441 3.65625 3.67285C3.32812 4.06543 3.16406 4.58398 3.16406 5.22852H0.615234C0.615234 4.44922 0.799805 3.7373 1.16895 3.09277C1.54395 2.44824 2.07129 1.94434 2.75098 1.58105C3.43066 1.21191 4.20117 1.02734 5.0625 1.02734C6.38086 1.02734 7.40332 1.34375 8.12988 1.97656C8.8623 2.60938 9.22852 3.50293 9.22852 4.65723C9.22852 5.29004 9.06445 5.93457 8.73633 6.59082C8.4082 7.24707 7.8457 8.01172 7.04883 8.88477L4.13965 11.9521H9.6416V14ZM11.584 7.70703L12.3223 1.20312H19.4941V3.32129H14.4053L14.0889 6.07227C14.6924 5.75 15.334 5.58887 16.0137 5.58887C17.2324 5.58887 18.1875 5.9668 18.8789 6.72266C19.5703 7.47852 19.916 8.53613 19.916 9.89551C19.916 10.7217 19.7402 11.4629 19.3887 12.1191C19.043 12.7695 18.5449 13.2764 17.8945 13.6396C17.2441 13.9971 16.4766 14.1758 15.5918 14.1758C14.8184 14.1758 14.1006 14.0205 13.4385 13.71C12.7764 13.3936 12.252 12.9512 11.8652 12.3828C11.4844 11.8145 11.2822 11.167 11.2588 10.4404H13.7725C13.8252 10.9736 14.0098 11.3896 14.3262 11.6885C14.6484 11.9814 15.0674 12.1279 15.583 12.1279C16.1572 12.1279 16.5996 11.9229 16.9102 11.5127C17.2207 11.0967 17.376 10.5107 17.376 9.75488C17.376 9.02832 17.1973 8.47168 16.8398 8.08496C16.4824 7.69824 15.9756 7.50488 15.3193 7.50488C14.7158 7.50488 14.2266 7.66309 13.8516 7.97949L13.6055 8.20801L11.584 7.70703ZM34.6377 8.70898C34.6377 10.4785 34.2715 11.832 33.5391 12.7695C32.8066 13.707 31.7344 14.1758 30.3223 14.1758C28.9277 14.1758 27.8613 13.7158 27.123 12.7959C26.3848 11.876 26.0068 10.5576 25.9893 8.84082V6.48535C25.9893 4.69824 26.3584 3.3418 27.0967 2.41602C27.8408 1.49023 28.9102 1.02734 30.3047 1.02734C31.6992 1.02734 32.7656 1.4873 33.5039 2.40723C34.2422 3.32129 34.6201 4.63672 34.6377 6.35352V8.70898ZM32.0977 6.125C32.0977 5.06445 31.9512 4.29395 31.6582 3.81348C31.3711 3.32715 30.9199 3.08398 30.3047 3.08398C29.707 3.08398 29.2646 3.31543 28.9775 3.77832C28.6963 4.23535 28.5469 4.95312 28.5293 5.93164V9.04297C28.5293 10.0859 28.6699 10.8623 28.9512 11.3721C29.2383 11.876 29.6953 12.1279 30.3223 12.1279C30.9434 12.1279 31.3916 11.8848 31.667 11.3984C31.9424 10.9121 32.0859 10.168 32.0977 9.16602V6.125ZM44.9736 8.70898C44.9736 10.4785 44.6074 11.832 43.875 12.7695C43.1426 13.707 42.0703 14.1758 40.6582 14.1758C39.2637 14.1758 38.1973 13.7158 37.459 12.7959C36.7207 11.876 36.3428 10.5576 36.3252 8.84082V6.48535C36.3252 4.69824 36.6943 3.3418 37.4326 2.41602C38.1768 1.49023 39.2461 1.02734 40.6406 1.02734C42.0352 1.02734 43.1016 1.4873 43.8398 2.40723C44.5781 3.32129 44.9561 4.63672 44.9736 6.35352V8.70898ZM42.4336 6.125C42.4336 5.06445 42.2871 4.29395 41.9941 3.81348C41.707 3.32715 41.2559 3.08398 40.6406 3.08398C40.043 3.08398 39.6006 3.31543 39.3135 3.77832C39.0322 4.23535 38.8828 4.95312 38.8652 5.93164V9.04297C38.8652 10.0859 39.0059 10.8623 39.2871 11.3721C39.5742 11.876 40.0312 12.1279 40.6582 12.1279C41.2793 12.1279 41.7275 11.8848 42.0029 11.3984C42.2783 10.9121 42.4219 10.168 42.4336 9.16602V6.125ZM55.3096 8.70898C55.3096 10.4785 54.9434 11.832 54.2109 12.7695C53.4785 13.707 52.4062 14.1758 50.9941 14.1758C49.5996 14.1758 48.5332 13.7158 47.7949 12.7959C47.0566 11.876 46.6787 10.5576 46.6611 8.84082V6.48535C46.6611 4.69824 47.0303 3.3418 47.7686 2.41602C48.5127 1.49023 49.582 1.02734 50.9766 1.02734C52.3711 1.02734 53.4375 1.4873 54.1758 2.40723C54.9141 3.32129 55.292 4.63672 55.3096 6.35352V8.70898ZM52.7695 6.125C52.7695 5.06445 52.623 4.29395 52.3301 3.81348C52.043 3.32715 51.5918 3.08398 50.9766 3.08398C50.3789 3.08398 49.9365 3.31543 49.6494 3.77832C49.3682 4.23535 49.2188 4.95312 49.2012 5.93164V9.04297C49.2012 10.0859 49.3418 10.8623 49.623 11.3721C49.9102 11.876 50.3672 12.1279 50.9941 12.1279C51.6152 12.1279 52.0635 11.8848 52.3389 11.3984C52.6143 10.9121 52.7578 10.168 52.7695 9.16602V6.125ZM71.0859 8.76172H61.9805V6.6875H71.0859V8.76172ZM79.9541 6.47656H81.3076C81.9521 6.47656 82.4297 6.31543 82.7402 5.99316C83.0508 5.6709 83.2061 5.24316 83.2061 4.70996C83.2061 4.19434 83.0508 3.79297 82.7402 3.50586C82.4355 3.21875 82.0137 3.0752 81.4746 3.0752C80.9883 3.0752 80.5811 3.20996 80.2529 3.47949C79.9248 3.74316 79.7607 4.08887 79.7607 4.5166H77.2207C77.2207 3.84863 77.3994 3.25098 77.7568 2.72363C78.1201 2.19043 78.624 1.77441 79.2686 1.47559C79.9189 1.17676 80.6338 1.02734 81.4131 1.02734C82.7666 1.02734 83.8271 1.35254 84.5947 2.00293C85.3623 2.64746 85.7461 3.53809 85.7461 4.6748C85.7461 5.26074 85.5674 5.7998 85.21 6.29199C84.8525 6.78418 84.3838 7.16211 83.8037 7.42578C84.5244 7.68359 85.0605 8.07031 85.4121 8.58594C85.7695 9.10156 85.9482 9.71094 85.9482 10.4141C85.9482 11.5508 85.5322 12.4619 84.7002 13.1475C83.874 13.833 82.7783 14.1758 81.4131 14.1758C80.1357 14.1758 79.0898 13.8389 78.2754 13.165C77.4668 12.4912 77.0625 11.6006 77.0625 10.4932H79.6025C79.6025 10.9736 79.7812 11.3662 80.1387 11.6709C80.502 11.9756 80.9473 12.1279 81.4746 12.1279C82.0781 12.1279 82.5498 11.9697 82.8896 11.6533C83.2354 11.3311 83.4082 10.9062 83.4082 10.3789C83.4082 9.10156 82.7051 8.46289 81.2988 8.46289H79.9541V6.47656ZM88.084 7.70703L88.8223 1.20312H95.9941V3.32129H90.9053L90.5889 6.07227C91.1924 5.75 91.834 5.58887 92.5137 5.58887C93.7324 5.58887 94.6875 5.9668 95.3789 6.72266C96.0703 7.47852 96.416 8.53613 96.416 9.89551C96.416 10.7217 96.2402 11.4629 95.8887 12.1191C95.543 12.7695 95.0449 13.2764 94.3945 13.6396C93.7441 13.9971 92.9766 14.1758 92.0918 14.1758C91.3184 14.1758 90.6006 14.0205 89.9385 13.71C89.2764 13.3936 88.752 12.9512 88.3652 12.3828C87.9844 11.8145 87.7822 11.167 87.7588 10.4404H90.2725C90.3252 10.9736 90.5098 11.3896 90.8262 11.6885C91.1484 11.9814 91.5674 12.1279 92.083 12.1279C92.6572 12.1279 93.0996 11.9229 93.4102 11.5127C93.7207 11.0967 93.876 10.5107 93.876 9.75488C93.876 9.02832 93.6973 8.47168 93.3398 8.08496C92.9824 7.69824 92.4756 7.50488 91.8193 7.50488C91.2158 7.50488 90.7266 7.66309 90.3516 7.97949L90.1055 8.20801L88.084 7.70703ZM111.138 8.70898C111.138 10.4785 110.771 11.832 110.039 12.7695C109.307 13.707 108.234 14.1758 106.822 14.1758C105.428 14.1758 104.361 13.7158 103.623 12.7959C102.885 11.876 102.507 10.5576 102.489 8.84082V6.48535C102.489 4.69824 102.858 3.3418 103.597 2.41602C104.341 1.49023 105.41 1.02734 106.805 1.02734C108.199 1.02734 109.266 1.4873 110.004 2.40723C110.742 3.32129 111.12 4.63672 111.138 6.35352V8.70898ZM108.598 6.125C108.598 5.06445 108.451 4.29395 108.158 3.81348C107.871 3.32715 107.42 3.08398 106.805 3.08398C106.207 3.08398 105.765 3.31543 105.478 3.77832C105.196 4.23535 105.047 4.95312 105.029 5.93164V9.04297C105.029 10.0859 105.17 10.8623 105.451 11.3721C105.738 11.876 106.195 12.1279 106.822 12.1279C107.443 12.1279 107.892 11.8848 108.167 11.3984C108.442 10.9121 108.586 10.168 108.598 9.16602V6.125ZM121.474 8.70898C121.474 10.4785 121.107 11.832 120.375 12.7695C119.643 13.707 118.57 14.1758 117.158 14.1758C115.764 14.1758 114.697 13.7158 113.959 12.7959C113.221 11.876 112.843 10.5576 112.825 8.84082V6.48535C112.825 4.69824 113.194 3.3418 113.933 2.41602C114.677 1.49023 115.746 1.02734 117.141 1.02734C118.535 1.02734 119.602 1.4873 120.34 2.40723C121.078 3.32129 121.456 4.63672 121.474 6.35352V8.70898ZM118.934 6.125C118.934 5.06445 118.787 4.29395 118.494 3.81348C118.207 3.32715 117.756 3.08398 117.141 3.08398C116.543 3.08398 116.101 3.31543 115.813 3.77832C115.532 4.23535 115.383 4.95312 115.365 5.93164V9.04297C115.365 10.0859 115.506 10.8623 115.787 11.3721C116.074 11.876 116.531 12.1279 117.158 12.1279C117.779 12.1279 118.228 11.8848 118.503 11.3984C118.778 10.9121 118.922 10.168 118.934 9.16602V6.125ZM131.81 8.70898C131.81 10.4785 131.443 11.832 130.711 12.7695C129.979 13.707 128.906 14.1758 127.494 14.1758C126.1 14.1758 125.033 13.7158 124.295 12.7959C123.557 11.876 123.179 10.5576 123.161 8.84082V6.48535C123.161 4.69824 123.53 3.3418 124.269 2.41602C125.013 1.49023 126.082 1.02734 127.477 1.02734C128.871 1.02734 129.938 1.4873 130.676 2.40723C131.414 3.32129 131.792 4.63672 131.81 6.35352V8.70898ZM129.27 6.125C129.27 5.06445 129.123 4.29395 128.83 3.81348C128.543 3.32715 128.092 3.08398 127.477 3.08398C126.879 3.08398 126.437 3.31543 126.149 3.77832C125.868 4.23535 125.719 4.95312 125.701 5.93164V9.04297C125.701 10.0859 125.842 10.8623 126.123 11.3721C126.41 11.876 126.867 12.1279 127.494 12.1279C128.115 12.1279 128.563 11.8848 128.839 11.3984C129.114 10.9121 129.258 10.168 129.27 9.16602V6.125ZM146.681 9.33301C146.681 10.7979 146.347 11.9727 145.679 12.8574C145.017 13.7363 144.12 14.1758 142.989 14.1758C142.028 14.1758 141.252 13.8418 140.66 13.1738V17.6562H138.12V4.49023H140.476L140.563 5.42188C141.179 4.68359 141.981 4.31445 142.972 4.31445C144.144 4.31445 145.055 4.74805 145.705 5.61523C146.355 6.48242 146.681 7.67773 146.681 9.20117V9.33301ZM144.141 9.14844C144.141 8.26367 143.982 7.58105 143.666 7.10059C143.355 6.62012 142.901 6.37988 142.304 6.37988C141.507 6.37988 140.959 6.68457 140.66 7.29395V11.1875C140.971 11.8145 141.524 12.1279 142.321 12.1279C143.534 12.1279 144.141 11.1348 144.141 9.14844ZM151.708 10.4053L153.466 4.49023H156.19L152.367 15.4766L152.156 15.9775C151.588 17.2197 150.65 17.8408 149.344 17.8408C148.975 17.8408 148.6 17.7852 148.219 17.6738V15.749L148.605 15.7578C149.086 15.7578 149.443 15.6846 149.678 15.5381C149.918 15.3916 150.105 15.1484 150.24 14.8086L150.539 14.0264L147.208 4.49023H149.941L151.708 10.4053ZM161.912 5.01758C163.131 5.01758 164.104 5.42188 164.83 6.23047C165.557 7.03906 165.92 8.1377 165.92 9.52637V9.64941C165.92 11.0205 165.516 12.1191 164.707 12.9453C163.898 13.7715 162.812 14.1846 161.446 14.1846C160.075 14.1846 158.982 13.7393 158.168 12.8486C157.359 11.9521 156.955 10.7363 156.955 9.20117V8.7793C156.967 6.64062 157.327 4.96777 158.036 3.76074C158.751 2.54785 159.823 1.7832 161.253 1.4668C162.003 1.30273 162.486 1.1416 162.703 0.983398C162.92 0.819336 163.028 0.59375 163.028 0.306641H165.085C165.085 1.22656 164.836 1.91797 164.338 2.38086C163.846 2.84375 162.967 3.20117 161.701 3.45312C160.951 3.60547 160.359 3.90137 159.926 4.34082C159.492 4.78027 159.199 5.39844 159.047 6.19531C159.855 5.41016 160.811 5.01758 161.912 5.01758ZM161.429 7.07422C160.825 7.07422 160.351 7.27637 160.005 7.68066C159.665 8.08496 159.495 8.74121 159.495 9.64941C159.495 10.458 159.662 11.0762 159.996 11.5039C160.33 11.9258 160.813 12.1367 161.446 12.1367C162.062 12.1367 162.536 11.9287 162.87 11.5127C163.204 11.0967 163.374 10.4844 163.38 9.67578V9.46484C163.38 8.68555 163.207 8.09375 162.861 7.68945C162.521 7.2793 162.044 7.07422 161.429 7.07422ZM175.711 4.49023V14H173.171V6.54688H170.93L170.771 9.48242C170.672 11.0469 170.364 12.1865 169.849 12.9014C169.333 13.6162 168.565 13.9824 167.546 14H166.685L166.658 11.9346L166.975 11.9082C167.432 11.873 167.766 11.6035 167.977 11.0996C168.188 10.5957 168.319 9.7373 168.372 8.52441L168.548 4.49023H175.711ZM182.048 14.1758C180.653 14.1758 179.517 13.748 178.638 12.8926C177.765 12.0371 177.328 10.8975 177.328 9.47363V9.22754C177.328 8.27246 177.513 7.41992 177.882 6.66992C178.251 5.91406 178.772 5.33398 179.446 4.92969C180.126 4.51953 180.899 4.31445 181.767 4.31445C183.067 4.31445 184.09 4.72461 184.834 5.54492C185.584 6.36523 185.959 7.52832 185.959 9.03418V10.0713H179.903C179.985 10.6924 180.231 11.1904 180.642 11.5654C181.058 11.9404 181.582 12.1279 182.215 12.1279C183.193 12.1279 183.958 11.7734 184.509 11.0645L185.757 12.4619C185.376 13.001 184.86 13.4229 184.21 13.7275C183.56 14.0264 182.839 14.1758 182.048 14.1758ZM181.758 6.37109C181.254 6.37109 180.844 6.54102 180.527 6.88086C180.217 7.2207 180.018 7.70703 179.93 8.33984H183.463V8.1377C183.451 7.5752 183.299 7.1416 183.006 6.83691C182.713 6.52637 182.297 6.37109 181.758 6.37109ZM193.14 4.49023H195.68V14H193.14V8.12891L189.958 14H187.409V4.49023H189.958V10.3525L193.14 4.49023ZM194.634 0.631836C194.634 1.41113 194.353 2.04102 193.79 2.52148C193.233 3.00195 192.501 3.24219 191.593 3.24219C190.685 3.24219 189.949 3.00488 189.387 2.53027C188.83 2.05566 188.552 1.42285 188.552 0.631836H190.354C190.354 1.00098 190.462 1.28809 190.679 1.49316C190.901 1.69238 191.206 1.79199 191.593 1.79199C191.974 1.79199 192.272 1.69238 192.489 1.49316C192.706 1.28809 192.814 1.00098 192.814 0.631836H194.634ZM211.342 8.27832H202.535V6.95117H211.342V8.27832ZM222.434 12.8486C223.014 12.8486 223.521 12.6729 223.954 12.3213C224.388 11.9697 224.628 11.5303 224.675 11.0029H226.213C226.184 11.5479 225.996 12.0664 225.65 12.5586C225.305 13.0508 224.842 13.4434 224.262 13.7363C223.688 14.0293 223.078 14.1758 222.434 14.1758C221.139 14.1758 220.107 13.7451 219.34 12.8838C218.578 12.0166 218.197 10.833 218.197 9.33301V9.06055C218.197 8.13477 218.367 7.31152 218.707 6.59082C219.047 5.87012 219.533 5.31055 220.166 4.91211C220.805 4.51367 221.558 4.31445 222.425 4.31445C223.491 4.31445 224.376 4.63379 225.079 5.27246C225.788 5.91113 226.166 6.74023 226.213 7.75977H224.675C224.628 7.14453 224.394 6.64062 223.972 6.24805C223.556 5.84961 223.04 5.65039 222.425 5.65039C221.599 5.65039 220.957 5.94922 220.5 6.54688C220.049 7.13867 219.823 7.99707 219.823 9.12207V9.42969C219.823 10.5254 220.049 11.3691 220.5 11.9609C220.951 12.5527 221.596 12.8486 222.434 12.8486ZM236.074 9.35059C236.074 10.7979 235.743 11.9639 235.081 12.8486C234.419 13.7334 233.522 14.1758 232.392 14.1758C231.237 14.1758 230.329 13.8096 229.667 13.0771V17.6562H228.041V4.49023H229.526L229.605 5.54492C230.268 4.72461 231.188 4.31445 232.365 4.31445C233.508 4.31445 234.41 4.74512 235.072 5.60645C235.74 6.46777 236.074 7.66602 236.074 9.20117V9.35059ZM234.448 9.16602C234.448 8.09375 234.22 7.24707 233.763 6.62598C233.306 6.00488 232.679 5.69434 231.882 5.69434C230.897 5.69434 230.159 6.13086 229.667 7.00391V11.5479C230.153 12.415 230.897 12.8486 231.899 12.8486C232.679 12.8486 233.297 12.541 233.754 11.9258C234.217 11.3047 234.448 10.3848 234.448 9.16602ZM242.095 14.1758C240.806 14.1758 239.757 13.7539 238.948 12.9102C238.14 12.0605 237.735 10.9268 237.735 9.50879V9.20996C237.735 8.2666 237.914 7.42578 238.271 6.6875C238.635 5.94336 239.139 5.36328 239.783 4.94727C240.434 4.52539 241.137 4.31445 241.893 4.31445C243.129 4.31445 244.09 4.72168 244.775 5.53613C245.461 6.35059 245.804 7.5166 245.804 9.03418V9.71094H239.361C239.385 10.6484 239.657 11.4072 240.179 11.9873C240.706 12.5615 241.374 12.8486 242.183 12.8486C242.757 12.8486 243.243 12.7314 243.642 12.4971C244.04 12.2627 244.389 11.9521 244.688 11.5654L245.681 12.3389C244.884 13.5635 243.688 14.1758 242.095 14.1758ZM241.893 5.65039C241.236 5.65039 240.686 5.89062 240.24 6.37109C239.795 6.8457 239.52 7.51367 239.414 8.375H244.178V8.25195C244.131 7.42578 243.908 6.78711 243.51 6.33594C243.111 5.87891 242.572 5.65039 241.893 5.65039ZM247.614 12.6729L248.177 11.9785C248.81 11.1582 249.17 9.92773 249.258 8.28711L249.407 4.49023H255.533V12.6729H256.755V16.7949H255.129V14H248.493V16.7949H246.867L246.876 12.6729H247.614ZM249.539 12.6729H253.907V5.99316H250.98L250.884 8.26074C250.784 10.1533 250.336 11.624 249.539 12.6729ZM266.326 14H264.7V9.93945H260.332V14H258.697V4.49023H260.332V8.6123H264.7V4.49023H266.326V14ZM276.214 4.49023V14H274.579V10.2998H272.127L269.886 14H268.128L270.519 10.0537C269.909 9.83105 269.44 9.48828 269.112 9.02539C268.79 8.55664 268.629 8.01172 268.629 7.39062C268.629 6.52344 268.954 5.82617 269.604 5.29883C270.255 4.76562 271.125 4.49609 272.215 4.49023H276.214ZM270.264 7.4082C270.264 7.87109 270.422 8.24609 270.738 8.5332C271.055 8.81445 271.474 8.95801 271.995 8.96387H274.579V5.80859H272.241C271.638 5.80859 271.157 5.95801 270.8 6.25684C270.442 6.5498 270.264 6.93359 270.264 7.4082ZM286.093 4.49023V14H284.458V10.2998H282.006L279.765 14H278.007L280.397 10.0537C279.788 9.83105 279.319 9.48828 278.991 9.02539C278.669 8.55664 278.508 8.01172 278.508 7.39062C278.508 6.52344 278.833 5.82617 279.483 5.29883C280.134 4.76562 281.004 4.49609 282.094 4.49023H286.093ZM280.143 7.4082C280.143 7.87109 280.301 8.24609 280.617 8.5332C280.934 8.81445 281.353 8.95801 281.874 8.96387H284.458V5.80859H282.12C281.517 5.80859 281.036 5.95801 280.679 6.25684C280.321 6.5498 280.143 6.93359 280.143 7.4082ZM296.982 12.8486C297.562 12.8486 298.069 12.6729 298.503 12.3213C298.937 11.9697 299.177 11.5303 299.224 11.0029H300.762C300.732 11.5479 300.545 12.0664 300.199 12.5586C299.854 13.0508 299.391 13.4434 298.811 13.7363C298.236 14.0293 297.627 14.1758 296.982 14.1758C295.688 14.1758 294.656 13.7451 293.889 12.8838C293.127 12.0166 292.746 10.833 292.746 9.33301V9.06055C292.746 8.13477 292.916 7.31152 293.256 6.59082C293.596 5.87012 294.082 5.31055 294.715 4.91211C295.354 4.51367 296.106 4.31445 296.974 4.31445C298.04 4.31445 298.925 4.63379 299.628 5.27246C300.337 5.91113 300.715 6.74023 300.762 7.75977H299.224C299.177 7.14453 298.942 6.64062 298.521 6.24805C298.104 5.84961 297.589 5.65039 296.974 5.65039C296.147 5.65039 295.506 5.94922 295.049 6.54688C294.598 7.13867 294.372 7.99707 294.372 9.12207V9.42969C294.372 10.5254 294.598 11.3691 295.049 11.9609C295.5 12.5527 296.145 12.8486 296.982 12.8486ZM309.656 5.80859H306.466V14H304.84V5.80859H301.711V4.49023H309.656V5.80859ZM310.438 9.15723C310.438 8.22559 310.62 7.3877 310.983 6.64355C311.353 5.89941 311.862 5.3252 312.513 4.9209C313.169 4.5166 313.916 4.31445 314.754 4.31445C316.049 4.31445 317.095 4.7627 317.892 5.65918C318.694 6.55566 319.096 7.74805 319.096 9.23633V9.35059C319.096 10.2764 318.917 11.1084 318.56 11.8467C318.208 12.5791 317.701 13.1504 317.039 13.5605C316.383 13.9707 315.627 14.1758 314.771 14.1758C313.482 14.1758 312.437 13.7275 311.634 12.8311C310.837 11.9346 310.438 10.748 310.438 9.27148V9.15723ZM312.073 9.35059C312.073 10.4053 312.316 11.252 312.803 11.8906C313.295 12.5293 313.951 12.8486 314.771 12.8486C315.598 12.8486 316.254 12.5264 316.74 11.8818C317.227 11.2314 317.47 10.3232 317.47 9.15723C317.47 8.11426 317.221 7.27051 316.723 6.62598C316.23 5.97559 315.574 5.65039 314.754 5.65039C313.951 5.65039 313.304 5.96973 312.812 6.6084C312.319 7.24707 312.073 8.16113 312.073 9.35059ZM327.287 4.49023H328.913V14H327.287V7.06543L322.901 14H321.275V4.49023H322.901V11.4336L327.287 4.49023ZM336.999 11.8467L340.233 4.49023H342.264V14H340.638V7.08301L337.562 14H336.437L333.299 6.93359V14H331.673V4.49023H333.782L336.999 11.8467ZM344.452 9.15723C344.452 8.22559 344.634 7.3877 344.997 6.64355C345.366 5.89941 345.876 5.3252 346.526 4.9209C347.183 4.5166 347.93 4.31445 348.768 4.31445C350.062 4.31445 351.108 4.7627 351.905 5.65918C352.708 6.55566 353.109 7.74805 353.109 9.23633V9.35059C353.109 10.2764 352.931 11.1084 352.573 11.8467C352.222 12.5791 351.715 13.1504 351.053 13.5605C350.396 13.9707 349.641 14.1758 348.785 14.1758C347.496 14.1758 346.45 13.7275 345.647 12.8311C344.851 11.9346 344.452 10.748 344.452 9.27148V9.15723ZM346.087 9.35059C346.087 10.4053 346.33 11.252 346.816 11.8906C347.309 12.5293 347.965 12.8486 348.785 12.8486C349.611 12.8486 350.268 12.5264 350.754 11.8818C351.24 11.2314 351.483 10.3232 351.483 9.15723C351.483 8.11426 351.234 7.27051 350.736 6.62598C350.244 5.97559 349.588 5.65039 348.768 5.65039C347.965 5.65039 347.317 5.96973 346.825 6.6084C346.333 7.24707 346.087 8.16113 346.087 9.35059ZM358.963 12.8486C359.543 12.8486 360.05 12.6729 360.483 12.3213C360.917 11.9697 361.157 11.5303 361.204 11.0029H362.742C362.713 11.5479 362.525 12.0664 362.18 12.5586C361.834 13.0508 361.371 13.4434 360.791 13.7363C360.217 14.0293 359.607 14.1758 358.963 14.1758C357.668 14.1758 356.637 13.7451 355.869 12.8838C355.107 12.0166 354.727 10.833 354.727 9.33301V9.06055C354.727 8.13477 354.896 7.31152 355.236 6.59082C355.576 5.87012 356.062 5.31055 356.695 4.91211C357.334 4.51367 358.087 4.31445 358.954 4.31445C360.021 4.31445 360.905 4.63379 361.608 5.27246C362.317 5.91113 362.695 6.74023 362.742 7.75977H361.204C361.157 7.14453 360.923 6.64062 360.501 6.24805C360.085 5.84961 359.569 5.65039 358.954 5.65039C358.128 5.65039 357.486 5.94922 357.029 6.54688C356.578 7.13867 356.353 7.99707 356.353 9.12207V9.42969C356.353 10.5254 356.578 11.3691 357.029 11.9609C357.48 12.5527 358.125 12.8486 358.963 12.8486ZM371.637 5.80859H368.446V14H366.82V5.80859H363.691V4.49023H371.637V5.80859ZM374.994 7.76855H377.464C378.542 7.78027 379.395 8.06152 380.021 8.6123C380.648 9.16309 380.962 9.91016 380.962 10.8535C380.962 11.8027 380.64 12.5645 379.995 13.1387C379.351 13.7129 378.483 14 377.394 14H373.368V4.49023H374.994V7.76855ZM374.994 9.0957V12.6729H377.411C378.021 12.6729 378.492 12.5176 378.826 12.207C379.16 11.8906 379.327 11.46 379.327 10.915C379.327 10.3877 379.163 9.95703 378.835 9.62305C378.513 9.2832 378.059 9.10742 377.473 9.0957H374.994ZM5.04492 36.8486C5.625 36.8486 6.13184 36.6729 6.56543 36.3213C6.99902 35.9697 7.23926 35.5303 7.28613 35.0029H8.82422C8.79492 35.5479 8.60742 36.0664 8.26172 36.5586C7.91602 37.0508 7.45312 37.4434 6.87305 37.7363C6.29883 38.0293 5.68945 38.1758 5.04492 38.1758C3.75 38.1758 2.71875 37.7451 1.95117 36.8838C1.18945 36.0166 0.808594 34.833 0.808594 33.333V33.0605C0.808594 32.1348 0.978516 31.3115 1.31836 30.5908C1.6582 29.8701 2.14453 29.3105 2.77734 28.9121C3.41602 28.5137 4.16895 28.3145 5.03613 28.3145C6.10254 28.3145 6.9873 28.6338 7.69043 29.2725C8.39941 29.9111 8.77734 30.7402 8.82422 31.7598H7.28613C7.23926 31.1445 7.00488 30.6406 6.58301 30.248C6.16699 29.8496 5.65137 29.6504 5.03613 29.6504C4.20996 29.6504 3.56836 29.9492 3.11133 30.5469C2.66016 31.1387 2.43457 31.9971 2.43457 33.1221V33.4297C2.43457 34.5254 2.66016 35.3691 3.11133 35.9609C3.5625 36.5527 4.20703 36.8486 5.04492 36.8486ZM10.2217 33.1572C10.2217 32.2256 10.4033 31.3877 10.7666 30.6436C11.1357 29.8994 11.6455 29.3252 12.2959 28.9209C12.9521 28.5166 13.6992 28.3145 14.5371 28.3145C15.832 28.3145 16.8779 28.7627 17.6748 29.6592C18.4775 30.5557 18.8789 31.748 18.8789 33.2363V33.3506C18.8789 34.2764 18.7002 35.1084 18.3428 35.8467C17.9912 36.5791 17.4844 37.1504 16.8223 37.5605C16.166 37.9707 15.4102 38.1758 14.5547 38.1758C13.2656 38.1758 12.2197 37.7275 11.417 36.8311C10.6201 35.9346 10.2217 34.748 10.2217 33.2715V33.1572ZM11.8564 33.3506C11.8564 34.4053 12.0996 35.252 12.5859 35.8906C13.0781 36.5293 13.7344 36.8486 14.5547 36.8486C15.3809 36.8486 16.0371 36.5264 16.5234 35.8818C17.0098 35.2314 17.2529 34.3232 17.2529 33.1572C17.2529 32.1143 17.0039 31.2705 16.5059 30.626C16.0137 29.9756 15.3574 29.6504 14.5371 29.6504C13.7344 29.6504 13.0869 29.9697 12.5947 30.6084C12.1025 31.2471 11.8564 32.1611 11.8564 33.3506ZM28.6963 38H27.0703V29.835H22.6934V38H21.0586V28.4902H28.6963V38ZM39.3398 33.3506C39.3398 34.7979 39.0088 35.9639 38.3467 36.8486C37.6846 37.7334 36.7881 38.1758 35.6572 38.1758C34.5029 38.1758 33.5947 37.8096 32.9326 37.0771V41.6562H31.3066V28.4902H32.792L32.8711 29.5449C33.5332 28.7246 34.4531 28.3145 35.6309 28.3145C36.7734 28.3145 37.6758 28.7451 38.3379 29.6064C39.0059 30.4678 39.3398 31.666 39.3398 33.2012V33.3506ZM37.7139 33.166C37.7139 32.0938 37.4854 31.2471 37.0283 30.626C36.5713 30.0049 35.9443 29.6943 35.1475 29.6943C34.1631 29.6943 33.4248 30.1309 32.9326 31.0039V35.5479C33.4189 36.415 34.1631 36.8486 35.165 36.8486C35.9443 36.8486 36.5625 36.541 37.0195 35.9258C37.4824 35.3047 37.7139 34.3848 37.7139 33.166ZM40.9834 33.1572C40.9834 32.2256 41.165 31.3877 41.5283 30.6436C41.8975 29.8994 42.4072 29.3252 43.0576 28.9209C43.7139 28.5166 44.4609 28.3145 45.2988 28.3145C46.5938 28.3145 47.6396 28.7627 48.4365 29.6592C49.2393 30.5557 49.6406 31.748 49.6406 33.2363V33.3506C49.6406 34.2764 49.4619 35.1084 49.1045 35.8467C48.7529 36.5791 48.2461 37.1504 47.584 37.5605C46.9277 37.9707 46.1719 38.1758 45.3164 38.1758C44.0273 38.1758 42.9814 37.7275 42.1787 36.8311C41.3818 35.9346 40.9834 34.748 40.9834 33.2715V33.1572ZM42.6182 33.3506C42.6182 34.4053 42.8613 35.252 43.3477 35.8906C43.8398 36.5293 44.4961 36.8486 45.3164 36.8486C46.1426 36.8486 46.7988 36.5264 47.2852 35.8818C47.7715 35.2314 48.0146 34.3232 48.0146 33.1572C48.0146 32.1143 47.7656 31.2705 47.2676 30.626C46.7754 29.9756 46.1191 29.6504 45.2988 29.6504C44.4961 29.6504 43.8486 29.9697 43.3564 30.6084C42.8643 31.2471 42.6182 32.1611 42.6182 33.3506ZM51.8291 38V28.4902H55.5381C56.8037 28.4902 57.7734 28.7129 58.4473 29.1582C59.127 29.5977 59.4668 30.2451 59.4668 31.1006C59.4668 31.54 59.335 31.9385 59.0713 32.2959C58.8076 32.6475 58.418 32.917 57.9023 33.1045C58.4766 33.2393 58.9365 33.5029 59.2822 33.8955C59.6338 34.2881 59.8096 34.7568 59.8096 35.3018C59.8096 36.1748 59.4873 36.8428 58.8428 37.3057C58.2041 37.7686 57.2988 38 56.127 38H51.8291ZM53.4551 33.8252V36.6904H56.1445C56.8242 36.6904 57.3311 36.5645 57.665 36.3125C58.0049 36.0605 58.1748 35.7061 58.1748 35.249C58.1748 34.2998 57.4775 33.8252 56.083 33.8252H53.4551ZM53.4551 32.5244H55.5557C57.0791 32.5244 57.8408 32.0791 57.8408 31.1885C57.8408 30.2979 57.1201 29.8379 55.6787 29.8086H53.4551V32.5244ZM61.5322 33.1572C61.5322 32.2256 61.7139 31.3877 62.0771 30.6436C62.4463 29.8994 62.9561 29.3252 63.6064 28.9209C64.2627 28.5166 65.0098 28.3145 65.8477 28.3145C67.1426 28.3145 68.1885 28.7627 68.9854 29.6592C69.7881 30.5557 70.1895 31.748 70.1895 33.2363V33.3506C70.1895 34.2764 70.0107 35.1084 69.6533 35.8467C69.3018 36.5791 68.7949 37.1504 68.1328 37.5605C67.4766 37.9707 66.7207 38.1758 65.8652 38.1758C64.5762 38.1758 63.5303 37.7275 62.7275 36.8311C61.9307 35.9346 61.5322 34.748 61.5322 33.2715V33.1572ZM63.167 33.3506C63.167 34.4053 63.4102 35.252 63.8965 35.8906C64.3887 36.5293 65.0449 36.8486 65.8652 36.8486C66.6914 36.8486 67.3477 36.5264 67.834 35.8818C68.3203 35.2314 68.5635 34.3232 68.5635 33.1572C68.5635 32.1143 68.3145 31.2705 67.8164 30.626C67.3242 29.9756 66.668 29.6504 65.8477 29.6504C65.0449 29.6504 64.3975 29.9697 63.9053 30.6084C63.4131 31.2471 63.167 32.1611 63.167 33.3506ZM79.6201 33.8691H78.4775V38H76.8516V33.8691H75.709L73.0459 38H70.9893L74.3906 33.0781L71.3145 28.4902H73.2832L75.7354 32.4277H76.8516V28.4902H78.4775V32.4277H79.585L82.0547 28.4902H84.0234L80.9385 33.0869L84.3398 38H82.2832L79.6201 33.8691ZM85.7373 36.6729L86.2998 35.9785C86.9326 35.1582 87.293 33.9277 87.3809 32.2871L87.5303 28.4902H93.6562V36.6729H94.8779V40.7949H93.252V38H86.6162V40.7949H84.9902L84.999 36.6729H85.7373ZM87.6621 36.6729H92.0303V29.9932H89.1035L89.0068 32.2607C88.9072 34.1533 88.459 35.624 87.6621 36.6729ZM100.626 38.1758C99.3369 38.1758 98.2881 37.7539 97.4795 36.9102C96.6709 36.0605 96.2666 34.9268 96.2666 33.5088V33.21C96.2666 32.2666 96.4453 31.4258 96.8027 30.6875C97.166 29.9434 97.6699 29.3633 98.3145 28.9473C98.9648 28.5254 99.668 28.3145 100.424 28.3145C101.66 28.3145 102.621 28.7217 103.307 29.5361C103.992 30.3506 104.335 31.5166 104.335 33.0342V33.7109H97.8926C97.916 34.6484 98.1885 35.4072 98.71 35.9873C99.2373 36.5615 99.9053 36.8486 100.714 36.8486C101.288 36.8486 101.774 36.7314 102.173 36.4971C102.571 36.2627 102.92 35.9521 103.219 35.5654L104.212 36.3389C103.415 37.5635 102.22 38.1758 100.626 38.1758ZM100.424 29.6504C99.7676 29.6504 99.2168 29.8906 98.7715 30.3711C98.3262 30.8457 98.0508 31.5137 97.9453 32.375H102.709V32.252C102.662 31.4258 102.439 30.7871 102.041 30.3359C101.643 29.8789 101.104 29.6504 100.424 29.6504ZM113.994 38H112.368V33.9395H108V38H106.365V28.4902H108V32.6123H112.368V28.4902H113.994V38ZM122.766 28.4902H124.392V38H122.766V31.0654L118.38 38H116.754V28.4902H118.38V35.4336L122.766 28.4902ZM134.271 28.4902V38H132.636V34.2998H130.184L127.942 38H126.185L128.575 34.0537C127.966 33.8311 127.497 33.4883 127.169 33.0254C126.847 32.5566 126.686 32.0117 126.686 31.3906C126.686 30.5234 127.011 29.8262 127.661 29.2988C128.312 28.7656 129.182 28.4961 130.271 28.4902H134.271ZM128.32 31.4082C128.32 31.8711 128.479 32.2461 128.795 32.5332C129.111 32.8145 129.53 32.958 130.052 32.9639H132.636V29.8086H130.298C129.694 29.8086 129.214 29.958 128.856 30.2568C128.499 30.5498 128.32 30.9336 128.32 31.4082ZM149.124 38H147.498V29.835H143.121V38H141.486V28.4902H149.124V38ZM151.304 33.1572C151.304 32.2256 151.485 31.3877 151.849 30.6436C152.218 29.8994 152.728 29.3252 153.378 28.9209C154.034 28.5166 154.781 28.3145 155.619 28.3145C156.914 28.3145 157.96 28.7627 158.757 29.6592C159.56 30.5557 159.961 31.748 159.961 33.2363V33.3506C159.961 34.2764 159.782 35.1084 159.425 35.8467C159.073 36.5791 158.566 37.1504 157.904 37.5605C157.248 37.9707 156.492 38.1758 155.637 38.1758C154.348 38.1758 153.302 37.7275 152.499 36.8311C151.702 35.9346 151.304 34.748 151.304 33.2715V33.1572ZM152.938 33.3506C152.938 34.4053 153.182 35.252 153.668 35.8906C154.16 36.5293 154.816 36.8486 155.637 36.8486C156.463 36.8486 157.119 36.5264 157.605 35.8818C158.092 35.2314 158.335 34.3232 158.335 33.1572C158.335 32.1143 158.086 31.2705 157.588 30.626C157.096 29.9756 156.439 29.6504 155.619 29.6504C154.816 29.6504 154.169 29.9697 153.677 30.6084C153.185 31.2471 152.938 32.1611 152.938 33.3506ZM168.407 32.9902V38H166.72V25.2031H171.439C172.84 25.2031 173.936 25.5605 174.727 26.2754C175.523 26.9902 175.922 27.9365 175.922 29.1143C175.922 30.3564 175.532 31.3145 174.753 31.9883C173.979 32.6562 172.869 32.9902 171.422 32.9902H168.407ZM168.407 31.6104H171.439C172.342 31.6104 173.033 31.3994 173.514 30.9775C173.994 30.5498 174.234 29.9346 174.234 29.1318C174.234 28.3701 173.994 27.7607 173.514 27.3037C173.033 26.8467 172.374 26.6094 171.536 26.5918H168.407V31.6104ZM177.267 33.1572C177.267 32.2256 177.448 31.3877 177.812 30.6436C178.181 29.8994 178.69 29.3252 179.341 28.9209C179.997 28.5166 180.744 28.3145 181.582 28.3145C182.877 28.3145 183.923 28.7627 184.72 29.6592C185.522 30.5557 185.924 31.748 185.924 33.2363V33.3506C185.924 34.2764 185.745 35.1084 185.388 35.8467C185.036 36.5791 184.529 37.1504 183.867 37.5605C183.211 37.9707 182.455 38.1758 181.6 38.1758C180.311 38.1758 179.265 37.7275 178.462 36.8311C177.665 35.9346 177.267 34.748 177.267 33.2715V33.1572ZM178.901 33.3506C178.901 34.4053 179.145 35.252 179.631 35.8906C180.123 36.5293 180.779 36.8486 181.6 36.8486C182.426 36.8486 183.082 36.5264 183.568 35.8818C184.055 35.2314 184.298 34.3232 184.298 33.1572C184.298 32.1143 184.049 31.2705 183.551 30.626C183.059 29.9756 182.402 29.6504 181.582 29.6504C180.779 29.6504 180.132 29.9697 179.64 30.6084C179.147 31.2471 178.901 32.1611 178.901 33.3506ZM191.777 36.8486C192.357 36.8486 192.864 36.6729 193.298 36.3213C193.731 35.9697 193.972 35.5303 194.019 35.0029H195.557C195.527 35.5479 195.34 36.0664 194.994 36.5586C194.648 37.0508 194.186 37.4434 193.605 37.7363C193.031 38.0293 192.422 38.1758 191.777 38.1758C190.482 38.1758 189.451 37.7451 188.684 36.8838C187.922 36.0166 187.541 34.833 187.541 33.333V33.0605C187.541 32.1348 187.711 31.3115 188.051 30.5908C188.391 29.8701 188.877 29.3105 189.51 28.9121C190.148 28.5137 190.901 28.3145 191.769 28.3145C192.835 28.3145 193.72 28.6338 194.423 29.2725C195.132 29.9111 195.51 30.7402 195.557 31.7598H194.019C193.972 31.1445 193.737 30.6406 193.315 30.248C192.899 29.8496 192.384 29.6504 191.769 29.6504C190.942 29.6504 190.301 29.9492 189.844 30.5469C189.393 31.1387 189.167 31.9971 189.167 33.1221V33.4297C189.167 34.5254 189.393 35.3691 189.844 35.9609C190.295 36.5527 190.939 36.8486 191.777 36.8486ZM201.199 36.8486C201.779 36.8486 202.286 36.6729 202.72 36.3213C203.153 35.9697 203.394 35.5303 203.44 35.0029H204.979C204.949 35.5479 204.762 36.0664 204.416 36.5586C204.07 37.0508 203.607 37.4434 203.027 37.7363C202.453 38.0293 201.844 38.1758 201.199 38.1758C199.904 38.1758 198.873 37.7451 198.105 36.8838C197.344 36.0166 196.963 34.833 196.963 33.333V33.0605C196.963 32.1348 197.133 31.3115 197.473 30.5908C197.812 29.8701 198.299 29.3105 198.932 28.9121C199.57 28.5137 200.323 28.3145 201.19 28.3145C202.257 28.3145 203.142 28.6338 203.845 29.2725C204.554 29.9111 204.932 30.7402 204.979 31.7598H203.44C203.394 31.1445 203.159 30.6406 202.737 30.248C202.321 29.8496 201.806 29.6504 201.19 29.6504C200.364 29.6504 199.723 29.9492 199.266 30.5469C198.814 31.1387 198.589 31.9971 198.589 33.1221V33.4297C198.589 34.5254 198.814 35.3691 199.266 35.9609C199.717 36.5527 200.361 36.8486 201.199 36.8486ZM212.959 28.4902H214.585V38H212.959V31.0654L208.573 38H206.947V28.4902H208.573V35.4336L212.959 28.4902ZM223.348 28.4902H224.974V38H223.348V31.0654L218.962 38H217.336V28.4902H218.962V35.4336L223.348 28.4902ZM239.827 38H238.201V29.835H233.824V38H232.189V28.4902H239.827V38ZM242.007 33.1572C242.007 32.2256 242.188 31.3877 242.552 30.6436C242.921 29.8994 243.431 29.3252 244.081 28.9209C244.737 28.5166 245.484 28.3145 246.322 28.3145C247.617 28.3145 248.663 28.7627 249.46 29.6592C250.263 30.5557 250.664 31.748 250.664 33.2363V33.3506C250.664 34.2764 250.485 35.1084 250.128 35.8467C249.776 36.5791 249.27 37.1504 248.607 37.5605C247.951 37.9707 247.195 38.1758 246.34 38.1758C245.051 38.1758 244.005 37.7275 243.202 36.8311C242.405 35.9346 242.007 34.748 242.007 33.2715V33.1572ZM243.642 33.3506C243.642 34.4053 243.885 35.252 244.371 35.8906C244.863 36.5293 245.52 36.8486 246.34 36.8486C247.166 36.8486 247.822 36.5264 248.309 35.8818C248.795 35.2314 249.038 34.3232 249.038 33.1572C249.038 32.1143 248.789 31.2705 248.291 30.626C247.799 29.9756 247.143 29.6504 246.322 29.6504C245.52 29.6504 244.872 29.9697 244.38 30.6084C243.888 31.2471 243.642 32.1611 243.642 33.3506ZM264.946 38H263.32V29.835H258.943V38H257.309V28.4902H264.946V38ZM267.126 33.1572C267.126 32.2256 267.308 31.3877 267.671 30.6436C268.04 29.8994 268.55 29.3252 269.2 28.9209C269.856 28.5166 270.604 28.3145 271.441 28.3145C272.736 28.3145 273.782 28.7627 274.579 29.6592C275.382 30.5557 275.783 31.748 275.783 33.2363V33.3506C275.783 34.2764 275.604 35.1084 275.247 35.8467C274.896 36.5791 274.389 37.1504 273.727 37.5605C273.07 37.9707 272.314 38.1758 271.459 38.1758C270.17 38.1758 269.124 37.7275 268.321 36.8311C267.524 35.9346 267.126 34.748 267.126 33.2715V33.1572ZM268.761 33.3506C268.761 34.4053 269.004 35.252 269.49 35.8906C269.982 36.5293 270.639 36.8486 271.459 36.8486C272.285 36.8486 272.941 36.5264 273.428 35.8818C273.914 35.2314 274.157 34.3232 274.157 33.1572C274.157 32.1143 273.908 31.2705 273.41 30.626C272.918 29.9756 272.262 29.6504 271.441 29.6504C270.639 29.6504 269.991 29.9697 269.499 30.6084C269.007 31.2471 268.761 32.1611 268.761 33.3506ZM277.11 36.6729L277.673 35.9785C278.306 35.1582 278.666 33.9277 278.754 32.2871L278.903 28.4902H285.029V36.6729H286.251V40.7949H284.625V38H277.989V40.7949H276.363L276.372 36.6729H277.11ZM279.035 36.6729H283.403V29.9932H280.477L280.38 32.2607C280.28 34.1533 279.832 35.624 279.035 36.6729ZM293.924 38C293.83 37.8125 293.754 37.4785 293.695 36.998C292.939 37.7832 292.037 38.1758 290.988 38.1758C290.051 38.1758 289.28 37.9121 288.677 37.3848C288.079 36.8516 287.78 36.1777 287.78 35.3633C287.78 34.373 288.155 33.6055 288.905 33.0605C289.661 32.5098 290.722 32.2344 292.087 32.2344H293.669V31.4873C293.669 30.9189 293.499 30.4678 293.159 30.1338C292.819 29.7939 292.318 29.624 291.656 29.624C291.076 29.624 290.59 29.7705 290.197 30.0635C289.805 30.3564 289.608 30.7109 289.608 31.127H287.974C287.974 30.6523 288.141 30.1953 288.475 29.7559C288.814 29.3105 289.271 28.959 289.846 28.7012C290.426 28.4434 291.062 28.3145 291.753 28.3145C292.849 28.3145 293.707 28.5898 294.328 29.1406C294.949 29.6855 295.271 30.4385 295.295 31.3994V35.7764C295.295 36.6494 295.406 37.3438 295.629 37.8594V38H293.924ZM291.226 36.7607C291.735 36.7607 292.219 36.6289 292.676 36.3652C293.133 36.1016 293.464 35.7588 293.669 35.3369V33.3857H292.395C290.402 33.3857 289.406 33.9688 289.406 35.1348C289.406 35.6445 289.576 36.043 289.916 36.3301C290.256 36.6172 290.692 36.7607 291.226 36.7607ZM305.024 38H303.39V34.5547C302.675 34.7422 301.942 34.8359 301.192 34.8359C300.003 34.8359 299.095 34.5312 298.468 33.9219C297.847 33.3125 297.53 32.4453 297.519 31.3203V28.4814H299.145V31.373C299.174 32.791 299.856 33.5 301.192 33.5C301.942 33.5 302.675 33.4062 303.39 33.2188V28.4902H305.024V38ZM311.581 38.1758C310.292 38.1758 309.243 37.7539 308.435 36.9102C307.626 36.0605 307.222 34.9268 307.222 33.5088V33.21C307.222 32.2666 307.4 31.4258 307.758 30.6875C308.121 29.9434 308.625 29.3633 309.27 28.9473C309.92 28.5254 310.623 28.3145 311.379 28.3145C312.615 28.3145 313.576 28.7217 314.262 29.5361C314.947 30.3506 315.29 31.5166 315.29 33.0342V33.7109H308.848C308.871 34.6484 309.144 35.4072 309.665 35.9873C310.192 36.5615 310.86 36.8486 311.669 36.8486C312.243 36.8486 312.729 36.7314 313.128 36.4971C313.526 36.2627 313.875 35.9521 314.174 35.5654L315.167 36.3389C314.37 37.5635 313.175 38.1758 311.581 38.1758ZM311.379 29.6504C310.723 29.6504 310.172 29.8906 309.727 30.3711C309.281 30.8457 309.006 31.5137 308.9 32.375H313.664V32.252C313.617 31.4258 313.395 30.7871 312.996 30.3359C312.598 29.8789 312.059 29.6504 311.379 29.6504ZM1.15137 60.6729L1.71387 59.9785C2.34668 59.1582 2.70703 57.9277 2.79492 56.2871L2.94434 52.4902H9.07031V60.6729H10.292V64.7949H8.66602V62H2.03027V64.7949H0.404297L0.413086 60.6729H1.15137ZM3.07617 60.6729H7.44434V53.9932H4.51758L4.4209 56.2607C4.32129 58.1533 3.87305 59.624 3.07617 60.6729ZM11.6631 57.1572C11.6631 56.2256 11.8447 55.3877 12.208 54.6436C12.5771 53.8994 13.0869 53.3252 13.7373 52.9209C14.3936 52.5166 15.1406 52.3145 15.9785 52.3145C17.2734 52.3145 18.3193 52.7627 19.1162 53.6592C19.9189 54.5557 20.3203 55.748 20.3203 57.2363V57.3506C20.3203 58.2764 20.1416 59.1084 19.7842 59.8467C19.4326 60.5791 18.9258 61.1504 18.2637 61.5605C17.6074 61.9707 16.8516 62.1758 15.9961 62.1758C14.707 62.1758 13.6611 61.7275 12.8584 60.8311C12.0615 59.9346 11.6631 58.748 11.6631 57.2715V57.1572ZM13.2979 57.3506C13.2979 58.4053 13.541 59.252 14.0273 59.8906C14.5195 60.5293 15.1758 60.8486 15.9961 60.8486C16.8223 60.8486 17.4785 60.5264 17.9648 59.8818C18.4512 59.2314 18.6943 58.3232 18.6943 57.1572C18.6943 56.1143 18.4453 55.2705 17.9473 54.626C17.4551 53.9756 16.7988 53.6504 15.9785 53.6504C15.1758 53.6504 14.5283 53.9697 14.0361 54.6084C13.5439 55.2471 13.2979 56.1611 13.2979 57.3506ZM25.3213 57.9482H24.1348V62H22.5V52.4902H24.1348V56.5156H25.1982L28.3975 52.4902H30.3662L26.6045 57.0605L30.6826 62H28.6172L25.3213 57.9482ZM35.1914 59.6182L37.4062 52.4902H39.1465L35.3232 63.4678C34.7314 65.0498 33.791 65.8408 32.502 65.8408L32.1943 65.8145L31.5879 65.7002V64.3818L32.0273 64.417C32.5781 64.417 33.0059 64.3057 33.3105 64.083C33.6211 63.8604 33.876 63.4531 34.0752 62.8613L34.4355 61.8945L31.043 52.4902H32.8184L35.1914 59.6182ZM46.0811 59.8467L49.3154 52.4902H51.3457V62H49.7197V55.083L46.6436 62H45.5186L42.3809 54.9336V62H40.7549V52.4902H42.8643L46.0811 59.8467ZM57.9111 62.1758C56.6221 62.1758 55.5732 61.7539 54.7646 60.9102C53.9561 60.0605 53.5518 58.9268 53.5518 57.5088V57.21C53.5518 56.2666 53.7305 55.4258 54.0879 54.6875C54.4512 53.9434 54.9551 53.3633 55.5996 52.9473C56.25 52.5254 56.9531 52.3145 57.709 52.3145C58.9453 52.3145 59.9062 52.7217 60.5918 53.5361C61.2773 54.3506 61.6201 55.5166 61.6201 57.0342V57.7109H55.1777C55.2012 58.6484 55.4736 59.4072 55.9951 59.9873C56.5225 60.5615 57.1904 60.8486 57.999 60.8486C58.5732 60.8486 59.0596 60.7314 59.458 60.4971C59.8564 60.2627 60.2051 59.9521 60.5039 59.5654L61.4971 60.3389C60.7002 61.5635 59.5049 62.1758 57.9111 62.1758ZM57.709 53.6504C57.0527 53.6504 56.502 53.8906 56.0566 54.3711C55.6113 54.8457 55.3359 55.5137 55.2305 56.375H59.9941V56.252C59.9473 55.4258 59.7246 54.7871 59.3262 54.3359C58.9277 53.8789 58.3887 53.6504 57.709 53.6504ZM71.2793 62H69.6533V57.9395H65.2852V62H63.6504V52.4902H65.2852V56.6123H69.6533V52.4902H71.2793V62ZM80.9648 53.8086H77.7744V62H76.1484V53.8086H73.0195V52.4902H80.9648V53.8086ZM81.7471 57.1572C81.7471 56.2256 81.9287 55.3877 82.292 54.6436C82.6611 53.8994 83.1709 53.3252 83.8213 52.9209C84.4775 52.5166 85.2246 52.3145 86.0625 52.3145C87.3574 52.3145 88.4033 52.7627 89.2002 53.6592C90.0029 54.5557 90.4043 55.748 90.4043 57.2363V57.3506C90.4043 58.2764 90.2256 59.1084 89.8682 59.8467C89.5166 60.5791 89.0098 61.1504 88.3477 61.5605C87.6914 61.9707 86.9355 62.1758 86.0801 62.1758C84.791 62.1758 83.7451 61.7275 82.9424 60.8311C82.1455 59.9346 81.7471 58.748 81.7471 57.2715V57.1572ZM83.3818 57.3506C83.3818 58.4053 83.625 59.252 84.1113 59.8906C84.6035 60.5293 85.2598 60.8486 86.0801 60.8486C86.9062 60.8486 87.5625 60.5264 88.0488 59.8818C88.5352 59.2314 88.7783 58.3232 88.7783 57.1572C88.7783 56.1143 88.5293 55.2705 88.0312 54.626C87.5391 53.9756 86.8828 53.6504 86.0625 53.6504C85.2598 53.6504 84.6123 53.9697 84.1201 54.6084C83.6279 55.2471 83.3818 56.1611 83.3818 57.3506ZM92.5928 62V52.4902H96.3018C97.5674 52.4902 98.5371 52.7129 99.2109 53.1582C99.8906 53.5977 100.23 54.2451 100.23 55.1006C100.23 55.54 100.099 55.9385 99.835 56.2959C99.5713 56.6475 99.1816 56.917 98.666 57.1045C99.2402 57.2393 99.7002 57.5029 100.046 57.8955C100.397 58.2881 100.573 58.7568 100.573 59.3018C100.573 60.1748 100.251 60.8428 99.6064 61.3057C98.9678 61.7686 98.0625 62 96.8906 62H92.5928ZM94.2188 57.8252V60.6904H96.9082C97.5879 60.6904 98.0947 60.5645 98.4287 60.3125C98.7686 60.0605 98.9385 59.7061 98.9385 59.249C98.9385 58.2998 98.2412 57.8252 96.8467 57.8252H94.2188ZM94.2188 56.5244H96.3193C97.8428 56.5244 98.6045 56.0791 98.6045 55.1885C98.6045 54.2979 97.8838 53.8379 96.4424 53.8086H94.2188V56.5244ZM114.97 62H113.344V53.835H108.967V62H107.332V52.4902H114.97V62ZM117.149 57.1572C117.149 56.2256 117.331 55.3877 117.694 54.6436C118.063 53.8994 118.573 53.3252 119.224 52.9209C119.88 52.5166 120.627 52.3145 121.465 52.3145C122.76 52.3145 123.806 52.7627 124.603 53.6592C125.405 54.5557 125.807 55.748 125.807 57.2363V57.3506C125.807 58.2764 125.628 59.1084 125.271 59.8467C124.919 60.5791 124.412 61.1504 123.75 61.5605C123.094 61.9707 122.338 62.1758 121.482 62.1758C120.193 62.1758 119.147 61.7275 118.345 60.8311C117.548 59.9346 117.149 58.748 117.149 57.2715V57.1572ZM118.784 57.3506C118.784 58.4053 119.027 59.252 119.514 59.8906C120.006 60.5293 120.662 60.8486 121.482 60.8486C122.309 60.8486 122.965 60.5264 123.451 59.8818C123.938 59.2314 124.181 58.3232 124.181 57.1572C124.181 56.1143 123.932 55.2705 123.434 54.626C122.941 53.9756 122.285 53.6504 121.465 53.6504C120.662 53.6504 120.015 53.9697 119.522 54.6084C119.03 55.2471 118.784 56.1611 118.784 57.3506ZM136.96 56.6299L139.904 49.2031H141.864L137.338 59.8643C137.033 60.5439 136.749 61.0273 136.485 61.3145C136.222 61.5957 135.911 61.8125 135.554 61.9648C135.202 62.1113 134.76 62.1846 134.227 62.1846C133.764 62.1846 133.468 62.1582 133.339 62.1055L133.392 60.7695L134.191 60.8047C134.807 60.8047 135.264 60.5088 135.562 59.917L135.782 59.46L136.116 58.6777L131.757 49.2031H133.646L136.96 56.6299ZM154.679 65.1377H153V62H143.815V65.1465H142.128L142.119 60.6201H143.165C143.716 59.999 144.152 59.167 144.475 58.124C144.803 57.0752 145.008 55.9268 145.09 54.6787L145.371 49.2031H153.026V60.6201H154.696L154.679 65.1377ZM145.09 60.6201H151.33V50.5918H146.997L146.812 54.3535C146.736 55.8242 146.54 57.0781 146.224 58.1152C145.913 59.1523 145.535 59.9873 145.09 60.6201ZM166.333 56.0146C166.333 57.2686 166.122 58.3643 165.7 59.3018C165.278 60.2334 164.681 60.9453 163.907 61.4375C163.134 61.9297 162.231 62.1758 161.2 62.1758C160.192 62.1758 159.299 61.9297 158.52 61.4375C157.74 60.9395 157.134 60.2334 156.7 59.3193C156.272 58.3994 156.053 57.3359 156.041 56.1289V55.2061C156.041 53.9756 156.255 52.8887 156.683 51.9453C157.11 51.002 157.714 50.2812 158.493 49.7832C159.278 49.2793 160.175 49.0273 161.183 49.0273C162.208 49.0273 163.11 49.2764 163.89 49.7744C164.675 50.2666 165.278 50.9844 165.7 51.9277C166.122 52.8652 166.333 53.958 166.333 55.2061V56.0146ZM164.654 55.1885C164.654 53.6709 164.35 52.5078 163.74 51.6992C163.131 50.8848 162.278 50.4775 161.183 50.4775C160.116 50.4775 159.275 50.8848 158.66 51.6992C158.051 52.5078 157.737 53.6328 157.72 55.0742V56.0146C157.72 57.4854 158.027 58.6426 158.643 59.4863C159.264 60.3242 160.116 60.7432 161.2 60.7432C162.29 60.7432 163.134 60.3477 163.731 59.5566C164.329 58.7598 164.637 57.6201 164.654 56.1377V55.1885Z" fill="#3D4B66"/>
</svg>
