<svg width="280" height="300" viewBox="0 0 280 300" fill="none" xmlns="http://www.w3.org/2000/svg">
<rect x="0.5" y="0.5" width="279" height="299" rx="3.5" fill="white"/>
<g clip-path="url(#clip0)">
<path d="M125.303 87.3743C127.102 83.0349 125.042 78.0591 120.703 76.2605C116.363 74.4618 111.388 76.5214 109.589 80.8607C107.79 85.2001 109.85 90.1759 114.189 91.9745C118.529 93.7732 123.504 91.7136 125.303 87.3743Z" fill="#CFD7FF"/>
<path d="M117.178 86.4624C116.915 86.4624 116.65 86.396 116.409 86.2594L114.945 85.4305C114.194 85.0054 113.931 84.0519 114.356 83.301C114.781 82.5502 115.734 82.286 116.485 82.7115L116.915 82.9546L118.184 81.685C118.794 81.0752 119.784 81.0752 120.394 81.685C121.004 82.2952 121.004 83.2846 120.394 83.8949L118.284 86.0049C117.983 86.3055 117.583 86.4624 117.178 86.4624Z" fill="#1939DE"/>
<path d="M117.436 118.829C122.133 118.829 125.94 115.022 125.94 110.325C125.94 105.629 122.133 101.822 117.436 101.822C112.74 101.822 108.933 105.629 108.933 110.325C108.933 115.022 112.74 118.829 117.436 118.829Z" fill="#CFD7FF"/>
<path d="M117.178 112.678C116.915 112.678 116.65 112.612 116.409 112.475L114.945 111.646C114.194 111.221 113.931 110.268 114.356 109.517C114.781 108.766 115.734 108.502 116.485 108.927L116.915 109.171L118.184 107.901C118.794 107.291 119.784 107.291 120.394 107.901C121.004 108.511 121.004 109.5 120.394 110.111L118.284 112.221C117.983 112.521 117.583 112.678 117.178 112.678Z" fill="#1939DE"/>
<path d="M176.252 55.125H167.219C165.152 55.125 163.471 56.8066 163.471 58.8733V115.993C163.471 115.993 163.471 116.525 163.7 116.807L170.391 128.108C170.672 128.583 171.183 128.875 171.736 128.875C172.288 128.875 172.799 128.583 173.08 128.108L179.771 116.807C179.964 116.511 180 115.994 180 115.993V58.8733C180 56.8066 178.318 55.125 176.252 55.125ZM166.596 114.43V68.0938H170.173V114.43H166.596ZM173.298 68.0938H176.875V114.43H173.298V68.0938ZM166.596 58.8733C166.596 58.5297 166.876 58.25 167.219 58.25H176.252C176.596 58.25 176.875 58.5297 176.875 58.8733V64.9688H166.596V58.8733ZM171.735 124.246L167.774 117.555H175.696L171.735 124.246Z" fill="#00B956"/>
<path d="M150.864 84.8744H131.711C130.848 84.8744 130.148 85.5739 130.148 86.4369C130.148 87.2997 130.848 87.9994 131.711 87.9994H150.864C151.727 87.9994 152.427 87.2997 152.427 86.4369C152.427 85.5741 151.727 84.8744 150.864 84.8744Z" fill="#CFD7FF"/>
<path d="M131.711 78.6437C130.848 78.6437 130.148 79.3434 130.148 80.2062C130.148 81.0691 130.848 81.7687 131.711 81.7687H144.162C145.025 81.7687 145.724 81.0691 145.724 80.2062C145.724 79.3434 145.025 78.6437 144.162 78.6437H131.711Z" fill="#CFD7FF"/>
<path d="M150.864 111.09H131.711C130.848 111.09 130.148 111.79 130.148 112.653C130.148 113.516 130.848 114.215 131.711 114.215H150.864C151.727 114.215 152.427 113.516 152.427 112.653C152.427 111.79 151.727 111.09 150.864 111.09Z" fill="#CFD7FF"/>
<path d="M131.711 107.985H144.162C145.025 107.985 145.724 107.285 145.724 106.422C145.724 105.559 145.025 104.86 144.162 104.86H131.711C130.848 104.86 130.148 105.559 130.148 106.422C130.148 107.285 130.848 107.985 131.711 107.985Z" fill="#CFD7FF"/>
<path d="M155.629 55.2031H104.168C101.87 55.2031 100 57.0728 100 59.3711V124.629C100 126.927 101.87 128.797 104.168 128.797H155.629C157.927 128.797 159.797 126.927 159.797 124.629V59.3711C159.797 57.0728 157.927 55.2031 155.629 55.2031ZM156.672 124.629C156.672 125.204 156.204 125.672 155.629 125.672H104.168C103.593 125.672 103.125 125.204 103.125 124.629V59.3711C103.125 58.7959 103.593 58.3281 104.168 58.3281H155.629C156.204 58.3281 156.672 58.7959 156.672 59.3711V124.629Z" fill="#1939DE"/>
<path d="M147.367 67.4139C147.367 66.5511 146.668 65.8514 145.805 65.8514H113.992C113.129 65.8514 112.429 66.5511 112.429 67.4139C112.429 68.2768 113.129 68.9764 113.992 68.9764H145.805C146.668 68.9764 147.367 68.2769 147.367 67.4139Z" fill="#CFD7FF"/>
</g>
<path d="M56.0293 182.592H49.8594V194H48.1631V181.203H56.0293V182.592ZM61.8652 194C61.7715 193.812 61.6953 193.479 61.6367 192.998C60.8809 193.783 59.9785 194.176 58.9297 194.176C57.9922 194.176 57.2217 193.912 56.6182 193.385C56.0205 192.852 55.7217 192.178 55.7217 191.363C55.7217 190.373 56.0967 189.605 56.8467 189.061C57.6025 188.51 58.6631 188.234 60.0283 188.234H61.6104V187.487C61.6104 186.919 61.4404 186.468 61.1006 186.134C60.7607 185.794 60.2598 185.624 59.5977 185.624C59.0176 185.624 58.5312 185.771 58.1387 186.063C57.7461 186.356 57.5498 186.711 57.5498 187.127H55.915C55.915 186.652 56.082 186.195 56.416 185.756C56.7559 185.311 57.2129 184.959 57.7871 184.701C58.3672 184.443 59.0029 184.314 59.6943 184.314C60.79 184.314 61.6484 184.59 62.2695 185.141C62.8906 185.686 63.2129 186.438 63.2363 187.399V191.776C63.2363 192.649 63.3477 193.344 63.5703 193.859V194H61.8652ZM59.167 192.761C59.6768 192.761 60.1602 192.629 60.6172 192.365C61.0742 192.102 61.4053 191.759 61.6104 191.337V189.386H60.3359C58.3438 189.386 57.3477 189.969 57.3477 191.135C57.3477 191.645 57.5176 192.043 57.8574 192.33C58.1973 192.617 58.6338 192.761 59.167 192.761ZM73.8184 189.351C73.8184 190.798 73.4873 191.964 72.8252 192.849C72.1631 193.733 71.2666 194.176 70.1357 194.176C68.9814 194.176 68.0732 193.81 67.4111 193.077V197.656H65.7852V184.49H67.2705L67.3496 185.545C68.0117 184.725 68.9316 184.314 70.1094 184.314C71.252 184.314 72.1543 184.745 72.8164 185.606C73.4844 186.468 73.8184 187.666 73.8184 189.201V189.351ZM72.1924 189.166C72.1924 188.094 71.9639 187.247 71.5068 186.626C71.0498 186.005 70.4229 185.694 69.626 185.694C68.6416 185.694 67.9033 186.131 67.4111 187.004V191.548C67.8975 192.415 68.6416 192.849 69.6436 192.849C70.4229 192.849 71.041 192.541 71.498 191.926C71.9609 191.305 72.1924 190.385 72.1924 189.166ZM81.7637 194C81.6699 193.812 81.5938 193.479 81.5352 192.998C80.7793 193.783 79.877 194.176 78.8281 194.176C77.8906 194.176 77.1201 193.912 76.5166 193.385C75.9189 192.852 75.6201 192.178 75.6201 191.363C75.6201 190.373 75.9951 189.605 76.7451 189.061C77.501 188.51 78.5615 188.234 79.9268 188.234H81.5088V187.487C81.5088 186.919 81.3389 186.468 80.999 186.134C80.6592 185.794 80.1582 185.624 79.4961 185.624C78.916 185.624 78.4297 185.771 78.0371 186.063C77.6445 186.356 77.4482 186.711 77.4482 187.127H75.8135C75.8135 186.652 75.9805 186.195 76.3145 185.756C76.6543 185.311 77.1113 184.959 77.6855 184.701C78.2656 184.443 78.9014 184.314 79.5928 184.314C80.6885 184.314 81.5469 184.59 82.168 185.141C82.7891 185.686 83.1113 186.438 83.1348 187.399V191.776C83.1348 192.649 83.2461 193.344 83.4688 193.859V194H81.7637ZM79.0654 192.761C79.5752 192.761 80.0586 192.629 80.5156 192.365C80.9727 192.102 81.3037 191.759 81.5088 191.337V189.386H80.2344C78.2422 189.386 77.2461 189.969 77.2461 191.135C77.2461 191.645 77.416 192.043 77.7559 192.33C78.0957 192.617 78.5322 192.761 79.0654 192.761ZM93.4531 194H91.8271V189.939H87.459V194H85.8242V184.49H87.459V188.612H91.8271V184.49H93.4531V194ZM103.139 185.809H99.9482V194H98.3223V185.809H95.1934V184.49H103.139V185.809ZM110.873 184.49H112.499V194H110.873V187.065L106.487 194H104.861V184.49H106.487V191.434L110.873 184.49ZM123.143 189.351C123.143 190.798 122.812 191.964 122.149 192.849C121.487 193.733 120.591 194.176 119.46 194.176C118.306 194.176 117.397 193.81 116.735 193.077V197.656H115.109V184.49H116.595L116.674 185.545C117.336 184.725 118.256 184.314 119.434 184.314C120.576 184.314 121.479 184.745 122.141 185.606C122.809 186.468 123.143 187.666 123.143 189.201V189.351ZM121.517 189.166C121.517 188.094 121.288 187.247 120.831 186.626C120.374 186.005 119.747 185.694 118.95 185.694C117.966 185.694 117.228 186.131 116.735 187.004V191.548C117.222 192.415 117.966 192.849 118.968 192.849C119.747 192.849 120.365 192.541 120.822 191.926C121.285 191.305 121.517 190.385 121.517 189.166ZM124.786 189.157C124.786 188.226 124.968 187.388 125.331 186.644C125.7 185.899 126.21 185.325 126.86 184.921C127.517 184.517 128.264 184.314 129.102 184.314C130.396 184.314 131.442 184.763 132.239 185.659C133.042 186.556 133.443 187.748 133.443 189.236V189.351C133.443 190.276 133.265 191.108 132.907 191.847C132.556 192.579 132.049 193.15 131.387 193.561C130.73 193.971 129.975 194.176 129.119 194.176C127.83 194.176 126.784 193.728 125.981 192.831C125.185 191.935 124.786 190.748 124.786 189.271V189.157ZM126.421 189.351C126.421 190.405 126.664 191.252 127.15 191.891C127.643 192.529 128.299 192.849 129.119 192.849C129.945 192.849 130.602 192.526 131.088 191.882C131.574 191.231 131.817 190.323 131.817 189.157C131.817 188.114 131.568 187.271 131.07 186.626C130.578 185.976 129.922 185.65 129.102 185.65C128.299 185.65 127.651 185.97 127.159 186.608C126.667 187.247 126.421 188.161 126.421 189.351ZM135.632 194V184.49H139.341C140.606 184.49 141.576 184.713 142.25 185.158C142.93 185.598 143.27 186.245 143.27 187.101C143.27 187.54 143.138 187.938 142.874 188.296C142.61 188.647 142.221 188.917 141.705 189.104C142.279 189.239 142.739 189.503 143.085 189.896C143.437 190.288 143.612 190.757 143.612 191.302C143.612 192.175 143.29 192.843 142.646 193.306C142.007 193.769 141.102 194 139.93 194H135.632ZM137.258 189.825V192.69H139.947C140.627 192.69 141.134 192.564 141.468 192.312C141.808 192.061 141.978 191.706 141.978 191.249C141.978 190.3 141.28 189.825 139.886 189.825H137.258ZM137.258 188.524H139.358C140.882 188.524 141.644 188.079 141.644 187.188C141.644 186.298 140.923 185.838 139.481 185.809H137.258V188.524ZM151.637 194C151.543 193.812 151.467 193.479 151.408 192.998C150.652 193.783 149.75 194.176 148.701 194.176C147.764 194.176 146.993 193.912 146.39 193.385C145.792 192.852 145.493 192.178 145.493 191.363C145.493 190.373 145.868 189.605 146.618 189.061C147.374 188.51 148.435 188.234 149.8 188.234H151.382V187.487C151.382 186.919 151.212 186.468 150.872 186.134C150.532 185.794 150.031 185.624 149.369 185.624C148.789 185.624 148.303 185.771 147.91 186.063C147.518 186.356 147.321 186.711 147.321 187.127H145.687C145.687 186.652 145.854 186.195 146.188 185.756C146.527 185.311 146.984 184.959 147.559 184.701C148.139 184.443 148.774 184.314 149.466 184.314C150.562 184.314 151.42 184.59 152.041 185.141C152.662 185.686 152.984 186.438 153.008 187.399V191.776C153.008 192.649 153.119 193.344 153.342 193.859V194H151.637ZM148.938 192.761C149.448 192.761 149.932 192.629 150.389 192.365C150.846 192.102 151.177 191.759 151.382 191.337V189.386H150.107C148.115 189.386 147.119 189.969 147.119 191.135C147.119 191.645 147.289 192.043 147.629 192.33C147.969 192.617 148.405 192.761 148.938 192.761ZM163.326 194H161.7V189.939H157.332V194H155.697V184.49H157.332V188.612H161.7V184.49H163.326V194ZM173.715 194H172.089V189.939H167.721V194H166.086V184.49H167.721V188.612H172.089V184.49H173.715V194ZM175.903 189.157C175.903 188.226 176.085 187.388 176.448 186.644C176.817 185.899 177.327 185.325 177.978 184.921C178.634 184.517 179.381 184.314 180.219 184.314C181.514 184.314 182.56 184.763 183.356 185.659C184.159 186.556 184.561 187.748 184.561 189.236V189.351C184.561 190.276 184.382 191.108 184.024 191.847C183.673 192.579 183.166 193.15 182.504 193.561C181.848 193.971 181.092 194.176 180.236 194.176C178.947 194.176 177.901 193.728 177.099 192.831C176.302 191.935 175.903 190.748 175.903 189.271V189.157ZM177.538 189.351C177.538 190.405 177.781 191.252 178.268 191.891C178.76 192.529 179.416 192.849 180.236 192.849C181.062 192.849 181.719 192.526 182.205 191.882C182.691 191.231 182.935 190.323 182.935 189.157C182.935 188.114 182.686 187.271 182.188 186.626C181.695 185.976 181.039 185.65 180.219 185.65C179.416 185.65 178.769 185.97 178.276 186.608C177.784 187.247 177.538 188.161 177.538 189.351ZM190.985 192.673L191.548 191.979C192.181 191.158 192.541 189.928 192.629 188.287L192.778 184.49H198.904V192.673H200.126V196.795H198.5V194H191.864V196.795H190.238L190.247 192.673H190.985ZM192.91 192.673H197.278V185.993H194.352L194.255 188.261C194.155 190.153 193.707 191.624 192.91 192.673ZM207.799 194C207.705 193.812 207.629 193.479 207.57 192.998C206.814 193.783 205.912 194.176 204.863 194.176C203.926 194.176 203.155 193.912 202.552 193.385C201.954 192.852 201.655 192.178 201.655 191.363C201.655 190.373 202.03 189.605 202.78 189.061C203.536 188.51 204.597 188.234 205.962 188.234H207.544V187.487C207.544 186.919 207.374 186.468 207.034 186.134C206.694 185.794 206.193 185.624 205.531 185.624C204.951 185.624 204.465 185.771 204.072 186.063C203.68 186.356 203.483 186.711 203.483 187.127H201.849C201.849 186.652 202.016 186.195 202.35 185.756C202.689 185.311 203.146 184.959 203.721 184.701C204.301 184.443 204.937 184.314 205.628 184.314C206.724 184.314 207.582 184.59 208.203 185.141C208.824 185.686 209.146 186.438 209.17 187.399V191.776C209.17 192.649 209.281 193.344 209.504 193.859V194H207.799ZM205.101 192.761C205.61 192.761 206.094 192.629 206.551 192.365C207.008 192.102 207.339 191.759 207.544 191.337V189.386H206.27C204.277 189.386 203.281 189.969 203.281 191.135C203.281 191.645 203.451 192.043 203.791 192.33C204.131 192.617 204.567 192.761 205.101 192.761ZM215.665 194.176C214.376 194.176 213.327 193.754 212.519 192.91C211.71 192.061 211.306 190.927 211.306 189.509V189.21C211.306 188.267 211.484 187.426 211.842 186.688C212.205 185.943 212.709 185.363 213.354 184.947C214.004 184.525 214.707 184.314 215.463 184.314C216.699 184.314 217.66 184.722 218.346 185.536C219.031 186.351 219.374 187.517 219.374 189.034V189.711H212.932C212.955 190.648 213.228 191.407 213.749 191.987C214.276 192.562 214.944 192.849 215.753 192.849C216.327 192.849 216.813 192.731 217.212 192.497C217.61 192.263 217.959 191.952 218.258 191.565L219.251 192.339C218.454 193.563 217.259 194.176 215.665 194.176ZM215.463 185.65C214.807 185.65 214.256 185.891 213.811 186.371C213.365 186.846 213.09 187.514 212.984 188.375H217.748V188.252C217.701 187.426 217.479 186.787 217.08 186.336C216.682 185.879 216.143 185.65 215.463 185.65ZM226.739 191.847L229.974 184.49H232.004V194H230.378V187.083L227.302 194H226.177L223.039 186.934V194H221.413V184.49H223.522L226.739 191.847ZM65.5566 216.849C66.1367 216.849 66.6436 216.673 67.0771 216.321C67.5107 215.97 67.751 215.53 67.7979 215.003H69.3359C69.3066 215.548 69.1191 216.066 68.7734 216.559C68.4277 217.051 67.9648 217.443 67.3848 217.736C66.8105 218.029 66.2012 218.176 65.5566 218.176C64.2617 218.176 63.2305 217.745 62.4629 216.884C61.7012 216.017 61.3203 214.833 61.3203 213.333V213.061C61.3203 212.135 61.4902 211.312 61.8301 210.591C62.1699 209.87 62.6562 209.311 63.2891 208.912C63.9277 208.514 64.6807 208.314 65.5479 208.314C66.6143 208.314 67.499 208.634 68.2021 209.272C68.9111 209.911 69.2891 210.74 69.3359 211.76H67.7979C67.751 211.145 67.5166 210.641 67.0947 210.248C66.6787 209.85 66.1631 209.65 65.5479 209.65C64.7217 209.65 64.0801 209.949 63.623 210.547C63.1719 211.139 62.9463 211.997 62.9463 213.122V213.43C62.9463 214.525 63.1719 215.369 63.623 215.961C64.0742 216.553 64.7188 216.849 65.5566 216.849ZM78.9424 218H77.3164V209.835H72.9395V218H71.3047V208.49H78.9424V218ZM89.5859 213.351C89.5859 214.798 89.2549 215.964 88.5928 216.849C87.9307 217.733 87.0342 218.176 85.9033 218.176C84.749 218.176 83.8408 217.81 83.1787 217.077V221.656H81.5527V208.49H83.0381L83.1172 209.545C83.7793 208.725 84.6992 208.314 85.877 208.314C87.0195 208.314 87.9219 208.745 88.584 209.606C89.252 210.468 89.5859 211.666 89.5859 213.201V213.351ZM87.96 213.166C87.96 212.094 87.7314 211.247 87.2744 210.626C86.8174 210.005 86.1904 209.694 85.3936 209.694C84.4092 209.694 83.6709 210.131 83.1787 211.004V215.548C83.665 216.415 84.4092 216.849 85.4111 216.849C86.1904 216.849 86.8086 216.541 87.2656 215.926C87.7285 215.305 87.96 214.385 87.96 213.166ZM97.5312 218C97.4375 217.812 97.3613 217.479 97.3027 216.998C96.5469 217.783 95.6445 218.176 94.5957 218.176C93.6582 218.176 92.8877 217.912 92.2842 217.385C91.6865 216.852 91.3877 216.178 91.3877 215.363C91.3877 214.373 91.7627 213.605 92.5127 213.061C93.2686 212.51 94.3291 212.234 95.6943 212.234H97.2764V211.487C97.2764 210.919 97.1064 210.468 96.7666 210.134C96.4268 209.794 95.9258 209.624 95.2637 209.624C94.6836 209.624 94.1973 209.771 93.8047 210.063C93.4121 210.356 93.2158 210.711 93.2158 211.127H91.5811C91.5811 210.652 91.748 210.195 92.082 209.756C92.4219 209.311 92.8789 208.959 93.4531 208.701C94.0332 208.443 94.6689 208.314 95.3604 208.314C96.4561 208.314 97.3145 208.59 97.9355 209.141C98.5566 209.686 98.8789 210.438 98.9023 211.399V215.776C98.9023 216.649 99.0137 217.344 99.2363 217.859V218H97.5312ZM94.833 216.761C95.3428 216.761 95.8262 216.629 96.2832 216.365C96.7402 216.102 97.0713 215.759 97.2764 215.337V213.386H96.002C94.0098 213.386 93.0137 213.969 93.0137 215.135C93.0137 215.645 93.1836 216.043 93.5234 216.33C93.8633 216.617 94.2998 216.761 94.833 216.761ZM101.601 218V208.49H105.31C106.575 208.49 107.545 208.713 108.219 209.158C108.898 209.598 109.238 210.245 109.238 211.101C109.238 211.54 109.106 211.938 108.843 212.296C108.579 212.647 108.189 212.917 107.674 213.104C108.248 213.239 108.708 213.503 109.054 213.896C109.405 214.288 109.581 214.757 109.581 215.302C109.581 216.175 109.259 216.843 108.614 217.306C107.976 217.769 107.07 218 105.898 218H101.601ZM103.227 213.825V216.69H105.916C106.596 216.69 107.103 216.564 107.437 216.312C107.776 216.061 107.946 215.706 107.946 215.249C107.946 214.3 107.249 213.825 105.854 213.825H103.227ZM103.227 212.524H105.327C106.851 212.524 107.612 212.079 107.612 211.188C107.612 210.298 106.892 209.838 105.45 209.809H103.227V212.524ZM114.696 213.948H113.51V218H111.875V208.49H113.51V212.516H114.573L117.772 208.49H119.741L115.979 213.061L120.058 218H117.992L114.696 213.948ZM124.566 215.618L126.781 208.49H128.521L124.698 219.468C124.106 221.05 123.166 221.841 121.877 221.841L121.569 221.814L120.963 221.7V220.382L121.402 220.417C121.953 220.417 122.381 220.306 122.686 220.083C122.996 219.86 123.251 219.453 123.45 218.861L123.811 217.895L120.418 208.49H122.193L124.566 215.618ZM134.015 213.157C134.015 212.226 134.196 211.388 134.56 210.644C134.929 209.899 135.438 209.325 136.089 208.921C136.745 208.517 137.492 208.314 138.33 208.314C139.625 208.314 140.671 208.763 141.468 209.659C142.271 210.556 142.672 211.748 142.672 213.236V213.351C142.672 214.276 142.493 215.108 142.136 215.847C141.784 216.579 141.277 217.15 140.615 217.561C139.959 217.971 139.203 218.176 138.348 218.176C137.059 218.176 136.013 217.728 135.21 216.831C134.413 215.935 134.015 214.748 134.015 213.271V213.157ZM135.649 213.351C135.649 214.405 135.893 215.252 136.379 215.891C136.871 216.529 137.527 216.849 138.348 216.849C139.174 216.849 139.83 216.526 140.316 215.882C140.803 215.231 141.046 214.323 141.046 213.157C141.046 212.114 140.797 211.271 140.299 210.626C139.807 209.976 139.15 209.65 138.33 209.65C137.527 209.65 136.88 209.97 136.388 210.608C135.896 211.247 135.649 212.161 135.649 213.351ZM156.945 218H155.319V213.939H150.951V218H149.316V208.49H150.951V212.612H155.319V208.49H156.945V218ZM165.436 218C165.342 217.812 165.266 217.479 165.207 216.998C164.451 217.783 163.549 218.176 162.5 218.176C161.562 218.176 160.792 217.912 160.188 217.385C159.591 216.852 159.292 216.178 159.292 215.363C159.292 214.373 159.667 213.605 160.417 213.061C161.173 212.51 162.233 212.234 163.599 212.234H165.181V211.487C165.181 210.919 165.011 210.468 164.671 210.134C164.331 209.794 163.83 209.624 163.168 209.624C162.588 209.624 162.102 209.771 161.709 210.063C161.316 210.356 161.12 210.711 161.12 211.127H159.485C159.485 210.652 159.652 210.195 159.986 209.756C160.326 209.311 160.783 208.959 161.357 208.701C161.938 208.443 162.573 208.314 163.265 208.314C164.36 208.314 165.219 208.59 165.84 209.141C166.461 209.686 166.783 210.438 166.807 211.399V215.776C166.807 216.649 166.918 217.344 167.141 217.859V218H165.436ZM162.737 216.761C163.247 216.761 163.73 216.629 164.188 216.365C164.645 216.102 164.976 215.759 165.181 215.337V213.386H163.906C161.914 213.386 160.918 213.969 160.918 215.135C160.918 215.645 161.088 216.043 161.428 216.33C161.768 216.617 162.204 216.761 162.737 216.761ZM177.151 208.49V218H175.517V209.835H172.282L172.089 213.395C171.983 215.029 171.708 216.198 171.263 216.901C170.823 217.604 170.123 217.971 169.162 218H168.512V216.567L168.978 216.532C169.505 216.474 169.883 216.169 170.111 215.618C170.34 215.067 170.486 214.048 170.551 212.56L170.727 208.49H177.151ZM185.914 208.49H187.54V218H185.914V211.065L181.528 218H179.902V208.49H181.528V215.434L185.914 208.49ZM197.331 218H195.696V214.555C194.981 214.742 194.249 214.836 193.499 214.836C192.31 214.836 191.401 214.531 190.774 213.922C190.153 213.312 189.837 212.445 189.825 211.32V208.481H191.451V211.373C191.48 212.791 192.163 213.5 193.499 213.5C194.249 213.5 194.981 213.406 195.696 213.219V208.49H197.331V218ZM206.094 208.49H207.72V218H206.094V211.065L201.708 218H200.082V208.49H201.708V215.434L206.094 208.49ZM216.482 208.49H218.108V218H216.482V211.065L212.097 218H210.471V208.49H212.097V215.434L216.482 208.49ZM62.041 240.849C62.6211 240.849 63.1279 240.673 63.5615 240.321C63.9951 239.97 64.2354 239.53 64.2822 239.003H65.8203C65.791 239.548 65.6035 240.066 65.2578 240.559C64.9121 241.051 64.4492 241.443 63.8691 241.736C63.2949 242.029 62.6855 242.176 62.041 242.176C60.7461 242.176 59.7148 241.745 58.9473 240.884C58.1855 240.017 57.8047 238.833 57.8047 237.333V237.061C57.8047 236.135 57.9746 235.312 58.3145 234.591C58.6543 233.87 59.1406 233.311 59.7734 232.912C60.4121 232.514 61.165 232.314 62.0322 232.314C63.0986 232.314 63.9834 232.634 64.6865 233.272C65.3955 233.911 65.7734 234.74 65.8203 235.76H64.2822C64.2354 235.145 64.001 234.641 63.5791 234.248C63.1631 233.85 62.6475 233.65 62.0322 233.65C61.2061 233.65 60.5645 233.949 60.1074 234.547C59.6562 235.139 59.4307 235.997 59.4307 237.122V237.43C59.4307 238.525 59.6562 239.369 60.1074 239.961C60.5586 240.553 61.2031 240.849 62.041 240.849ZM67.2178 237.157C67.2178 236.226 67.3994 235.388 67.7627 234.644C68.1318 233.899 68.6416 233.325 69.292 232.921C69.9482 232.517 70.6953 232.314 71.5332 232.314C72.8281 232.314 73.874 232.763 74.6709 233.659C75.4736 234.556 75.875 235.748 75.875 237.236V237.351C75.875 238.276 75.6963 239.108 75.3389 239.847C74.9873 240.579 74.4805 241.15 73.8184 241.561C73.1621 241.971 72.4062 242.176 71.5508 242.176C70.2617 242.176 69.2158 241.728 68.4131 240.831C67.6162 239.935 67.2178 238.748 67.2178 237.271V237.157ZM68.8525 237.351C68.8525 238.405 69.0957 239.252 69.582 239.891C70.0742 240.529 70.7305 240.849 71.5508 240.849C72.377 240.849 73.0332 240.526 73.5195 239.882C74.0059 239.231 74.249 238.323 74.249 237.157C74.249 236.114 74 235.271 73.502 234.626C73.0098 233.976 72.3535 233.65 71.5332 233.65C70.7305 233.65 70.083 233.97 69.5908 234.608C69.0986 235.247 68.8525 236.161 68.8525 237.351ZM78.0547 232.49H79.6895V240.673H84.0664V232.49H85.6924V240.673H86.8262L86.668 244.821H85.209V242H78.0547V232.49ZM94.7363 232.49H96.3623V242H94.7363V235.065L90.3506 242H88.7246V232.49H90.3506V239.434L94.7363 232.49ZM104.844 242C104.75 241.812 104.674 241.479 104.615 240.998C103.859 241.783 102.957 242.176 101.908 242.176C100.971 242.176 100.2 241.912 99.5967 241.385C98.999 240.852 98.7002 240.178 98.7002 239.363C98.7002 238.373 99.0752 237.605 99.8252 237.061C100.581 236.51 101.642 236.234 103.007 236.234H104.589V235.487C104.589 234.919 104.419 234.468 104.079 234.134C103.739 233.794 103.238 233.624 102.576 233.624C101.996 233.624 101.51 233.771 101.117 234.063C100.725 234.356 100.528 234.711 100.528 235.127H98.8936C98.8936 234.652 99.0605 234.195 99.3945 233.756C99.7344 233.311 100.191 232.959 100.766 232.701C101.346 232.443 101.981 232.314 102.673 232.314C103.769 232.314 104.627 232.59 105.248 233.141C105.869 233.686 106.191 234.438 106.215 235.399V239.776C106.215 240.649 106.326 241.344 106.549 241.859V242H104.844ZM102.146 240.761C102.655 240.761 103.139 240.629 103.596 240.365C104.053 240.102 104.384 239.759 104.589 239.337V237.386H103.314C101.322 237.386 100.326 237.969 100.326 239.135C100.326 239.645 100.496 240.043 100.836 240.33C101.176 240.617 101.612 240.761 102.146 240.761ZM116.56 232.49V242H114.925V233.835H111.69L111.497 237.395C111.392 239.029 111.116 240.198 110.671 240.901C110.231 241.604 109.531 241.971 108.57 242H107.92V240.567L108.386 240.532C108.913 240.474 109.291 240.169 109.52 239.618C109.748 239.067 109.895 238.048 109.959 236.56L110.135 232.49H116.56ZM120.945 235.769H123.415C124.493 235.78 125.346 236.062 125.973 236.612C126.6 237.163 126.913 237.91 126.913 238.854C126.913 239.803 126.591 240.564 125.946 241.139C125.302 241.713 124.435 242 123.345 242H119.319V232.49H120.945V235.769ZM120.945 237.096V240.673H123.362C123.972 240.673 124.443 240.518 124.777 240.207C125.111 239.891 125.278 239.46 125.278 238.915C125.278 238.388 125.114 237.957 124.786 237.623C124.464 237.283 124.01 237.107 123.424 237.096H120.945ZM136.713 242H135.087V237.939H130.719V242H129.084V232.49H130.719V236.612H135.087V232.49H136.713V242ZM141.107 235.769H143.577C144.655 235.78 145.508 236.062 146.135 236.612C146.762 237.163 147.075 237.91 147.075 238.854C147.075 239.803 146.753 240.564 146.108 241.139C145.464 241.713 144.597 242 143.507 242H139.481V232.49H141.107V235.769ZM150.468 242H148.833V232.49H150.468V242ZM141.107 237.096V240.673H143.524C144.134 240.673 144.605 240.518 144.939 240.207C145.273 239.891 145.44 239.46 145.44 238.915C145.44 238.388 145.276 237.957 144.948 237.623C144.626 237.283 144.172 237.107 143.586 237.096H141.107ZM156.497 235.962L158.606 232.49H160.505L157.394 237.192L160.602 242H158.721L156.523 238.44L154.326 242H152.437L155.645 237.192L152.533 232.49H154.414L156.497 235.962ZM170.516 240.849C171.096 240.849 171.603 240.673 172.036 240.321C172.47 239.97 172.71 239.53 172.757 239.003H174.295C174.266 239.548 174.078 240.066 173.732 240.559C173.387 241.051 172.924 241.443 172.344 241.736C171.77 242.029 171.16 242.176 170.516 242.176C169.221 242.176 168.189 241.745 167.422 240.884C166.66 240.017 166.279 238.833 166.279 237.333V237.061C166.279 236.135 166.449 235.312 166.789 234.591C167.129 233.87 167.615 233.311 168.248 232.912C168.887 232.514 169.64 232.314 170.507 232.314C171.573 232.314 172.458 232.634 173.161 233.272C173.87 233.911 174.248 234.74 174.295 235.76H172.757C172.71 235.145 172.476 234.641 172.054 234.248C171.638 233.85 171.122 233.65 170.507 233.65C169.681 233.65 169.039 233.949 168.582 234.547C168.131 235.139 167.905 235.997 167.905 237.122V237.43C167.905 238.525 168.131 239.369 168.582 239.961C169.033 240.553 169.678 240.849 170.516 240.849ZM176.272 242V232.49H179.981C181.247 232.49 182.217 232.713 182.891 233.158C183.57 233.598 183.91 234.245 183.91 235.101C183.91 235.54 183.778 235.938 183.515 236.296C183.251 236.647 182.861 236.917 182.346 237.104C182.92 237.239 183.38 237.503 183.726 237.896C184.077 238.288 184.253 238.757 184.253 239.302C184.253 240.175 183.931 240.843 183.286 241.306C182.647 241.769 181.742 242 180.57 242H176.272ZM177.898 237.825V240.69H180.588C181.268 240.69 181.774 240.564 182.108 240.312C182.448 240.061 182.618 239.706 182.618 239.249C182.618 238.3 181.921 237.825 180.526 237.825H177.898ZM177.898 236.524H179.999C181.522 236.524 182.284 236.079 182.284 235.188C182.284 234.298 181.563 233.838 180.122 233.809H177.898V236.524ZM193.675 232.49V242H192.04V238.3H189.588L187.347 242H185.589L187.979 238.054C187.37 237.831 186.901 237.488 186.573 237.025C186.251 236.557 186.09 236.012 186.09 235.391C186.09 234.523 186.415 233.826 187.065 233.299C187.716 232.766 188.586 232.496 189.676 232.49H193.675ZM187.725 235.408C187.725 235.871 187.883 236.246 188.199 236.533C188.516 236.814 188.935 236.958 189.456 236.964H192.04V233.809H189.702C189.099 233.809 188.618 233.958 188.261 234.257C187.903 234.55 187.725 234.934 187.725 235.408ZM201.515 235.092C201.515 234.646 201.345 234.295 201.005 234.037C200.665 233.773 200.199 233.642 199.607 233.642C199.033 233.642 198.553 233.791 198.166 234.09C197.785 234.389 197.595 234.74 197.595 235.145H195.978C195.978 234.318 196.323 233.642 197.015 233.114C197.706 232.587 198.57 232.323 199.607 232.323C200.721 232.323 201.588 232.563 202.209 233.044C202.83 233.519 203.141 234.198 203.141 235.083C203.141 235.511 203.012 235.903 202.754 236.261C202.496 236.618 202.13 236.902 201.655 237.113C202.763 237.488 203.316 238.227 203.316 239.328C203.316 240.201 202.979 240.893 202.306 241.402C201.632 241.912 200.732 242.167 199.607 242.167C198.512 242.167 197.606 241.9 196.892 241.367C196.183 240.828 195.828 240.102 195.828 239.188H197.445C197.445 239.65 197.65 240.049 198.061 240.383C198.477 240.711 198.992 240.875 199.607 240.875C200.229 240.875 200.729 240.731 201.11 240.444C201.491 240.157 201.682 239.785 201.682 239.328C201.682 238.795 201.521 238.414 201.198 238.186C200.882 237.951 200.387 237.834 199.713 237.834H198.087V236.463H199.854C200.961 236.434 201.515 235.977 201.515 235.092ZM212.694 232.49V242H211.06V238.3H208.607L206.366 242H204.608L206.999 238.054C206.39 237.831 205.921 237.488 205.593 237.025C205.271 236.557 205.109 236.012 205.109 235.391C205.109 234.523 205.435 233.826 206.085 233.299C206.735 232.766 207.605 232.496 208.695 232.49H212.694ZM206.744 235.408C206.744 235.871 206.902 236.246 207.219 236.533C207.535 236.814 207.954 236.958 208.476 236.964H211.06V233.809H208.722C208.118 233.809 207.638 233.958 207.28 234.257C206.923 234.55 206.744 234.934 206.744 235.408ZM218.495 235.962L220.604 232.49H222.503L219.392 237.192L222.6 242H220.719L218.521 238.44L216.324 242H214.435L217.643 237.192L214.531 232.49H216.412L218.495 235.962Z" fill="#3D4B66"/>
<rect x="0.5" y="0.5" width="279" height="299" rx="3.5" stroke="#DDDFE0"/>
<defs>
<clipPath id="clip0">
<rect width="80" height="80" fill="white" transform="translate(100 52)"/>
</clipPath>
</defs>
</svg>
