<svg width="280" height="300" viewBox="0 0 280 300" fill="none" xmlns="http://www.w3.org/2000/svg">
<rect x="0.5" y="0.5" width="279" height="299" rx="3.5" fill="white"/>
<g clip-path="url(#clip0)">
<path d="M148.688 82.4829H126.933V76.6458H148.688C149.551 76.6458 150.25 75.9461 150.25 75.0833C150.25 74.2204 149.551 73.5208 148.688 73.5208H126.933V73.3383C126.933 72.4754 126.234 71.7758 125.371 71.7758H103.243C101.455 71.7756 100 73.2304 100 75.0186V84.11C100 85.8979 101.455 87.3528 103.243 87.3528H125.371C126.234 87.3528 126.933 86.6533 126.933 85.7903V85.6079H148.688C149.551 85.6079 150.25 84.9083 150.25 84.0454C150.25 83.1825 149.551 82.4829 148.688 82.4829ZM123.808 84.2278H103.243C103.178 84.2278 103.125 84.175 103.125 84.11V75.0186C103.125 74.9536 103.178 74.9006 103.243 74.9006H123.808V84.2278Z" fill="#1939DE"/>
<path d="M141.685 66.6278H162.535V92.5008H141.685V66.6278Z" fill="#CFD7FF"/>
<path d="M139.94 68.1906H164.28C165.143 68.1906 165.842 67.4909 165.842 66.6281V58.8834C165.842 58.0206 165.143 57.3209 164.28 57.3209H139.94C139.077 57.3209 138.378 58.0206 138.378 58.8834V66.6281C138.378 67.4911 139.077 68.1906 139.94 68.1906ZM141.503 60.4459H162.717V65.0656H141.503V60.4459Z" fill="#1939DE"/>
<path d="M139.94 101.808H164.28C165.143 101.808 165.842 101.109 165.842 100.246V92.5012C165.842 91.6383 165.143 90.9387 164.28 90.9387H139.94C139.077 90.9387 138.378 91.6384 138.378 92.5012V100.246C138.378 101.109 139.077 101.808 139.94 101.808ZM141.503 94.0636H162.717V98.6831H141.503V94.0636Z" fill="#1939DE"/>
<path d="M178.437 123.555H173.586V119.314C173.586 117.374 172.244 115.742 170.439 115.297V111.593C170.439 108.95 168.289 106.799 165.646 106.799H138.402C135.758 106.799 133.608 108.95 133.608 111.593V115.297C131.803 115.742 130.461 117.374 130.461 119.314V123.555H125.61C124.747 123.555 124.047 124.254 124.047 125.117C124.047 125.98 124.747 126.68 125.61 126.68H178.437C179.3 126.68 180 125.98 180 125.117C180 124.254 179.3 123.555 178.437 123.555ZM136.733 111.593C136.733 110.673 137.481 109.924 138.402 109.924H165.646C166.566 109.924 167.315 110.673 167.315 111.593V115.177H136.733V111.593ZM133.586 123.555V119.314C133.586 118.756 134.04 118.302 134.599 118.302H169.449C170.007 118.302 170.461 118.756 170.461 119.314V123.555H133.586V123.555Z" fill="#00B956"/>
</g>
<path d="M95.2988 194H93.6025V182.592H87.292V194H85.6045V181.203H95.2988V194ZM97.6895 189.157C97.6895 188.226 97.8711 187.388 98.2344 186.644C98.6035 185.899 99.1133 185.325 99.7637 184.921C100.42 184.517 101.167 184.314 102.005 184.314C103.3 184.314 104.346 184.763 105.143 185.659C105.945 186.556 106.347 187.748 106.347 189.236V189.351C106.347 190.276 106.168 191.108 105.811 191.847C105.459 192.579 104.952 193.15 104.29 193.561C103.634 193.971 102.878 194.176 102.022 194.176C100.733 194.176 99.6875 193.728 98.8848 192.831C98.0879 191.935 97.6895 190.748 97.6895 189.271V189.157ZM99.3242 189.351C99.3242 190.405 99.5674 191.252 100.054 191.891C100.546 192.529 101.202 192.849 102.022 192.849C102.849 192.849 103.505 192.526 103.991 191.882C104.478 191.231 104.721 190.323 104.721 189.157C104.721 188.114 104.472 187.271 103.974 186.626C103.481 185.976 102.825 185.65 102.005 185.65C101.202 185.65 100.555 185.97 100.062 186.608C99.5703 187.247 99.3242 188.161 99.3242 189.351ZM108.535 194V184.49H112.244C113.51 184.49 114.479 184.713 115.153 185.158C115.833 185.598 116.173 186.245 116.173 187.101C116.173 187.54 116.041 187.938 115.777 188.296C115.514 188.647 115.124 188.917 114.608 189.104C115.183 189.239 115.643 189.503 115.988 189.896C116.34 190.288 116.516 190.757 116.516 191.302C116.516 192.175 116.193 192.843 115.549 193.306C114.91 193.769 114.005 194 112.833 194H108.535ZM110.161 189.825V192.69H112.851C113.53 192.69 114.037 192.564 114.371 192.312C114.711 192.061 114.881 191.706 114.881 191.249C114.881 190.3 114.184 189.825 112.789 189.825H110.161ZM110.161 188.524H112.262C113.785 188.524 114.547 188.079 114.547 187.188C114.547 186.298 113.826 185.838 112.385 185.809H110.161V188.524ZM120.444 187.769H122.914C123.992 187.78 124.845 188.062 125.472 188.612C126.099 189.163 126.412 189.91 126.412 190.854C126.412 191.803 126.09 192.564 125.445 193.139C124.801 193.713 123.934 194 122.844 194H118.818V184.49H120.444V187.769ZM129.805 194H128.17V184.49H129.805V194ZM120.444 189.096V192.673H122.861C123.471 192.673 123.942 192.518 124.276 192.207C124.61 191.891 124.777 191.46 124.777 190.915C124.777 190.388 124.613 189.957 124.285 189.623C123.963 189.283 123.509 189.107 122.923 189.096H120.444ZM134.419 184.49V192.673H137.899V184.49H139.525V192.673H142.997V184.49H144.632V194H132.784V184.49H134.419ZM151.145 194.176C149.855 194.176 148.807 193.754 147.998 192.91C147.189 192.061 146.785 190.927 146.785 189.509V189.21C146.785 188.267 146.964 187.426 147.321 186.688C147.685 185.943 148.188 185.363 148.833 184.947C149.483 184.525 150.187 184.314 150.942 184.314C152.179 184.314 153.14 184.722 153.825 185.536C154.511 186.351 154.854 187.517 154.854 189.034V189.711H148.411C148.435 190.648 148.707 191.407 149.229 191.987C149.756 192.562 150.424 192.849 151.232 192.849C151.807 192.849 152.293 192.731 152.691 192.497C153.09 192.263 153.438 191.952 153.737 191.565L154.73 192.339C153.934 193.563 152.738 194.176 151.145 194.176ZM150.942 185.65C150.286 185.65 149.735 185.891 149.29 186.371C148.845 186.846 148.569 187.514 148.464 188.375H153.228V188.252C153.181 187.426 152.958 186.787 152.56 186.336C152.161 185.879 151.622 185.65 150.942 185.65ZM164.513 194H162.887V189.939H158.519V194H156.884V184.49H158.519V188.612H162.887V184.49H164.513V194ZM174.901 194H173.275V189.939H168.907V194H167.272V184.49H168.907V188.612H173.275V184.49H174.901V194ZM183.392 194C183.298 193.812 183.222 193.479 183.163 192.998C182.407 193.783 181.505 194.176 180.456 194.176C179.519 194.176 178.748 193.912 178.145 193.385C177.547 192.852 177.248 192.178 177.248 191.363C177.248 190.373 177.623 189.605 178.373 189.061C179.129 188.51 180.189 188.234 181.555 188.234H183.137V187.487C183.137 186.919 182.967 186.468 182.627 186.134C182.287 185.794 181.786 185.624 181.124 185.624C180.544 185.624 180.058 185.771 179.665 186.063C179.272 186.356 179.076 186.711 179.076 187.127H177.441C177.441 186.652 177.608 186.195 177.942 185.756C178.282 185.311 178.739 184.959 179.313 184.701C179.894 184.443 180.529 184.314 181.221 184.314C182.316 184.314 183.175 184.59 183.796 185.141C184.417 185.686 184.739 186.438 184.763 187.399V191.776C184.763 192.649 184.874 193.344 185.097 193.859V194H183.392ZM180.693 192.761C181.203 192.761 181.687 192.629 182.144 192.365C182.601 192.102 182.932 191.759 183.137 191.337V189.386H181.862C179.87 189.386 178.874 189.969 178.874 191.135C178.874 191.645 179.044 192.043 179.384 192.33C179.724 192.617 180.16 192.761 180.693 192.761ZM194.58 184.49V194H192.945V190.3H190.493L188.252 194H186.494L188.885 190.054C188.275 189.831 187.807 189.488 187.479 189.025C187.156 188.557 186.995 188.012 186.995 187.391C186.995 186.523 187.32 185.826 187.971 185.299C188.621 184.766 189.491 184.496 190.581 184.49H194.58ZM188.63 187.408C188.63 187.871 188.788 188.246 189.104 188.533C189.421 188.814 189.84 188.958 190.361 188.964H192.945V185.809H190.607C190.004 185.809 189.523 185.958 189.166 186.257C188.809 186.55 188.63 186.934 188.63 187.408ZM53.8848 218V208.49H57.5938C58.8594 208.49 59.8291 208.713 60.5029 209.158C61.1826 209.598 61.5225 210.245 61.5225 211.101C61.5225 211.54 61.3906 211.938 61.127 212.296C60.8633 212.647 60.4736 212.917 59.958 213.104C60.5322 213.239 60.9922 213.503 61.3379 213.896C61.6895 214.288 61.8652 214.757 61.8652 215.302C61.8652 216.175 61.543 216.843 60.8984 217.306C60.2598 217.769 59.3545 218 58.1826 218H53.8848ZM55.5107 213.825V216.69H58.2002C58.8799 216.69 59.3867 216.564 59.7207 216.312C60.0605 216.061 60.2305 215.706 60.2305 215.249C60.2305 214.3 59.5332 213.825 58.1387 213.825H55.5107ZM55.5107 212.524H57.6113C59.1348 212.524 59.8965 212.079 59.8965 211.188C59.8965 210.298 59.1758 209.838 57.7344 209.809H55.5107V212.524ZM67.9648 218.176C66.6758 218.176 65.627 217.754 64.8184 216.91C64.0098 216.061 63.6055 214.927 63.6055 213.509V213.21C63.6055 212.267 63.7842 211.426 64.1416 210.688C64.5049 209.943 65.0088 209.363 65.6533 208.947C66.3037 208.525 67.0068 208.314 67.7627 208.314C68.999 208.314 69.96 208.722 70.6455 209.536C71.3311 210.351 71.6738 211.517 71.6738 213.034V213.711H65.2314C65.2549 214.648 65.5273 215.407 66.0488 215.987C66.5762 216.562 67.2441 216.849 68.0527 216.849C68.627 216.849 69.1133 216.731 69.5117 216.497C69.9102 216.263 70.2588 215.952 70.5576 215.565L71.5508 216.339C70.7539 217.563 69.5586 218.176 67.9648 218.176ZM67.7627 209.65C67.1064 209.65 66.5557 209.891 66.1104 210.371C65.665 210.846 65.3896 211.514 65.2842 212.375H70.0479V212.252C70.001 211.426 69.7783 210.787 69.3799 210.336C68.9814 209.879 68.4424 209.65 67.7627 209.65ZM81.5967 213.351C81.5967 214.798 81.2656 215.964 80.6035 216.849C79.9414 217.733 79.0449 218.176 77.9141 218.176C76.7598 218.176 75.8516 217.81 75.1895 217.077V221.656H73.5635V208.49H75.0488L75.1279 209.545C75.79 208.725 76.71 208.314 77.8877 208.314C79.0303 208.314 79.9326 208.745 80.5947 209.606C81.2627 210.468 81.5967 211.666 81.5967 213.201V213.351ZM79.9707 213.166C79.9707 212.094 79.7422 211.247 79.2852 210.626C78.8281 210.005 78.2012 209.694 77.4043 209.694C76.4199 209.694 75.6816 210.131 75.1895 211.004V215.548C75.6758 216.415 76.4199 216.849 77.4219 216.849C78.2012 216.849 78.8193 216.541 79.2764 215.926C79.7393 215.305 79.9707 214.385 79.9707 213.166ZM83.2402 213.157C83.2402 212.226 83.4219 211.388 83.7852 210.644C84.1543 209.899 84.6641 209.325 85.3145 208.921C85.9707 208.517 86.7178 208.314 87.5557 208.314C88.8506 208.314 89.8965 208.763 90.6934 209.659C91.4961 210.556 91.8975 211.748 91.8975 213.236V213.351C91.8975 214.276 91.7188 215.108 91.3613 215.847C91.0098 216.579 90.5029 217.15 89.8408 217.561C89.1846 217.971 88.4287 218.176 87.5732 218.176C86.2842 218.176 85.2383 217.728 84.4355 216.831C83.6387 215.935 83.2402 214.748 83.2402 213.271V213.157ZM84.875 213.351C84.875 214.405 85.1182 215.252 85.6045 215.891C86.0967 216.529 86.7529 216.849 87.5732 216.849C88.3994 216.849 89.0557 216.526 89.542 215.882C90.0283 215.231 90.2715 214.323 90.2715 213.157C90.2715 212.114 90.0225 211.271 89.5244 210.626C89.0322 209.976 88.376 209.65 87.5557 209.65C86.7529 209.65 86.1055 209.97 85.6133 210.608C85.1211 211.247 84.875 212.161 84.875 213.351ZM101.205 208.49V218H99.5703V214.3H97.1182L94.877 218H93.1191L95.5098 214.054C94.9004 213.831 94.4316 213.488 94.1035 213.025C93.7812 212.557 93.6201 212.012 93.6201 211.391C93.6201 210.523 93.9453 209.826 94.5957 209.299C95.2461 208.766 96.1162 208.496 97.2061 208.49H101.205ZM95.2549 211.408C95.2549 211.871 95.4131 212.246 95.7295 212.533C96.0459 212.814 96.4648 212.958 96.9863 212.964H99.5703V209.809H97.2324C96.6289 209.809 96.1484 209.958 95.791 210.257C95.4336 210.55 95.2549 210.934 95.2549 211.408ZM110.882 209.809H107.691V218H106.065V209.809H102.937V208.49H110.882V209.809ZM120.233 218H118.607V213.939H114.239V218H112.604V208.49H114.239V212.612H118.607V208.49H120.233V218ZM122.422 213.157C122.422 212.226 122.604 211.388 122.967 210.644C123.336 209.899 123.846 209.325 124.496 208.921C125.152 208.517 125.899 208.314 126.737 208.314C128.032 208.314 129.078 208.763 129.875 209.659C130.678 210.556 131.079 211.748 131.079 213.236V213.351C131.079 214.276 130.9 215.108 130.543 215.847C130.191 216.579 129.685 217.15 129.022 217.561C128.366 217.971 127.61 218.176 126.755 218.176C125.466 218.176 124.42 217.728 123.617 216.831C122.82 215.935 122.422 214.748 122.422 213.271V213.157ZM124.057 213.351C124.057 214.405 124.3 215.252 124.786 215.891C125.278 216.529 125.935 216.849 126.755 216.849C127.581 216.849 128.237 216.526 128.724 215.882C129.21 215.231 129.453 214.323 129.453 213.157C129.453 212.114 129.204 211.271 128.706 210.626C128.214 209.976 127.558 209.65 126.737 209.65C125.935 209.65 125.287 209.97 124.795 210.608C124.303 211.247 124.057 212.161 124.057 213.351ZM136.933 216.849C137.513 216.849 138.02 216.673 138.453 216.321C138.887 215.97 139.127 215.53 139.174 215.003H140.712C140.683 215.548 140.495 216.066 140.149 216.559C139.804 217.051 139.341 217.443 138.761 217.736C138.187 218.029 137.577 218.176 136.933 218.176C135.638 218.176 134.606 217.745 133.839 216.884C133.077 216.017 132.696 214.833 132.696 213.333V213.061C132.696 212.135 132.866 211.312 133.206 210.591C133.546 209.87 134.032 209.311 134.665 208.912C135.304 208.514 136.057 208.314 136.924 208.314C137.99 208.314 138.875 208.634 139.578 209.272C140.287 209.911 140.665 210.74 140.712 211.76H139.174C139.127 211.145 138.893 210.641 138.471 210.248C138.055 209.85 137.539 209.65 136.924 209.65C136.098 209.65 135.456 209.949 134.999 210.547C134.548 211.139 134.322 211.997 134.322 213.122V213.43C134.322 214.525 134.548 215.369 134.999 215.961C135.45 216.553 136.095 216.849 136.933 216.849ZM149.606 209.809H146.416V218H144.79V209.809H141.661V208.49H149.606V209.809ZM152.964 211.769H155.434C156.512 211.78 157.364 212.062 157.991 212.612C158.618 213.163 158.932 213.91 158.932 214.854C158.932 215.803 158.609 216.564 157.965 217.139C157.32 217.713 156.453 218 155.363 218H151.338V208.49H152.964V211.769ZM152.964 213.096V216.673H155.381C155.99 216.673 156.462 216.518 156.796 216.207C157.13 215.891 157.297 215.46 157.297 214.915C157.297 214.388 157.133 213.957 156.805 213.623C156.482 213.283 156.028 213.107 155.442 213.096H152.964ZM165.576 218V208.49H169.285C170.551 208.49 171.521 208.713 172.194 209.158C172.874 209.598 173.214 210.245 173.214 211.101C173.214 211.54 173.082 211.938 172.818 212.296C172.555 212.647 172.165 212.917 171.649 213.104C172.224 213.239 172.684 213.503 173.029 213.896C173.381 214.288 173.557 214.757 173.557 215.302C173.557 216.175 173.234 216.843 172.59 217.306C171.951 217.769 171.046 218 169.874 218H165.576ZM167.202 213.825V216.69H169.892C170.571 216.69 171.078 216.564 171.412 216.312C171.752 216.061 171.922 215.706 171.922 215.249C171.922 214.3 171.225 213.825 169.83 213.825H167.202ZM167.202 212.524H169.303C170.826 212.524 171.588 212.079 171.588 211.188C171.588 210.298 170.867 209.838 169.426 209.809H167.202V212.524ZM177.485 211.769H179.955C181.033 211.78 181.886 212.062 182.513 212.612C183.14 213.163 183.453 213.91 183.453 214.854C183.453 215.803 183.131 216.564 182.486 217.139C181.842 217.713 180.975 218 179.885 218H175.859V208.49H177.485V211.769ZM186.846 218H185.211V208.49H186.846V218ZM177.485 213.096V216.673H179.902C180.512 216.673 180.983 216.518 181.317 216.207C181.651 215.891 181.818 215.46 181.818 214.915C181.818 214.388 181.654 213.957 181.326 213.623C181.004 213.283 180.55 213.107 179.964 213.096H177.485ZM192.875 211.962L194.984 208.49H196.883L193.771 213.192L196.979 218H195.099L192.901 214.44L190.704 218H188.814L192.022 213.192L188.911 208.49H190.792L192.875 211.962ZM198.008 213.157C198.008 212.226 198.189 211.388 198.553 210.644C198.922 209.899 199.432 209.325 200.082 208.921C200.738 208.517 201.485 208.314 202.323 208.314C203.618 208.314 204.664 208.763 205.461 209.659C206.264 210.556 206.665 211.748 206.665 213.236V213.351C206.665 214.276 206.486 215.108 206.129 215.847C205.777 216.579 205.271 217.15 204.608 217.561C203.952 217.971 203.196 218.176 202.341 218.176C201.052 218.176 200.006 217.728 199.203 216.831C198.406 215.935 198.008 214.748 198.008 213.271V213.157ZM199.643 213.351C199.643 214.405 199.886 215.252 200.372 215.891C200.864 216.529 201.521 216.849 202.341 216.849C203.167 216.849 203.823 216.526 204.31 215.882C204.796 215.231 205.039 214.323 205.039 213.157C205.039 212.114 204.79 211.271 204.292 210.626C203.8 209.976 203.144 209.65 202.323 209.65C201.521 209.65 200.873 209.97 200.381 210.608C199.889 211.247 199.643 212.161 199.643 213.351ZM207.992 216.673L208.555 215.979C209.188 215.158 209.548 213.928 209.636 212.287L209.785 208.49H215.911V216.673H217.133V220.795H215.507V218H208.871V220.795H207.245L207.254 216.673H207.992ZM209.917 216.673H214.285V209.993H211.358L211.262 212.261C211.162 214.153 210.714 215.624 209.917 216.673ZM224.806 218C224.712 217.812 224.636 217.479 224.577 216.998C223.821 217.783 222.919 218.176 221.87 218.176C220.933 218.176 220.162 217.912 219.559 217.385C218.961 216.852 218.662 216.178 218.662 215.363C218.662 214.373 219.037 213.605 219.787 213.061C220.543 212.51 221.604 212.234 222.969 212.234H224.551V211.487C224.551 210.919 224.381 210.468 224.041 210.134C223.701 209.794 223.2 209.624 222.538 209.624C221.958 209.624 221.472 209.771 221.079 210.063C220.687 210.356 220.49 210.711 220.49 211.127H218.855C218.855 210.652 219.022 210.195 219.356 209.756C219.696 209.311 220.153 208.959 220.728 208.701C221.308 208.443 221.943 208.314 222.635 208.314C223.73 208.314 224.589 208.59 225.21 209.141C225.831 209.686 226.153 210.438 226.177 211.399V215.776C226.177 216.649 226.288 217.344 226.511 217.859V218H224.806ZM222.107 216.761C222.617 216.761 223.101 216.629 223.558 216.365C224.015 216.102 224.346 215.759 224.551 215.337V213.386H223.276C221.284 213.386 220.288 213.969 220.288 215.135C220.288 215.645 220.458 216.043 220.798 216.33C221.138 216.617 221.574 216.761 222.107 216.761ZM118.3 242H116.674V233.835H112.297V242H110.662V232.49H118.3V242ZM120.479 237.157C120.479 236.226 120.661 235.388 121.024 234.644C121.394 233.899 121.903 233.325 122.554 232.921C123.21 232.517 123.957 232.314 124.795 232.314C126.09 232.314 127.136 232.763 127.933 233.659C128.735 234.556 129.137 235.748 129.137 237.236V237.351C129.137 238.276 128.958 239.108 128.601 239.847C128.249 240.579 127.742 241.15 127.08 241.561C126.424 241.971 125.668 242.176 124.812 242.176C123.523 242.176 122.478 241.728 121.675 240.831C120.878 239.935 120.479 238.748 120.479 237.271V237.157ZM122.114 237.351C122.114 238.405 122.357 239.252 122.844 239.891C123.336 240.529 123.992 240.849 124.812 240.849C125.639 240.849 126.295 240.526 126.781 239.882C127.268 239.231 127.511 238.323 127.511 237.157C127.511 236.114 127.262 235.271 126.764 234.626C126.271 233.976 125.615 233.65 124.795 233.65C123.992 233.65 123.345 233.97 122.853 234.608C122.36 235.247 122.114 236.161 122.114 237.351ZM140.29 236.63L143.234 229.203H145.194L140.668 239.864C140.363 240.544 140.079 241.027 139.815 241.314C139.552 241.596 139.241 241.812 138.884 241.965C138.532 242.111 138.09 242.185 137.557 242.185C137.094 242.185 136.798 242.158 136.669 242.105L136.722 240.77L137.521 240.805C138.137 240.805 138.594 240.509 138.893 239.917L139.112 239.46L139.446 238.678L135.087 229.203H136.977L140.29 236.63ZM158.009 245.138H156.33V242H147.146V245.146H145.458L145.449 240.62H146.495C147.046 239.999 147.482 239.167 147.805 238.124C148.133 237.075 148.338 235.927 148.42 234.679L148.701 229.203H156.356V240.62H158.026L158.009 245.138ZM148.42 240.62H154.66V230.592H150.327L150.143 234.354C150.066 235.824 149.87 237.078 149.554 238.115C149.243 239.152 148.865 239.987 148.42 240.62ZM169.663 236.015C169.663 237.269 169.452 238.364 169.03 239.302C168.608 240.233 168.011 240.945 167.237 241.438C166.464 241.93 165.562 242.176 164.53 242.176C163.522 242.176 162.629 241.93 161.85 241.438C161.07 240.939 160.464 240.233 160.03 239.319C159.603 238.399 159.383 237.336 159.371 236.129V235.206C159.371 233.976 159.585 232.889 160.013 231.945C160.44 231.002 161.044 230.281 161.823 229.783C162.608 229.279 163.505 229.027 164.513 229.027C165.538 229.027 166.44 229.276 167.22 229.774C168.005 230.267 168.608 230.984 169.03 231.928C169.452 232.865 169.663 233.958 169.663 235.206V236.015ZM167.984 235.188C167.984 233.671 167.68 232.508 167.07 231.699C166.461 230.885 165.608 230.478 164.513 230.478C163.446 230.478 162.605 230.885 161.99 231.699C161.381 232.508 161.067 233.633 161.05 235.074V236.015C161.05 237.485 161.357 238.643 161.973 239.486C162.594 240.324 163.446 240.743 164.53 240.743C165.62 240.743 166.464 240.348 167.062 239.557C167.659 238.76 167.967 237.62 167.984 236.138V235.188Z" fill="#3D4B66"/>
<rect x="0.5" y="0.5" width="279" height="299" rx="3.5" stroke="#DDDFE0"/>
<defs>
<clipPath id="clip0">
<rect width="80" height="80" fill="white" transform="translate(100 52)"/>
</clipPath>
</defs>
</svg>
