<svg width="280" height="300" viewBox="0 0 280 300" fill="none" xmlns="http://www.w3.org/2000/svg">
<rect x="0.5" y="0.5" width="279" height="299" rx="3.5" fill="white"/>
<path d="M122.479 89.3778V123.562H114.937V89.3778H122.479Z" fill="#CFD7FF"/>
<path d="M143.771 89.3778V123.562H136.229V89.3778H143.771Z" fill="#CFD7FF"/>
<path d="M165.063 89.3781V123.563H157.521V89.3781H165.063Z" fill="#CFD7FF"/>
<path d="M118.708 70.1769C115.558 70.1769 112.996 72.7391 112.996 75.8883C112.996 79.0375 115.558 81.5997 118.708 81.5997C121.857 81.5997 124.419 79.0375 124.419 75.8883C124.419 72.7391 121.857 70.1769 118.708 70.1769ZM118.708 78.4747C117.282 78.4747 116.121 77.3144 116.121 75.8883C116.121 74.462 117.282 73.3019 118.708 73.3019C120.134 73.3019 121.294 74.4622 121.294 75.8883C121.294 77.3144 120.134 78.4747 118.708 78.4747Z" fill="#00B956"/>
<path d="M114.937 63.9528H122.479C123.342 63.9528 124.041 63.2532 124.041 62.3903C124.041 61.5273 123.342 60.8278 122.479 60.8278H114.937C114.074 60.8278 113.374 61.5273 113.374 62.3903C113.374 63.2532 114.074 63.9528 114.937 63.9528Z" fill="#00B956"/>
<path d="M140 70.1769C136.851 70.1769 134.289 72.7391 134.289 75.8883C134.289 79.0375 136.851 81.5997 140 81.5997C143.149 81.5997 145.711 79.0375 145.711 75.8883C145.711 72.7391 143.149 70.1769 140 70.1769ZM140 78.4747C138.574 78.4747 137.414 77.3144 137.414 75.8883C137.414 74.462 138.574 73.3019 140 73.3019C141.426 73.3019 142.586 74.4622 142.586 75.8883C142.586 77.3144 141.426 78.4747 140 78.4747Z" fill="#00B956"/>
<path d="M136.229 63.9528H143.771C144.634 63.9528 145.334 63.2532 145.334 62.3903C145.334 61.5273 144.634 60.8278 143.771 60.8278H136.229C135.366 60.8278 134.666 61.5273 134.666 62.3903C134.666 63.2532 135.366 63.9528 136.229 63.9528Z" fill="#00B956"/>
<path d="M169.188 52H153.397C152.352 52 151.393 52.3733 150.646 52.9933C149.899 52.3733 148.94 52 147.896 52H132.104C131.06 52 130.101 52.3733 129.354 52.9933C128.607 52.3733 127.648 52 126.603 52H110.812C108.434 52 106.499 53.9348 106.499 56.3131V127.687C106.499 130.065 108.434 132 110.812 132H126.603C127.648 132 128.607 131.627 129.354 131.007C130.101 131.627 131.06 132 132.104 132H147.896C148.94 132 149.899 131.627 150.646 131.007C151.393 131.627 152.352 132 153.397 132H169.188C171.566 132 173.501 130.065 173.501 127.687V56.3131C173.501 53.9348 171.566 52 169.188 52V52ZM126.603 128.875H110.812C110.157 128.875 109.624 128.342 109.624 127.687V56.3131C109.624 55.6581 110.157 55.125 110.812 55.125H126.603C127.258 55.125 127.791 55.658 127.791 56.3131V127.687C127.791 128.342 127.258 128.875 126.603 128.875ZM147.896 128.875H132.104C131.449 128.875 130.916 128.342 130.916 127.687V56.3131C130.916 55.6581 131.449 55.125 132.104 55.125H147.896C148.551 55.125 149.084 55.658 149.084 56.3131V127.687C149.084 128.342 148.551 128.875 147.896 128.875ZM170.376 127.687C170.376 128.342 169.843 128.875 169.188 128.875H153.397C152.742 128.875 152.208 128.342 152.208 127.687V56.3131C152.208 55.6581 152.741 55.125 153.397 55.125H169.188C169.843 55.125 170.376 55.658 170.376 56.3131V127.687Z" fill="#1939DE"/>
<path d="M161.292 70.1769C158.143 70.1769 155.581 72.7391 155.581 75.8883C155.581 79.0375 158.143 81.5997 161.292 81.5997C164.441 81.5997 167.004 79.0375 167.004 75.8883C167.004 72.7391 164.441 70.1769 161.292 70.1769ZM161.292 78.4747C159.866 78.4747 158.706 77.3144 158.706 75.8883C158.706 74.462 159.866 73.3019 161.292 73.3019C162.718 73.3019 163.879 74.4622 163.879 75.8883C163.879 77.3144 162.718 78.4747 161.292 78.4747Z" fill="#00B956"/>
<path d="M157.521 63.9528H165.063C165.926 63.9528 166.626 63.2532 166.626 62.3903C166.626 61.5273 165.926 60.8278 165.063 60.8278H157.521C156.658 60.8278 155.959 61.5273 155.959 62.3903C155.959 63.2532 156.658 63.9528 157.521 63.9528Z" fill="#00B956"/>
<path d="M83.627 182.592H77.457V186.424H80.6387C81.9746 186.441 83.0176 186.784 83.7676 187.452C84.5176 188.12 84.8926 189.028 84.8926 190.177C84.8926 191.331 84.5146 192.251 83.7588 192.937C83.0029 193.622 81.9717 193.977 80.665 194H75.7607V181.203H83.627V182.592ZM77.457 187.812V192.62H80.542C81.3799 192.62 82.0303 192.397 82.4932 191.952C82.9619 191.507 83.1963 190.909 83.1963 190.159C83.1963 189.438 82.9707 188.87 82.5195 188.454C82.0742 188.038 81.4385 187.824 80.6123 187.812H77.457ZM86.4922 189.157C86.4922 188.226 86.6738 187.388 87.0371 186.644C87.4062 185.899 87.916 185.325 88.5664 184.921C89.2227 184.517 89.9697 184.314 90.8076 184.314C92.1025 184.314 93.1484 184.763 93.9453 185.659C94.748 186.556 95.1494 187.748 95.1494 189.236V189.351C95.1494 190.276 94.9707 191.108 94.6133 191.847C94.2617 192.579 93.7549 193.15 93.0928 193.561C92.4365 193.971 91.6807 194.176 90.8252 194.176C89.5361 194.176 88.4902 193.728 87.6875 192.831C86.8906 191.935 86.4922 190.748 86.4922 189.271V189.157ZM88.127 189.351C88.127 190.405 88.3701 191.252 88.8564 191.891C89.3486 192.529 90.0049 192.849 90.8252 192.849C91.6514 192.849 92.3076 192.526 92.7939 191.882C93.2803 191.231 93.5234 190.323 93.5234 189.157C93.5234 188.114 93.2744 187.271 92.7764 186.626C92.2842 185.976 91.6279 185.65 90.8076 185.65C90.0049 185.65 89.3574 185.97 88.8652 186.608C88.373 187.247 88.127 188.161 88.127 189.351ZM104.844 184.49V194H103.209V185.835H99.9746L99.7812 189.395C99.6758 191.029 99.4004 192.198 98.9551 192.901C98.5156 193.604 97.8154 193.971 96.8545 194H96.2041V192.567L96.6699 192.532C97.1973 192.474 97.5752 192.169 97.8037 191.618C98.0322 191.067 98.1787 190.048 98.2432 188.56L98.4189 184.49H104.844ZM109.229 187.769H111.699C112.777 187.78 113.63 188.062 114.257 188.612C114.884 189.163 115.197 189.91 115.197 190.854C115.197 191.803 114.875 192.564 114.23 193.139C113.586 193.713 112.719 194 111.629 194H107.604V184.49H109.229V187.769ZM109.229 189.096V192.673H111.646C112.256 192.673 112.728 192.518 113.062 192.207C113.396 191.891 113.562 191.46 113.562 190.915C113.562 190.388 113.398 189.957 113.07 189.623C112.748 189.283 112.294 189.107 111.708 189.096H109.229ZM119.003 184.49V192.673H122.483V184.49H124.109V192.673H127.581V184.49H129.216V194H117.368V184.49H119.003ZM134.894 191.618L137.108 184.49H138.849L135.025 195.468C134.434 197.05 133.493 197.841 132.204 197.841L131.896 197.814L131.29 197.7V196.382L131.729 196.417C132.28 196.417 132.708 196.306 133.013 196.083C133.323 195.86 133.578 195.453 133.777 194.861L134.138 193.895L130.745 184.49H132.521L134.894 191.618ZM142.083 188.524H144.368C144.491 187.259 144.939 186.242 145.713 185.475C146.492 184.701 147.474 184.314 148.657 184.314C149.899 184.314 150.916 184.733 151.707 185.571C152.498 186.409 152.926 187.499 152.99 188.841L152.999 189.351C152.999 190.276 152.817 191.111 152.454 191.855C152.091 192.6 151.581 193.174 150.925 193.578C150.269 193.977 149.519 194.176 148.675 194.176C147.45 194.176 146.448 193.777 145.669 192.98C144.89 192.178 144.453 191.138 144.359 189.86H142.083V194H140.457V184.49H142.083V188.524ZM145.968 189.351C145.968 190.405 146.211 191.252 146.697 191.891C147.189 192.529 147.849 192.849 148.675 192.849C149.501 192.849 150.154 192.523 150.635 191.873C151.121 191.223 151.364 190.317 151.364 189.157C151.364 188.12 151.118 187.276 150.626 186.626C150.134 185.976 149.478 185.65 148.657 185.65C147.849 185.65 147.198 185.97 146.706 186.608C146.214 187.247 145.968 188.161 145.968 189.351ZM166.648 194H165.014V190.555C164.299 190.742 163.566 190.836 162.816 190.836C161.627 190.836 160.719 190.531 160.092 189.922C159.471 189.312 159.154 188.445 159.143 187.32V184.481H160.769V187.373C160.798 188.791 161.48 189.5 162.816 189.5C163.566 189.5 164.299 189.406 165.014 189.219V184.49H166.648V194ZM175.13 194C175.036 193.812 174.96 193.479 174.901 192.998C174.146 193.783 173.243 194.176 172.194 194.176C171.257 194.176 170.486 193.912 169.883 193.385C169.285 192.852 168.986 192.178 168.986 191.363C168.986 190.373 169.361 189.605 170.111 189.061C170.867 188.51 171.928 188.234 173.293 188.234H174.875V187.487C174.875 186.919 174.705 186.468 174.365 186.134C174.025 185.794 173.524 185.624 172.862 185.624C172.282 185.624 171.796 185.771 171.403 186.063C171.011 186.356 170.814 186.711 170.814 187.127H169.18C169.18 186.652 169.347 186.195 169.681 185.756C170.021 185.311 170.478 184.959 171.052 184.701C171.632 184.443 172.268 184.314 172.959 184.314C174.055 184.314 174.913 184.59 175.534 185.141C176.155 185.686 176.478 186.438 176.501 187.399V191.776C176.501 192.649 176.612 193.344 176.835 193.859V194H175.13ZM172.432 192.761C172.941 192.761 173.425 192.629 173.882 192.365C174.339 192.102 174.67 191.759 174.875 191.337V189.386H173.601C171.608 189.386 170.612 189.969 170.612 191.135C170.612 191.645 170.782 192.043 171.122 192.33C171.462 192.617 171.898 192.761 172.432 192.761ZM182.864 192.849C183.444 192.849 183.951 192.673 184.385 192.321C184.818 191.97 185.059 191.53 185.105 191.003H186.644C186.614 191.548 186.427 192.066 186.081 192.559C185.735 193.051 185.272 193.443 184.692 193.736C184.118 194.029 183.509 194.176 182.864 194.176C181.569 194.176 180.538 193.745 179.771 192.884C179.009 192.017 178.628 190.833 178.628 189.333V189.061C178.628 188.135 178.798 187.312 179.138 186.591C179.478 185.87 179.964 185.311 180.597 184.912C181.235 184.514 181.988 184.314 182.855 184.314C183.922 184.314 184.807 184.634 185.51 185.272C186.219 185.911 186.597 186.74 186.644 187.76H185.105C185.059 187.145 184.824 186.641 184.402 186.248C183.986 185.85 183.471 185.65 182.855 185.65C182.029 185.65 181.388 185.949 180.931 186.547C180.479 187.139 180.254 187.997 180.254 189.122V189.43C180.254 190.525 180.479 191.369 180.931 191.961C181.382 192.553 182.026 192.849 182.864 192.849ZM195.538 185.809H192.348V194H190.722V185.809H187.593V184.49H195.538V185.809ZM198.896 187.769H201.365C202.443 187.78 203.296 188.062 203.923 188.612C204.55 189.163 204.863 189.91 204.863 190.854C204.863 191.803 204.541 192.564 203.896 193.139C203.252 193.713 202.385 194 201.295 194H197.27V184.49H198.896V187.769ZM198.896 189.096V192.673H201.312C201.922 192.673 202.394 192.518 202.728 192.207C203.062 191.891 203.229 191.46 203.229 190.915C203.229 190.388 203.064 189.957 202.736 189.623C202.414 189.283 201.96 189.107 201.374 189.096H198.896ZM38.0469 216.673L38.6094 215.979C39.2422 215.158 39.6025 213.928 39.6904 212.287L39.8398 208.49H45.9658V216.673H47.1875V220.795H45.5615V218H38.9258V220.795H37.2998L37.3086 216.673H38.0469ZM39.9717 216.673H44.3398V209.993H41.4131L41.3164 212.261C41.2168 214.153 40.7686 215.624 39.9717 216.673ZM48.5586 213.157C48.5586 212.226 48.7402 211.388 49.1035 210.644C49.4727 209.899 49.9824 209.325 50.6328 208.921C51.2891 208.517 52.0361 208.314 52.874 208.314C54.1689 208.314 55.2148 208.763 56.0117 209.659C56.8145 210.556 57.2158 211.748 57.2158 213.236V213.351C57.2158 214.276 57.0371 215.108 56.6797 215.847C56.3281 216.579 55.8213 217.15 55.1592 217.561C54.5029 217.971 53.7471 218.176 52.8916 218.176C51.6025 218.176 50.5566 217.728 49.7539 216.831C48.957 215.935 48.5586 214.748 48.5586 213.271V213.157ZM50.1934 213.351C50.1934 214.405 50.4365 215.252 50.9229 215.891C51.415 216.529 52.0713 216.849 52.8916 216.849C53.7178 216.849 54.374 216.526 54.8604 215.882C55.3467 215.231 55.5898 214.323 55.5898 213.157C55.5898 212.114 55.3408 211.271 54.8428 210.626C54.3506 209.976 53.6943 209.65 52.874 209.65C52.0713 209.65 51.4238 209.97 50.9316 210.608C50.4395 211.247 50.1934 212.161 50.1934 213.351ZM62.2168 213.948H61.0303V218H59.3955V208.49H61.0303V212.516H62.0938L65.293 208.49H67.2617L63.5 213.061L67.5781 218H65.5127L62.2168 213.948ZM72.0869 215.618L74.3018 208.49H76.042L72.2188 219.468C71.627 221.05 70.6865 221.841 69.3975 221.841L69.0898 221.814L68.4834 221.7V220.382L68.9229 220.417C69.4736 220.417 69.9014 220.306 70.2061 220.083C70.5166 219.86 70.7715 219.453 70.9707 218.861L71.3311 217.895L67.9385 208.49H69.7139L72.0869 215.618ZM82.9766 215.847L86.2109 208.49H88.2412V218H86.6152V211.083L83.5391 218H82.4141L79.2764 210.934V218H77.6504V208.49H79.7598L82.9766 215.847ZM94.8066 218.176C93.5176 218.176 92.4688 217.754 91.6602 216.91C90.8516 216.061 90.4473 214.927 90.4473 213.509V213.21C90.4473 212.267 90.626 211.426 90.9834 210.688C91.3467 209.943 91.8506 209.363 92.4951 208.947C93.1455 208.525 93.8486 208.314 94.6045 208.314C95.8408 208.314 96.8018 208.722 97.4873 209.536C98.1729 210.351 98.5156 211.517 98.5156 213.034V213.711H92.0732C92.0967 214.648 92.3691 215.407 92.8906 215.987C93.418 216.562 94.0859 216.849 94.8945 216.849C95.4688 216.849 95.9551 216.731 96.3535 216.497C96.752 216.263 97.1006 215.952 97.3994 215.565L98.3926 216.339C97.5957 217.563 96.4004 218.176 94.8066 218.176ZM94.6045 209.65C93.9482 209.65 93.3975 209.891 92.9521 210.371C92.5068 210.846 92.2314 211.514 92.126 212.375H96.8896V212.252C96.8428 211.426 96.6201 210.787 96.2217 210.336C95.8232 209.879 95.2842 209.65 94.6045 209.65ZM108.175 218H106.549V213.939H102.181V218H100.546V208.49H102.181V212.612H106.549V208.49H108.175V218ZM117.86 209.809H114.67V218H113.044V209.809H109.915V208.49H117.86V209.809ZM118.643 213.157C118.643 212.226 118.824 211.388 119.188 210.644C119.557 209.899 120.066 209.325 120.717 208.921C121.373 208.517 122.12 208.314 122.958 208.314C124.253 208.314 125.299 208.763 126.096 209.659C126.898 210.556 127.3 211.748 127.3 213.236V213.351C127.3 214.276 127.121 215.108 126.764 215.847C126.412 216.579 125.905 217.15 125.243 217.561C124.587 217.971 123.831 218.176 122.976 218.176C121.687 218.176 120.641 217.728 119.838 216.831C119.041 215.935 118.643 214.748 118.643 213.271V213.157ZM120.277 213.351C120.277 214.405 120.521 215.252 121.007 215.891C121.499 216.529 122.155 216.849 122.976 216.849C123.802 216.849 124.458 216.526 124.944 215.882C125.431 215.231 125.674 214.323 125.674 213.157C125.674 212.114 125.425 211.271 124.927 210.626C124.435 209.976 123.778 209.65 122.958 209.65C122.155 209.65 121.508 209.97 121.016 210.608C120.523 211.247 120.277 212.161 120.277 213.351ZM129.488 218V208.49H133.197C134.463 208.49 135.433 208.713 136.106 209.158C136.786 209.598 137.126 210.245 137.126 211.101C137.126 211.54 136.994 211.938 136.73 212.296C136.467 212.647 136.077 212.917 135.562 213.104C136.136 213.239 136.596 213.503 136.941 213.896C137.293 214.288 137.469 214.757 137.469 215.302C137.469 216.175 137.146 216.843 136.502 217.306C135.863 217.769 134.958 218 133.786 218H129.488ZM131.114 213.825V216.69H133.804C134.483 216.69 134.99 216.564 135.324 216.312C135.664 216.061 135.834 215.706 135.834 215.249C135.834 214.3 135.137 213.825 133.742 213.825H131.114ZM131.114 212.524H133.215C134.738 212.524 135.5 212.079 135.5 211.188C135.5 210.298 134.779 209.838 133.338 209.809H131.114V212.524ZM143.656 213.157C143.656 212.226 143.838 211.388 144.201 210.644C144.57 209.899 145.08 209.325 145.73 208.921C146.387 208.517 147.134 208.314 147.972 208.314C149.267 208.314 150.312 208.763 151.109 209.659C151.912 210.556 152.313 211.748 152.313 213.236V213.351C152.313 214.276 152.135 215.108 151.777 215.847C151.426 216.579 150.919 217.15 150.257 217.561C149.601 217.971 148.845 218.176 147.989 218.176C146.7 218.176 145.654 217.728 144.852 216.831C144.055 215.935 143.656 214.748 143.656 213.271V213.157ZM145.291 213.351C145.291 214.405 145.534 215.252 146.021 215.891C146.513 216.529 147.169 216.849 147.989 216.849C148.815 216.849 149.472 216.526 149.958 215.882C150.444 215.231 150.688 214.323 150.688 213.157C150.688 212.114 150.438 211.271 149.94 210.626C149.448 209.976 148.792 209.65 147.972 209.65C147.169 209.65 146.521 209.97 146.029 210.608C145.537 211.247 145.291 212.161 145.291 213.351ZM154.001 213.421C154.001 211.833 154.309 210.585 154.924 209.677C155.539 208.769 156.383 208.314 157.455 208.314C157.953 208.314 158.39 208.399 158.765 208.569V204.5H160.391V208.622C160.801 208.417 161.281 208.314 161.832 208.314C162.91 208.314 163.757 208.769 164.372 209.677C164.987 210.585 165.295 211.895 165.295 213.605C165.295 215.006 164.987 216.119 164.372 216.945C163.763 217.771 162.922 218.185 161.85 218.185C161.281 218.185 160.795 218.091 160.391 217.903V221.656H158.765V217.93C158.378 218.1 157.936 218.185 157.438 218.185C156.371 218.185 155.53 217.771 154.915 216.945C154.306 216.119 154.001 214.988 154.001 213.553V213.421ZM163.669 213.421C163.669 212.226 163.464 211.3 163.054 210.644C162.644 209.981 162.078 209.65 161.357 209.65C160.988 209.65 160.666 209.709 160.391 209.826V216.708C160.654 216.808 160.982 216.857 161.375 216.857C162.102 216.857 162.664 216.576 163.062 216.014C163.467 215.451 163.669 214.587 163.669 213.421ZM155.627 213.605C155.627 214.672 155.817 215.48 156.198 216.031C156.579 216.582 157.127 216.857 157.842 216.857C158.182 216.857 158.489 216.805 158.765 216.699V209.8C158.519 209.7 158.217 209.65 157.859 209.65C157.145 209.65 156.594 209.97 156.207 210.608C155.82 211.247 155.627 212.246 155.627 213.605ZM166.982 213.157C166.982 212.226 167.164 211.388 167.527 210.644C167.896 209.899 168.406 209.325 169.057 208.921C169.713 208.517 170.46 208.314 171.298 208.314C172.593 208.314 173.639 208.763 174.436 209.659C175.238 210.556 175.64 211.748 175.64 213.236V213.351C175.64 214.276 175.461 215.108 175.104 215.847C174.752 216.579 174.245 217.15 173.583 217.561C172.927 217.971 172.171 218.176 171.315 218.176C170.026 218.176 168.98 217.728 168.178 216.831C167.381 215.935 166.982 214.748 166.982 213.271V213.157ZM168.617 213.351C168.617 214.405 168.86 215.252 169.347 215.891C169.839 216.529 170.495 216.849 171.315 216.849C172.142 216.849 172.798 216.526 173.284 215.882C173.771 215.231 174.014 214.323 174.014 213.157C174.014 212.114 173.765 211.271 173.267 210.626C172.774 209.976 172.118 209.65 171.298 209.65C170.495 209.65 169.848 209.97 169.355 210.608C168.863 211.247 168.617 212.161 168.617 213.351ZM185.712 213.351C185.712 214.798 185.381 215.964 184.719 216.849C184.057 217.733 183.16 218.176 182.029 218.176C180.875 218.176 179.967 217.81 179.305 217.077V221.656H177.679V208.49H179.164L179.243 209.545C179.905 208.725 180.825 208.314 182.003 208.314C183.146 208.314 184.048 208.745 184.71 209.606C185.378 210.468 185.712 211.666 185.712 213.201V213.351ZM184.086 213.166C184.086 212.094 183.857 211.247 183.4 210.626C182.943 210.005 182.316 209.694 181.52 209.694C180.535 209.694 179.797 210.131 179.305 211.004V215.548C179.791 216.415 180.535 216.849 181.537 216.849C182.316 216.849 182.935 216.541 183.392 215.926C183.854 215.305 184.086 214.385 184.086 213.166ZM193.262 215.847L196.496 208.49H198.526V218H196.9V211.083L193.824 218H192.699L189.562 210.934V218H187.936V208.49H190.045L193.262 215.847ZM208.941 208.49V218H207.307V209.835H204.072L203.879 213.395C203.773 215.029 203.498 216.198 203.053 216.901C202.613 217.604 201.913 217.971 200.952 218H200.302V216.567L200.768 216.532C201.295 216.474 201.673 216.169 201.901 215.618C202.13 215.067 202.276 214.048 202.341 212.56L202.517 208.49H208.941ZM218.82 208.49V218H217.186V214.3H214.733L212.492 218H210.734L213.125 214.054C212.516 213.831 212.047 213.488 211.719 213.025C211.396 212.557 211.235 212.012 211.235 211.391C211.235 210.523 211.561 209.826 212.211 209.299C212.861 208.766 213.731 208.496 214.821 208.49H218.82ZM212.87 211.408C212.87 211.871 213.028 212.246 213.345 212.533C213.661 212.814 214.08 212.958 214.602 212.964H217.186V209.809H214.848C214.244 209.809 213.764 209.958 213.406 210.257C213.049 210.55 212.87 210.934 212.87 211.408ZM225.377 218.176C224.088 218.176 223.039 217.754 222.23 216.91C221.422 216.061 221.018 214.927 221.018 213.509V213.21C221.018 212.267 221.196 211.426 221.554 210.688C221.917 209.943 222.421 209.363 223.065 208.947C223.716 208.525 224.419 208.314 225.175 208.314C226.411 208.314 227.372 208.722 228.058 209.536C228.743 210.351 229.086 211.517 229.086 213.034V213.711H222.644C222.667 214.648 222.939 215.407 223.461 215.987C223.988 216.562 224.656 216.849 225.465 216.849C226.039 216.849 226.525 216.731 226.924 216.497C227.322 216.263 227.671 215.952 227.97 215.565L228.963 216.339C228.166 217.563 226.971 218.176 225.377 218.176ZM225.175 209.65C224.519 209.65 223.968 209.891 223.522 210.371C223.077 210.846 222.802 211.514 222.696 212.375H227.46V212.252C227.413 211.426 227.19 210.787 226.792 210.336C226.394 209.879 225.854 209.65 225.175 209.65ZM236.451 215.847L239.686 208.49H241.716V218H240.09V211.083L237.014 218H235.889L232.751 210.934V218H231.125V208.49H233.234L236.451 215.847ZM62.4893 233.035C63.6846 233.035 64.6396 233.437 65.3545 234.239C66.0752 235.036 66.4355 236.088 66.4355 237.395V237.544C66.4355 238.44 66.2627 239.243 65.917 239.952C65.5713 240.655 65.0732 241.203 64.4229 241.596C63.7783 241.982 63.0342 242.176 62.1904 242.176C60.9131 242.176 59.8848 241.751 59.1055 240.901C58.3262 240.046 57.9365 238.9 57.9365 237.465V236.674C57.9365 234.676 58.3057 233.088 59.0439 231.91C59.7881 230.732 60.8838 230.015 62.3311 229.757C63.1514 229.61 63.7051 229.432 63.9922 229.221C64.2793 229.01 64.4229 228.72 64.4229 228.351H65.7588C65.7588 229.083 65.5918 229.654 65.2578 230.064C64.9297 230.475 64.4023 230.765 63.6758 230.935L62.4629 231.207C61.4961 231.436 60.7695 231.822 60.2832 232.367C59.8027 232.906 59.4893 233.627 59.3428 234.529C60.2041 233.533 61.2529 233.035 62.4893 233.035ZM62.1729 234.371C61.376 234.371 60.7432 234.641 60.2744 235.18C59.8057 235.713 59.5713 236.454 59.5713 237.403V237.544C59.5713 238.563 59.8057 239.372 60.2744 239.97C60.749 240.562 61.3877 240.857 62.1904 240.857C62.999 240.857 63.6377 240.559 64.1064 239.961C64.5752 239.363 64.8096 238.49 64.8096 237.342C64.8096 236.445 64.5723 235.728 64.0977 235.188C63.6289 234.644 62.9873 234.371 62.1729 234.371ZM72.21 242.176C70.9209 242.176 69.8721 241.754 69.0635 240.91C68.2549 240.061 67.8506 238.927 67.8506 237.509V237.21C67.8506 236.267 68.0293 235.426 68.3867 234.688C68.75 233.943 69.2539 233.363 69.8984 232.947C70.5488 232.525 71.252 232.314 72.0078 232.314C73.2441 232.314 74.2051 232.722 74.8906 233.536C75.5762 234.351 75.9189 235.517 75.9189 237.034V237.711H69.4766C69.5 238.648 69.7725 239.407 70.2939 239.987C70.8213 240.562 71.4893 240.849 72.2979 240.849C72.8721 240.849 73.3584 240.731 73.7568 240.497C74.1553 240.263 74.5039 239.952 74.8027 239.565L75.7959 240.339C74.999 241.563 73.8037 242.176 72.21 242.176ZM72.0078 233.65C71.3516 233.65 70.8008 233.891 70.3555 234.371C69.9102 234.846 69.6348 235.514 69.5293 236.375H74.293V236.252C74.2461 235.426 74.0234 234.787 73.625 234.336C73.2266 233.879 72.6875 233.65 72.0078 233.65ZM83.0381 235.092C83.0381 234.646 82.8682 234.295 82.5283 234.037C82.1885 233.773 81.7227 233.642 81.1309 233.642C80.5566 233.642 80.0762 233.791 79.6895 234.09C79.3086 234.389 79.1182 234.74 79.1182 235.145H77.501C77.501 234.318 77.8467 233.642 78.5381 233.114C79.2295 232.587 80.0938 232.323 81.1309 232.323C82.2441 232.323 83.1113 232.563 83.7324 233.044C84.3535 233.519 84.6641 234.198 84.6641 235.083C84.6641 235.511 84.5352 235.903 84.2773 236.261C84.0195 236.618 83.6533 236.902 83.1787 237.113C84.2861 237.488 84.8398 238.227 84.8398 239.328C84.8398 240.201 84.5029 240.893 83.8291 241.402C83.1553 241.912 82.2559 242.167 81.1309 242.167C80.0352 242.167 79.1299 241.9 78.415 241.367C77.7061 240.828 77.3516 240.102 77.3516 239.188H78.9688C78.9688 239.65 79.1738 240.049 79.584 240.383C80 240.711 80.5156 240.875 81.1309 240.875C81.752 240.875 82.2529 240.731 82.6338 240.444C83.0146 240.157 83.2051 239.785 83.2051 239.328C83.2051 238.795 83.0439 238.414 82.7217 238.186C82.4053 237.951 81.9102 237.834 81.2363 237.834H79.6104V236.463H81.377C82.4844 236.434 83.0381 235.977 83.0381 235.092ZM91.5635 242V232.49H95.2725C96.5381 232.49 97.5078 232.713 98.1816 233.158C98.8613 233.598 99.2012 234.245 99.2012 235.101C99.2012 235.54 99.0693 235.938 98.8057 236.296C98.542 236.647 98.1523 236.917 97.6367 237.104C98.2109 237.239 98.6709 237.503 99.0166 237.896C99.3682 238.288 99.5439 238.757 99.5439 239.302C99.5439 240.175 99.2217 240.843 98.5771 241.306C97.9385 241.769 97.0332 242 95.8613 242H91.5635ZM93.1895 237.825V240.69H95.8789C96.5586 240.69 97.0654 240.564 97.3994 240.312C97.7393 240.061 97.9092 239.706 97.9092 239.249C97.9092 238.3 97.2119 237.825 95.8174 237.825H93.1895ZM93.1895 236.524H95.29C96.8135 236.524 97.5752 236.079 97.5752 235.188C97.5752 234.298 96.8545 233.838 95.4131 233.809H93.1895V236.524ZM107.568 242C107.475 241.812 107.398 241.479 107.34 240.998C106.584 241.783 105.682 242.176 104.633 242.176C103.695 242.176 102.925 241.912 102.321 241.385C101.724 240.852 101.425 240.178 101.425 239.363C101.425 238.373 101.8 237.605 102.55 237.061C103.306 236.51 104.366 236.234 105.731 236.234H107.313V235.487C107.313 234.919 107.144 234.468 106.804 234.134C106.464 233.794 105.963 233.624 105.301 233.624C104.721 233.624 104.234 233.771 103.842 234.063C103.449 234.356 103.253 234.711 103.253 235.127H101.618C101.618 234.652 101.785 234.195 102.119 233.756C102.459 233.311 102.916 232.959 103.49 232.701C104.07 232.443 104.706 232.314 105.397 232.314C106.493 232.314 107.352 232.59 107.973 233.141C108.594 233.686 108.916 234.438 108.939 235.399V239.776C108.939 240.649 109.051 241.344 109.273 241.859V242H107.568ZM104.87 240.761C105.38 240.761 105.863 240.629 106.32 240.365C106.777 240.102 107.108 239.759 107.313 239.337V237.386H106.039C104.047 237.386 103.051 237.969 103.051 239.135C103.051 239.645 103.221 240.043 103.561 240.33C103.9 240.617 104.337 240.761 104.87 240.761ZM113.264 232.49V240.673H116.744V232.49H118.37V240.673H121.842V232.49H123.477V242H111.629V232.49H113.264ZM129.989 242.176C128.7 242.176 127.651 241.754 126.843 240.91C126.034 240.061 125.63 238.927 125.63 237.509V237.21C125.63 236.267 125.809 235.426 126.166 234.688C126.529 233.943 127.033 233.363 127.678 232.947C128.328 232.525 129.031 232.314 129.787 232.314C131.023 232.314 131.984 232.722 132.67 233.536C133.355 234.351 133.698 235.517 133.698 237.034V237.711H127.256C127.279 238.648 127.552 239.407 128.073 239.987C128.601 240.562 129.269 240.849 130.077 240.849C130.651 240.849 131.138 240.731 131.536 240.497C131.935 240.263 132.283 239.952 132.582 239.565L133.575 240.339C132.778 241.563 131.583 242.176 129.989 242.176ZM129.787 233.65C129.131 233.65 128.58 233.891 128.135 234.371C127.689 234.846 127.414 235.514 127.309 236.375H132.072V236.252C132.025 235.426 131.803 234.787 131.404 234.336C131.006 233.879 130.467 233.65 129.787 233.65ZM141.731 233.835H137.346V242H135.711V232.49H141.731V233.835ZM142.54 237.157C142.54 236.226 142.722 235.388 143.085 234.644C143.454 233.899 143.964 233.325 144.614 232.921C145.271 232.517 146.018 232.314 146.855 232.314C148.15 232.314 149.196 232.763 149.993 233.659C150.796 234.556 151.197 235.748 151.197 237.236V237.351C151.197 238.276 151.019 239.108 150.661 239.847C150.31 240.579 149.803 241.15 149.141 241.561C148.484 241.971 147.729 242.176 146.873 242.176C145.584 242.176 144.538 241.728 143.735 240.831C142.938 239.935 142.54 238.748 142.54 237.271V237.157ZM144.175 237.351C144.175 238.405 144.418 239.252 144.904 239.891C145.396 240.529 146.053 240.849 146.873 240.849C147.699 240.849 148.355 240.526 148.842 239.882C149.328 239.231 149.571 238.323 149.571 237.157C149.571 236.114 149.322 235.271 148.824 234.626C148.332 233.976 147.676 233.65 146.855 233.65C146.053 233.65 145.405 233.97 144.913 234.608C144.421 235.247 144.175 236.161 144.175 237.351ZM160.812 239.618L163.027 232.49H164.768L160.944 243.468C160.353 245.05 159.412 245.841 158.123 245.841L157.815 245.814L157.209 245.7V244.382L157.648 244.417C158.199 244.417 158.627 244.306 158.932 244.083C159.242 243.86 159.497 243.453 159.696 242.861L160.057 241.895L156.664 232.49H158.439L160.812 239.618ZM173.407 242H171.772V238.555C171.058 238.742 170.325 238.836 169.575 238.836C168.386 238.836 167.478 238.531 166.851 237.922C166.229 237.312 165.913 236.445 165.901 235.32V232.481H167.527V235.373C167.557 236.791 168.239 237.5 169.575 237.5C170.325 237.5 171.058 237.406 171.772 237.219V232.49H173.407V242ZM181.889 242C181.795 241.812 181.719 241.479 181.66 240.998C180.904 241.783 180.002 242.176 178.953 242.176C178.016 242.176 177.245 241.912 176.642 241.385C176.044 240.852 175.745 240.178 175.745 239.363C175.745 238.373 176.12 237.605 176.87 237.061C177.626 236.51 178.687 236.234 180.052 236.234H181.634V235.487C181.634 234.919 181.464 234.468 181.124 234.134C180.784 233.794 180.283 233.624 179.621 233.624C179.041 233.624 178.555 233.771 178.162 234.063C177.77 234.356 177.573 234.711 177.573 235.127H175.938C175.938 234.652 176.105 234.195 176.439 233.756C176.779 233.311 177.236 232.959 177.811 232.701C178.391 232.443 179.026 232.314 179.718 232.314C180.813 232.314 181.672 232.59 182.293 233.141C182.914 233.686 183.236 234.438 183.26 235.399V239.776C183.26 240.649 183.371 241.344 183.594 241.859V242H181.889ZM179.19 240.761C179.7 240.761 180.184 240.629 180.641 240.365C181.098 240.102 181.429 239.759 181.634 239.337V237.386H180.359C178.367 237.386 177.371 237.969 177.371 239.135C177.371 239.645 177.541 240.043 177.881 240.33C178.221 240.617 178.657 240.761 179.19 240.761ZM189.623 240.849C190.203 240.849 190.71 240.673 191.144 240.321C191.577 239.97 191.817 239.53 191.864 239.003H193.402C193.373 239.548 193.186 240.066 192.84 240.559C192.494 241.051 192.031 241.443 191.451 241.736C190.877 242.029 190.268 242.176 189.623 242.176C188.328 242.176 187.297 241.745 186.529 240.884C185.768 240.017 185.387 238.833 185.387 237.333V237.061C185.387 236.135 185.557 235.312 185.896 234.591C186.236 233.87 186.723 233.311 187.355 232.912C187.994 232.514 188.747 232.314 189.614 232.314C190.681 232.314 191.565 232.634 192.269 233.272C192.978 233.911 193.355 234.74 193.402 235.76H191.864C191.817 235.145 191.583 234.641 191.161 234.248C190.745 233.85 190.229 233.65 189.614 233.65C188.788 233.65 188.146 233.949 187.689 234.547C187.238 235.139 187.013 235.997 187.013 237.122V237.43C187.013 238.525 187.238 239.369 187.689 239.961C188.141 240.553 188.785 240.849 189.623 240.849ZM202.297 233.809H199.106V242H197.48V233.809H194.352V232.49H202.297V233.809ZM210.031 232.49H211.657V242H210.031V235.065L205.646 242H204.02V232.49H205.646V239.434L210.031 232.49ZM221.536 232.49V242H219.901V238.3H217.449L215.208 242H213.45L215.841 238.054C215.231 237.831 214.763 237.488 214.435 237.025C214.112 236.557 213.951 236.012 213.951 235.391C213.951 234.523 214.276 233.826 214.927 233.299C215.577 232.766 216.447 232.496 217.537 232.49H221.536ZM215.586 235.408C215.586 235.871 215.744 236.246 216.061 236.533C216.377 236.814 216.796 236.958 217.317 236.964H219.901V233.809H217.563C216.96 233.809 216.479 233.958 216.122 234.257C215.765 234.55 215.586 234.934 215.586 235.408Z" fill="#3D4B66"/>
<rect x="0.5" y="0.5" width="279" height="299" rx="3.5" stroke="#DDDFE0"/>
</svg>
