<svg width="280" height="300" viewBox="0 0 280 300" fill="none" xmlns="http://www.w3.org/2000/svg">
<rect x="0.5" y="0.5" width="279" height="299" rx="3.5" fill="white"/>
<g clip-path="url(#clip0)">
<path d="M155.895 108.282C153.142 110.04 150.081 111.356 146.81 112.127L140 122.726L133.19 112.127C129.919 111.356 126.857 110.04 124.105 108.282H116.463L104.107 132H163.537L175.893 108.282H155.895Z" fill="#CFD7FF"/>
<path d="M140 52C122.811 52 108.827 66.0137 108.827 83.2392C108.827 90.3198 111.257 97.2555 115.668 102.768C119.879 108.031 125.734 111.822 132.211 113.495L137.139 121.164H134.404C133.541 121.164 132.842 121.863 132.842 122.726C132.842 123.589 133.541 124.289 134.404 124.289H145.596C146.459 124.289 147.158 123.589 147.158 122.726C147.158 121.863 146.459 121.164 145.596 121.164H142.861L147.789 113.495C154.266 111.822 160.121 108.031 164.332 102.768C168.743 97.2555 171.173 90.3198 171.173 83.2392C171.173 66.0137 157.189 52 140 52V52ZM146.452 110.606C146.058 110.699 145.715 110.942 145.496 111.282L140 119.836L134.504 111.282C134.285 110.942 133.943 110.699 133.548 110.606C120.833 107.607 111.952 96.3527 111.952 83.2392C111.952 67.737 124.535 55.125 140 55.125C155.466 55.125 168.048 67.737 168.048 83.2392C168.048 96.3527 159.167 107.607 146.452 110.606Z" fill="#1939DE"/>
<path d="M140 61.3893C127.977 61.3893 118.196 71.1912 118.196 83.2393C118.196 95.2874 127.977 105.089 140 105.089C152.023 105.089 161.805 95.2876 161.805 83.2393C161.805 71.191 152.023 61.3893 140 61.3893ZM140 101.964C129.7 101.964 121.321 93.5643 121.321 83.2393C121.321 72.9143 129.7 64.5143 140 64.5143C150.3 64.5143 158.68 72.9143 158.68 83.2393C158.68 93.5643 150.3 101.964 140 101.964Z" fill="#00B956"/>
</g>
<path d="M61.2324 188.99V194H59.5449V181.203H64.2646C65.665 181.203 66.7607 181.561 67.5518 182.275C68.3486 182.99 68.7471 183.937 68.7471 185.114C68.7471 186.356 68.3574 187.314 67.5781 187.988C66.8047 188.656 65.6943 188.99 64.2471 188.99H61.2324ZM61.2324 187.61H64.2646C65.167 187.61 65.8584 187.399 66.3389 186.978C66.8193 186.55 67.0596 185.935 67.0596 185.132C67.0596 184.37 66.8193 183.761 66.3389 183.304C65.8584 182.847 65.1992 182.609 64.3613 182.592H61.2324V187.61ZM76.4111 194C76.3174 193.812 76.2412 193.479 76.1826 192.998C75.4268 193.783 74.5244 194.176 73.4756 194.176C72.5381 194.176 71.7676 193.912 71.1641 193.385C70.5664 192.852 70.2676 192.178 70.2676 191.363C70.2676 190.373 70.6426 189.605 71.3926 189.061C72.1484 188.51 73.209 188.234 74.5742 188.234H76.1562V187.487C76.1562 186.919 75.9863 186.468 75.6465 186.134C75.3066 185.794 74.8057 185.624 74.1436 185.624C73.5635 185.624 73.0771 185.771 72.6846 186.063C72.292 186.356 72.0957 186.711 72.0957 187.127H70.4609C70.4609 186.652 70.6279 186.195 70.9619 185.756C71.3018 185.311 71.7588 184.959 72.333 184.701C72.9131 184.443 73.5488 184.314 74.2402 184.314C75.3359 184.314 76.1943 184.59 76.8154 185.141C77.4365 185.686 77.7588 186.438 77.7822 187.399V191.776C77.7822 192.649 77.8936 193.344 78.1162 193.859V194H76.4111ZM73.7129 192.761C74.2227 192.761 74.7061 192.629 75.1631 192.365C75.6201 192.102 75.9512 191.759 76.1562 191.337V189.386H74.8818C72.8896 189.386 71.8936 189.969 71.8936 191.135C71.8936 191.645 72.0635 192.043 72.4033 192.33C72.7432 192.617 73.1797 192.761 73.7129 192.761ZM84.5059 185.035C85.7012 185.035 86.6562 185.437 87.3711 186.239C88.0918 187.036 88.4521 188.088 88.4521 189.395V189.544C88.4521 190.44 88.2793 191.243 87.9336 191.952C87.5879 192.655 87.0898 193.203 86.4395 193.596C85.7949 193.982 85.0508 194.176 84.207 194.176C82.9297 194.176 81.9014 193.751 81.1221 192.901C80.3428 192.046 79.9531 190.9 79.9531 189.465V188.674C79.9531 186.676 80.3223 185.088 81.0605 183.91C81.8047 182.732 82.9004 182.015 84.3477 181.757C85.168 181.61 85.7217 181.432 86.0088 181.221C86.2959 181.01 86.4395 180.72 86.4395 180.351H87.7754C87.7754 181.083 87.6084 181.654 87.2744 182.064C86.9463 182.475 86.4189 182.765 85.6924 182.935L84.4795 183.207C83.5127 183.436 82.7861 183.822 82.2998 184.367C81.8193 184.906 81.5059 185.627 81.3594 186.529C82.2207 185.533 83.2695 185.035 84.5059 185.035ZM84.1895 186.371C83.3926 186.371 82.7598 186.641 82.291 187.18C81.8223 187.713 81.5879 188.454 81.5879 189.403V189.544C81.5879 190.563 81.8223 191.372 82.291 191.97C82.7656 192.562 83.4043 192.857 84.207 192.857C85.0156 192.857 85.6543 192.559 86.123 191.961C86.5918 191.363 86.8262 190.49 86.8262 189.342C86.8262 188.445 86.5889 187.728 86.1143 187.188C85.6455 186.644 85.0039 186.371 84.1895 186.371ZM89.8496 189.157C89.8496 188.226 90.0312 187.388 90.3945 186.644C90.7637 185.899 91.2734 185.325 91.9238 184.921C92.5801 184.517 93.3271 184.314 94.165 184.314C95.46 184.314 96.5059 184.763 97.3027 185.659C98.1055 186.556 98.5068 187.748 98.5068 189.236V189.351C98.5068 190.276 98.3281 191.108 97.9707 191.847C97.6191 192.579 97.1123 193.15 96.4502 193.561C95.7939 193.971 95.0381 194.176 94.1826 194.176C92.8936 194.176 91.8477 193.728 91.0449 192.831C90.248 191.935 89.8496 190.748 89.8496 189.271V189.157ZM91.4844 189.351C91.4844 190.405 91.7275 191.252 92.2139 191.891C92.7061 192.529 93.3623 192.849 94.1826 192.849C95.0088 192.849 95.665 192.526 96.1514 191.882C96.6377 191.231 96.8809 190.323 96.8809 189.157C96.8809 188.114 96.6318 187.271 96.1338 186.626C95.6416 185.976 94.9854 185.65 94.165 185.65C93.3623 185.65 92.7148 185.97 92.2227 186.608C91.7305 187.247 91.4844 188.161 91.4844 189.351ZM107.419 185.809H104.229V194H102.603V185.809H99.4736V184.49H107.419V185.809ZM114.731 194C114.638 193.812 114.562 193.479 114.503 192.998C113.747 193.783 112.845 194.176 111.796 194.176C110.858 194.176 110.088 193.912 109.484 193.385C108.887 192.852 108.588 192.178 108.588 191.363C108.588 190.373 108.963 189.605 109.713 189.061C110.469 188.51 111.529 188.234 112.895 188.234H114.477V187.487C114.477 186.919 114.307 186.468 113.967 186.134C113.627 185.794 113.126 185.624 112.464 185.624C111.884 185.624 111.397 185.771 111.005 186.063C110.612 186.356 110.416 186.711 110.416 187.127H108.781C108.781 186.652 108.948 186.195 109.282 185.756C109.622 185.311 110.079 184.959 110.653 184.701C111.233 184.443 111.869 184.314 112.561 184.314C113.656 184.314 114.515 184.59 115.136 185.141C115.757 185.686 116.079 186.438 116.103 187.399V191.776C116.103 192.649 116.214 193.344 116.437 193.859V194H114.731ZM112.033 192.761C112.543 192.761 113.026 192.629 113.483 192.365C113.94 192.102 114.271 191.759 114.477 191.337V189.386H113.202C111.21 189.386 110.214 189.969 110.214 191.135C110.214 191.645 110.384 192.043 110.724 192.33C111.063 192.617 111.5 192.761 112.033 192.761ZM122.598 194.176C121.309 194.176 120.26 193.754 119.451 192.91C118.643 192.061 118.238 190.927 118.238 189.509V189.21C118.238 188.267 118.417 187.426 118.774 186.688C119.138 185.943 119.642 185.363 120.286 184.947C120.937 184.525 121.64 184.314 122.396 184.314C123.632 184.314 124.593 184.722 125.278 185.536C125.964 186.351 126.307 187.517 126.307 189.034V189.711H119.864C119.888 190.648 120.16 191.407 120.682 191.987C121.209 192.562 121.877 192.849 122.686 192.849C123.26 192.849 123.746 192.731 124.145 192.497C124.543 192.263 124.892 191.952 125.19 191.565L126.184 192.339C125.387 193.563 124.191 194.176 122.598 194.176ZM122.396 185.65C121.739 185.65 121.188 185.891 120.743 186.371C120.298 186.846 120.022 187.514 119.917 188.375H124.681V188.252C124.634 187.426 124.411 186.787 124.013 186.336C123.614 185.879 123.075 185.65 122.396 185.65ZM133.672 191.847L136.906 184.49H138.937V194H137.311V187.083L134.234 194H133.109L129.972 186.934V194H128.346V184.49H130.455L133.672 191.847ZM149.835 192.849C150.415 192.849 150.922 192.673 151.355 192.321C151.789 191.97 152.029 191.53 152.076 191.003H153.614C153.585 191.548 153.397 192.066 153.052 192.559C152.706 193.051 152.243 193.443 151.663 193.736C151.089 194.029 150.479 194.176 149.835 194.176C148.54 194.176 147.509 193.745 146.741 192.884C145.979 192.017 145.599 190.833 145.599 189.333V189.061C145.599 188.135 145.769 187.312 146.108 186.591C146.448 185.87 146.935 185.311 147.567 184.912C148.206 184.514 148.959 184.314 149.826 184.314C150.893 184.314 151.777 184.634 152.48 185.272C153.189 185.911 153.567 186.74 153.614 187.76H152.076C152.029 187.145 151.795 186.641 151.373 186.248C150.957 185.85 150.441 185.65 149.826 185.65C149 185.65 148.358 185.949 147.901 186.547C147.45 187.139 147.225 187.997 147.225 189.122V189.43C147.225 190.525 147.45 191.369 147.901 191.961C148.353 192.553 148.997 192.849 149.835 192.849ZM155.012 189.157C155.012 188.226 155.193 187.388 155.557 186.644C155.926 185.899 156.436 185.325 157.086 184.921C157.742 184.517 158.489 184.314 159.327 184.314C160.622 184.314 161.668 184.763 162.465 185.659C163.268 186.556 163.669 187.748 163.669 189.236V189.351C163.669 190.276 163.49 191.108 163.133 191.847C162.781 192.579 162.274 193.15 161.612 193.561C160.956 193.971 160.2 194.176 159.345 194.176C158.056 194.176 157.01 193.728 156.207 192.831C155.41 191.935 155.012 190.748 155.012 189.271V189.157ZM156.646 189.351C156.646 190.405 156.89 191.252 157.376 191.891C157.868 192.529 158.524 192.849 159.345 192.849C160.171 192.849 160.827 192.526 161.313 191.882C161.8 191.231 162.043 190.323 162.043 189.157C162.043 188.114 161.794 187.271 161.296 186.626C160.804 185.976 160.147 185.65 159.327 185.65C158.524 185.65 157.877 185.97 157.385 186.608C156.893 187.247 156.646 188.161 156.646 189.351ZM170.322 194V184.49H174.031C175.297 184.49 176.267 184.713 176.94 185.158C177.62 185.598 177.96 186.245 177.96 187.101C177.96 187.54 177.828 187.938 177.564 188.296C177.301 188.647 176.911 188.917 176.396 189.104C176.97 189.239 177.43 189.503 177.775 189.896C178.127 190.288 178.303 190.757 178.303 191.302C178.303 192.175 177.98 192.843 177.336 193.306C176.697 193.769 175.792 194 174.62 194H170.322ZM171.948 189.825V192.69H174.638C175.317 192.69 175.824 192.564 176.158 192.312C176.498 192.061 176.668 191.706 176.668 191.249C176.668 190.3 175.971 189.825 174.576 189.825H171.948ZM171.948 188.524H174.049C175.572 188.524 176.334 188.079 176.334 187.188C176.334 186.298 175.613 185.838 174.172 185.809H171.948V188.524ZM184.271 192.849C184.851 192.849 185.357 192.673 185.791 192.321C186.225 191.97 186.465 191.53 186.512 191.003H188.05C188.021 191.548 187.833 192.066 187.487 192.559C187.142 193.051 186.679 193.443 186.099 193.736C185.524 194.029 184.915 194.176 184.271 194.176C182.976 194.176 181.944 193.745 181.177 192.884C180.415 192.017 180.034 190.833 180.034 189.333V189.061C180.034 188.135 180.204 187.312 180.544 186.591C180.884 185.87 181.37 185.311 182.003 184.912C182.642 184.514 183.395 184.314 184.262 184.314C185.328 184.314 186.213 184.634 186.916 185.272C187.625 185.911 188.003 186.74 188.05 187.76H186.512C186.465 187.145 186.23 186.641 185.809 186.248C185.393 185.85 184.877 185.65 184.262 185.65C183.436 185.65 182.794 185.949 182.337 186.547C181.886 187.139 181.66 187.997 181.66 189.122V189.43C181.66 190.525 181.886 191.369 182.337 191.961C182.788 192.553 183.433 192.849 184.271 192.849ZM193.824 194.176C192.535 194.176 191.486 193.754 190.678 192.91C189.869 192.061 189.465 190.927 189.465 189.509V189.21C189.465 188.267 189.644 187.426 190.001 186.688C190.364 185.943 190.868 185.363 191.513 184.947C192.163 184.525 192.866 184.314 193.622 184.314C194.858 184.314 195.819 184.722 196.505 185.536C197.19 186.351 197.533 187.517 197.533 189.034V189.711H191.091C191.114 190.648 191.387 191.407 191.908 191.987C192.436 192.562 193.104 192.849 193.912 192.849C194.486 192.849 194.973 192.731 195.371 192.497C195.77 192.263 196.118 191.952 196.417 191.565L197.41 192.339C196.613 193.563 195.418 194.176 193.824 194.176ZM193.622 185.65C192.966 185.65 192.415 185.891 191.97 186.371C191.524 186.846 191.249 187.514 191.144 188.375H195.907V188.252C195.86 187.426 195.638 186.787 195.239 186.336C194.841 185.879 194.302 185.65 193.622 185.65ZM204.898 191.847L208.133 184.49H210.163V194H208.537V187.083L205.461 194H204.336L201.198 186.934V194H199.572V184.49H201.682L204.898 191.847ZM218.935 184.49H220.561V194H218.935V187.065L214.549 194H212.923V184.49H214.549V191.434L218.935 184.49ZM84.2598 213.351C84.2598 214.798 83.9287 215.964 83.2666 216.849C82.6045 217.733 81.708 218.176 80.5771 218.176C79.4229 218.176 78.5146 217.81 77.8525 217.077V221.656H76.2266V208.49H77.7119L77.791 209.545C78.4531 208.725 79.373 208.314 80.5508 208.314C81.6934 208.314 82.5957 208.745 83.2578 209.606C83.9258 210.468 84.2598 211.666 84.2598 213.201V213.351ZM82.6338 213.166C82.6338 212.094 82.4053 211.247 81.9482 210.626C81.4912 210.005 80.8643 209.694 80.0674 209.694C79.083 209.694 78.3447 210.131 77.8525 211.004V215.548C78.3389 216.415 79.083 216.849 80.085 216.849C80.8643 216.849 81.4824 216.541 81.9395 215.926C82.4023 215.305 82.6338 214.385 82.6338 213.166ZM90.2803 218.176C88.9912 218.176 87.9424 217.754 87.1338 216.91C86.3252 216.061 85.9209 214.927 85.9209 213.509V213.21C85.9209 212.267 86.0996 211.426 86.457 210.688C86.8203 209.943 87.3242 209.363 87.9688 208.947C88.6191 208.525 89.3223 208.314 90.0781 208.314C91.3145 208.314 92.2754 208.722 92.9609 209.536C93.6465 210.351 93.9893 211.517 93.9893 213.034V213.711H87.5469C87.5703 214.648 87.8428 215.407 88.3643 215.987C88.8916 216.562 89.5596 216.849 90.3682 216.849C90.9424 216.849 91.4287 216.731 91.8271 216.497C92.2256 216.263 92.5742 215.952 92.873 215.565L93.8662 216.339C93.0693 217.563 91.874 218.176 90.2803 218.176ZM90.0781 209.65C89.4219 209.65 88.8711 209.891 88.4258 210.371C87.9805 210.846 87.7051 211.514 87.5996 212.375H92.3633V212.252C92.3164 211.426 92.0938 210.787 91.6953 210.336C91.2969 209.879 90.7578 209.65 90.0781 209.65ZM102.022 209.835H97.6367V218H96.002V208.49H102.022V209.835ZM109.59 208.49H111.216V218H109.59V211.065L105.204 218H103.578V208.49H105.204V215.434L109.59 208.49ZM113.396 213.157C113.396 212.226 113.577 211.388 113.94 210.644C114.31 209.899 114.819 209.325 115.47 208.921C116.126 208.517 116.873 208.314 117.711 208.314C119.006 208.314 120.052 208.763 120.849 209.659C121.651 210.556 122.053 211.748 122.053 213.236V213.351C122.053 214.276 121.874 215.108 121.517 215.847C121.165 216.579 120.658 217.15 119.996 217.561C119.34 217.971 118.584 218.176 117.729 218.176C116.439 218.176 115.394 217.728 114.591 216.831C113.794 215.935 113.396 214.748 113.396 213.271V213.157ZM115.03 213.351C115.03 214.405 115.273 215.252 115.76 215.891C116.252 216.529 116.908 216.849 117.729 216.849C118.555 216.849 119.211 216.526 119.697 215.882C120.184 215.231 120.427 214.323 120.427 213.157C120.427 212.114 120.178 211.271 119.68 210.626C119.188 209.976 118.531 209.65 117.711 209.65C116.908 209.65 116.261 209.97 115.769 210.608C115.276 211.247 115.03 212.161 115.03 213.351ZM131.861 218H130.235V213.939H125.867V218H124.232V208.49H125.867V212.612H130.235V208.49H131.861V218ZM140.352 218C140.258 217.812 140.182 217.479 140.123 216.998C139.367 217.783 138.465 218.176 137.416 218.176C136.479 218.176 135.708 217.912 135.104 217.385C134.507 216.852 134.208 216.178 134.208 215.363C134.208 214.373 134.583 213.605 135.333 213.061C136.089 212.51 137.149 212.234 138.515 212.234H140.097V211.487C140.097 210.919 139.927 210.468 139.587 210.134C139.247 209.794 138.746 209.624 138.084 209.624C137.504 209.624 137.018 209.771 136.625 210.063C136.232 210.356 136.036 210.711 136.036 211.127H134.401C134.401 210.652 134.568 210.195 134.902 209.756C135.242 209.311 135.699 208.959 136.273 208.701C136.854 208.443 137.489 208.314 138.181 208.314C139.276 208.314 140.135 208.59 140.756 209.141C141.377 209.686 141.699 210.438 141.723 211.399V215.776C141.723 216.649 141.834 217.344 142.057 217.859V218H140.352ZM137.653 216.761C138.163 216.761 138.646 216.629 139.104 216.365C139.561 216.102 139.892 215.759 140.097 215.337V213.386H138.822C136.83 213.386 135.834 213.969 135.834 215.135C135.834 215.645 136.004 216.043 136.344 216.33C136.684 216.617 137.12 216.761 137.653 216.761ZM149.747 215.847L152.981 208.49H155.012V218H153.386V211.083L150.31 218H149.185L146.047 210.934V218H144.421V208.49H146.53L149.747 215.847ZM163.783 208.49H165.409V218H163.783V211.065L159.397 218H157.771V208.49H159.397V215.434L163.783 208.49ZM167.967 220.549L167.044 219.916C167.595 219.148 167.882 218.357 167.905 217.543V216.075H169.496V217.35C169.496 217.941 169.35 218.533 169.057 219.125C168.77 219.717 168.406 220.191 167.967 220.549ZM176.167 218V208.49H179.876C181.142 208.49 182.111 208.713 182.785 209.158C183.465 209.598 183.805 210.245 183.805 211.101C183.805 211.54 183.673 211.938 183.409 212.296C183.146 212.647 182.756 212.917 182.24 213.104C182.814 213.239 183.274 213.503 183.62 213.896C183.972 214.288 184.147 214.757 184.147 215.302C184.147 216.175 183.825 216.843 183.181 217.306C182.542 217.769 181.637 218 180.465 218H176.167ZM177.793 213.825V216.69H180.482C181.162 216.69 181.669 216.564 182.003 216.312C182.343 216.061 182.513 215.706 182.513 215.249C182.513 214.3 181.815 213.825 180.421 213.825H177.793ZM177.793 212.524H179.894C181.417 212.524 182.179 212.079 182.179 211.188C182.179 210.298 181.458 209.838 180.017 209.809H177.793V212.524ZM194.07 218H192.444V213.939H188.076V218H186.441V208.49H188.076V212.612H192.444V208.49H194.07V218ZM200.636 218.176C199.347 218.176 198.298 217.754 197.489 216.91C196.681 216.061 196.276 214.927 196.276 213.509V213.21C196.276 212.267 196.455 211.426 196.812 210.688C197.176 209.943 197.68 209.363 198.324 208.947C198.975 208.525 199.678 208.314 200.434 208.314C201.67 208.314 202.631 208.722 203.316 209.536C204.002 210.351 204.345 211.517 204.345 213.034V213.711H197.902C197.926 214.648 198.198 215.407 198.72 215.987C199.247 216.562 199.915 216.849 200.724 216.849C201.298 216.849 201.784 216.731 202.183 216.497C202.581 216.263 202.93 215.952 203.229 215.565L204.222 216.339C203.425 217.563 202.229 218.176 200.636 218.176ZM200.434 209.65C199.777 209.65 199.227 209.891 198.781 210.371C198.336 210.846 198.061 211.514 197.955 212.375H202.719V212.252C202.672 211.426 202.449 210.787 202.051 210.336C201.652 209.879 201.113 209.65 200.434 209.65ZM90.7109 235.092C90.7109 234.646 90.541 234.295 90.2012 234.037C89.8613 233.773 89.3955 233.642 88.8037 233.642C88.2295 233.642 87.749 233.791 87.3623 234.09C86.9814 234.389 86.791 234.74 86.791 235.145H85.1738C85.1738 234.318 85.5195 233.642 86.2109 233.114C86.9023 232.587 87.7666 232.323 88.8037 232.323C89.917 232.323 90.7842 232.563 91.4053 233.044C92.0264 233.519 92.3369 234.198 92.3369 235.083C92.3369 235.511 92.208 235.903 91.9502 236.261C91.6924 236.618 91.3262 236.902 90.8516 237.113C91.959 237.488 92.5127 238.227 92.5127 239.328C92.5127 240.201 92.1758 240.893 91.502 241.402C90.8281 241.912 89.9287 242.167 88.8037 242.167C87.708 242.167 86.8027 241.9 86.0879 241.367C85.3789 240.828 85.0244 240.102 85.0244 239.188H86.6416C86.6416 239.65 86.8467 240.049 87.2568 240.383C87.6729 240.711 88.1885 240.875 88.8037 240.875C89.4248 240.875 89.9258 240.731 90.3066 240.444C90.6875 240.157 90.8779 239.785 90.8779 239.328C90.8779 238.795 90.7168 238.414 90.3945 238.186C90.0781 237.951 89.583 237.834 88.9092 237.834H87.2832V236.463H89.0498C90.1572 236.434 90.7109 235.977 90.7109 235.092ZM100.493 242C100.399 241.812 100.323 241.479 100.265 240.998C99.5088 241.783 98.6064 242.176 97.5576 242.176C96.6201 242.176 95.8496 241.912 95.2461 241.385C94.6484 240.852 94.3496 240.178 94.3496 239.363C94.3496 238.373 94.7246 237.605 95.4746 237.061C96.2305 236.51 97.291 236.234 98.6562 236.234H100.238V235.487C100.238 234.919 100.068 234.468 99.7285 234.134C99.3887 233.794 98.8877 233.624 98.2256 233.624C97.6455 233.624 97.1592 233.771 96.7666 234.063C96.374 234.356 96.1777 234.711 96.1777 235.127H94.543C94.543 234.652 94.71 234.195 95.0439 233.756C95.3838 233.311 95.8408 232.959 96.415 232.701C96.9951 232.443 97.6309 232.314 98.3223 232.314C99.418 232.314 100.276 232.59 100.897 233.141C101.519 233.686 101.841 234.438 101.864 235.399V239.776C101.864 240.649 101.976 241.344 102.198 241.859V242H100.493ZM97.7949 240.761C98.3047 240.761 98.7881 240.629 99.2451 240.365C99.7021 240.102 100.033 239.759 100.238 239.337V237.386H98.9639C96.9717 237.386 95.9756 237.969 95.9756 239.135C95.9756 239.645 96.1455 240.043 96.4854 240.33C96.8252 240.617 97.2617 240.761 97.7949 240.761ZM104.562 242V232.49H108.271C109.537 232.49 110.507 232.713 111.181 233.158C111.86 233.598 112.2 234.245 112.2 235.101C112.2 235.54 112.068 235.938 111.805 236.296C111.541 236.647 111.151 236.917 110.636 237.104C111.21 237.239 111.67 237.503 112.016 237.896C112.367 238.288 112.543 238.757 112.543 239.302C112.543 240.175 112.221 240.843 111.576 241.306C110.938 241.769 110.032 242 108.86 242H104.562ZM106.188 237.825V240.69H108.878C109.558 240.69 110.064 240.564 110.398 240.312C110.738 240.061 110.908 239.706 110.908 239.249C110.908 238.3 110.211 237.825 108.816 237.825H106.188ZM106.188 236.524H108.289C109.812 236.524 110.574 236.079 110.574 235.188C110.574 234.298 109.854 233.838 108.412 233.809H106.188V236.524ZM120.849 232.49H122.475V242H120.849V235.065L116.463 242H114.837V232.49H116.463V239.434L120.849 232.49ZM128.899 240.849C129.479 240.849 129.986 240.673 130.42 240.321C130.854 239.97 131.094 239.53 131.141 239.003H132.679C132.649 239.548 132.462 240.066 132.116 240.559C131.771 241.051 131.308 241.443 130.728 241.736C130.153 242.029 129.544 242.176 128.899 242.176C127.604 242.176 126.573 241.745 125.806 240.884C125.044 240.017 124.663 238.833 124.663 237.333V237.061C124.663 236.135 124.833 235.312 125.173 234.591C125.513 233.87 125.999 233.311 126.632 232.912C127.271 232.514 128.023 232.314 128.891 232.314C129.957 232.314 130.842 232.634 131.545 233.272C132.254 233.911 132.632 234.74 132.679 235.76H131.141C131.094 235.145 130.859 234.641 130.438 234.248C130.021 233.85 129.506 233.65 128.891 233.65C128.064 233.65 127.423 233.949 126.966 234.547C126.515 235.139 126.289 235.997 126.289 237.122V237.43C126.289 238.525 126.515 239.369 126.966 239.961C127.417 240.553 128.062 240.849 128.899 240.849ZM140.659 232.49H142.285V242H140.659V235.065L136.273 242H134.647V232.49H136.273V239.434L140.659 232.49ZM150.371 239.847L153.605 232.49H155.636V242H154.01V235.083L150.934 242H149.809L146.671 234.934V242H145.045V232.49H147.154L150.371 239.847ZM157.824 237.157C157.824 236.226 158.006 235.388 158.369 234.644C158.738 233.899 159.248 233.325 159.898 232.921C160.555 232.517 161.302 232.314 162.14 232.314C163.435 232.314 164.48 232.763 165.277 233.659C166.08 234.556 166.481 235.748 166.481 237.236V237.351C166.481 238.276 166.303 239.108 165.945 239.847C165.594 240.579 165.087 241.15 164.425 241.561C163.769 241.971 163.013 242.176 162.157 242.176C160.868 242.176 159.822 241.728 159.02 240.831C158.223 239.935 157.824 238.748 157.824 237.271V237.157ZM159.459 237.351C159.459 238.405 159.702 239.252 160.188 239.891C160.681 240.529 161.337 240.849 162.157 240.849C162.983 240.849 163.64 240.526 164.126 239.882C164.612 239.231 164.855 238.323 164.855 237.157C164.855 236.114 164.606 235.271 164.108 234.626C163.616 233.976 162.96 233.65 162.14 233.65C161.337 233.65 160.689 233.97 160.197 234.608C159.705 235.247 159.459 236.161 159.459 237.351ZM172.335 240.849C172.915 240.849 173.422 240.673 173.855 240.321C174.289 239.97 174.529 239.53 174.576 239.003H176.114C176.085 239.548 175.897 240.066 175.552 240.559C175.206 241.051 174.743 241.443 174.163 241.736C173.589 242.029 172.979 242.176 172.335 242.176C171.04 242.176 170.009 241.745 169.241 240.884C168.479 240.017 168.099 238.833 168.099 237.333V237.061C168.099 236.135 168.269 235.312 168.608 234.591C168.948 233.87 169.435 233.311 170.067 232.912C170.706 232.514 171.459 232.314 172.326 232.314C173.393 232.314 174.277 232.634 174.98 233.272C175.689 233.911 176.067 234.74 176.114 235.76H174.576C174.529 235.145 174.295 234.641 173.873 234.248C173.457 233.85 172.941 233.65 172.326 233.65C171.5 233.65 170.858 233.949 170.401 234.547C169.95 235.139 169.725 235.997 169.725 237.122V237.43C169.725 238.525 169.95 239.369 170.401 239.961C170.853 240.553 171.497 240.849 172.335 240.849ZM185.009 233.809H181.818V242H180.192V233.809H177.063V232.49H185.009V233.809ZM192.743 232.49H194.369V242H192.743V235.065L188.357 242H186.731V232.49H188.357V239.434L192.743 232.49ZM67.1475 261.157C67.1475 260.226 67.3291 259.388 67.6924 258.644C68.0615 257.899 68.5713 257.325 69.2217 256.921C69.8779 256.517 70.625 256.314 71.4629 256.314C72.7578 256.314 73.8037 256.763 74.6006 257.659C75.4033 258.556 75.8047 259.748 75.8047 261.236V261.351C75.8047 262.276 75.626 263.108 75.2686 263.847C74.917 264.579 74.4102 265.15 73.748 265.561C73.0918 265.971 72.3359 266.176 71.4805 266.176C70.1914 266.176 69.1455 265.728 68.3428 264.831C67.5459 263.935 67.1475 262.748 67.1475 261.271V261.157ZM68.7822 261.351C68.7822 262.405 69.0254 263.252 69.5117 263.891C70.0039 264.529 70.6602 264.849 71.4805 264.849C72.3066 264.849 72.9629 264.526 73.4492 263.882C73.9355 263.231 74.1787 262.323 74.1787 261.157C74.1787 260.114 73.9297 259.271 73.4316 258.626C72.9395 257.976 72.2832 257.65 71.4629 257.65C70.6602 257.65 70.0127 257.97 69.5205 258.608C69.0283 259.247 68.7822 260.161 68.7822 261.351ZM84.7168 257.809H81.5264V266H79.9004V257.809H76.7715V256.49H84.7168V257.809ZM98.7969 261.351C98.7969 262.798 98.4658 263.964 97.8037 264.849C97.1416 265.733 96.2451 266.176 95.1143 266.176C93.96 266.176 93.0518 265.81 92.3896 265.077V269.656H90.7637V256.49H92.249L92.3281 257.545C92.9902 256.725 93.9102 256.314 95.0879 256.314C96.2305 256.314 97.1328 256.745 97.7949 257.606C98.4629 258.468 98.7969 259.666 98.7969 261.201V261.351ZM97.1709 261.166C97.1709 260.094 96.9424 259.247 96.4854 258.626C96.0283 258.005 95.4014 257.694 94.6045 257.694C93.6201 257.694 92.8818 258.131 92.3896 259.004V263.548C92.876 264.415 93.6201 264.849 94.6221 264.849C95.4014 264.849 96.0195 264.541 96.4766 263.926C96.9395 263.305 97.1709 262.385 97.1709 261.166ZM106.742 266C106.648 265.812 106.572 265.479 106.514 264.998C105.758 265.783 104.855 266.176 103.807 266.176C102.869 266.176 102.099 265.912 101.495 265.385C100.897 264.852 100.599 264.178 100.599 263.363C100.599 262.373 100.974 261.605 101.724 261.061C102.479 260.51 103.54 260.234 104.905 260.234H106.487V259.487C106.487 258.919 106.317 258.468 105.978 258.134C105.638 257.794 105.137 257.624 104.475 257.624C103.895 257.624 103.408 257.771 103.016 258.063C102.623 258.356 102.427 258.711 102.427 259.127H100.792C100.792 258.652 100.959 258.195 101.293 257.756C101.633 257.311 102.09 256.959 102.664 256.701C103.244 256.443 103.88 256.314 104.571 256.314C105.667 256.314 106.525 256.59 107.146 257.141C107.768 257.686 108.09 258.438 108.113 259.399V263.776C108.113 264.649 108.225 265.344 108.447 265.859V266H106.742ZM104.044 264.761C104.554 264.761 105.037 264.629 105.494 264.365C105.951 264.102 106.282 263.759 106.487 263.337V261.386H105.213C103.221 261.386 102.225 261.969 102.225 263.135C102.225 263.645 102.395 264.043 102.734 264.33C103.074 264.617 103.511 264.761 104.044 264.761ZM114.477 264.849C115.057 264.849 115.563 264.673 115.997 264.321C116.431 263.97 116.671 263.53 116.718 263.003H118.256C118.227 263.548 118.039 264.066 117.693 264.559C117.348 265.051 116.885 265.443 116.305 265.736C115.73 266.029 115.121 266.176 114.477 266.176C113.182 266.176 112.15 265.745 111.383 264.884C110.621 264.017 110.24 262.833 110.24 261.333V261.061C110.24 260.135 110.41 259.312 110.75 258.591C111.09 257.87 111.576 257.311 112.209 256.912C112.848 256.514 113.601 256.314 114.468 256.314C115.534 256.314 116.419 256.634 117.122 257.272C117.831 257.911 118.209 258.74 118.256 259.76H116.718C116.671 259.145 116.437 258.641 116.015 258.248C115.599 257.85 115.083 257.65 114.468 257.65C113.642 257.65 113 257.949 112.543 258.547C112.092 259.139 111.866 259.997 111.866 261.122V261.43C111.866 262.525 112.092 263.369 112.543 263.961C112.994 264.553 113.639 264.849 114.477 264.849ZM127.862 266H126.236V257.835H121.859V266H120.225V256.49H127.862V266ZM130.042 261.157C130.042 260.226 130.224 259.388 130.587 258.644C130.956 257.899 131.466 257.325 132.116 256.921C132.772 256.517 133.52 256.314 134.357 256.314C135.652 256.314 136.698 256.763 137.495 257.659C138.298 258.556 138.699 259.748 138.699 261.236V261.351C138.699 262.276 138.521 263.108 138.163 263.847C137.812 264.579 137.305 265.15 136.643 265.561C135.986 265.971 135.23 266.176 134.375 266.176C133.086 266.176 132.04 265.728 131.237 264.831C130.44 263.935 130.042 262.748 130.042 261.271V261.157ZM131.677 261.351C131.677 262.405 131.92 263.252 132.406 263.891C132.898 264.529 133.555 264.849 134.375 264.849C135.201 264.849 135.857 264.526 136.344 263.882C136.83 263.231 137.073 262.323 137.073 261.157C137.073 260.114 136.824 259.271 136.326 258.626C135.834 257.976 135.178 257.65 134.357 257.65C133.555 257.65 132.907 257.97 132.415 258.608C131.923 259.247 131.677 260.161 131.677 261.351ZM148.394 256.49V266H146.759V257.835H143.524L143.331 261.395C143.226 263.029 142.95 264.198 142.505 264.901C142.065 265.604 141.365 265.971 140.404 266H139.754V264.567L140.22 264.532C140.747 264.474 141.125 264.169 141.354 263.618C141.582 263.067 141.729 262.048 141.793 260.56L141.969 256.49H148.394ZM150.573 261.157C150.573 260.226 150.755 259.388 151.118 258.644C151.487 257.899 151.997 257.325 152.647 256.921C153.304 256.517 154.051 256.314 154.889 256.314C156.184 256.314 157.229 256.763 158.026 257.659C158.829 258.556 159.23 259.748 159.23 261.236V261.351C159.23 262.276 159.052 263.108 158.694 263.847C158.343 264.579 157.836 265.15 157.174 265.561C156.518 265.971 155.762 266.176 154.906 266.176C153.617 266.176 152.571 265.728 151.769 264.831C150.972 263.935 150.573 262.748 150.573 261.271V261.157ZM152.208 261.351C152.208 262.405 152.451 263.252 152.938 263.891C153.43 264.529 154.086 264.849 154.906 264.849C155.732 264.849 156.389 264.526 156.875 263.882C157.361 263.231 157.604 262.323 157.604 261.157C157.604 260.114 157.355 259.271 156.857 258.626C156.365 257.976 155.709 257.65 154.889 257.65C154.086 257.65 153.438 257.97 152.946 258.608C152.454 259.247 152.208 260.161 152.208 261.351ZM168.661 261.869H167.519V266H165.893V261.869H164.75L162.087 266H160.03L163.432 261.078L160.355 256.49H162.324L164.776 260.428H165.893V256.49H167.519V260.428H168.626L171.096 256.49H173.064L169.979 261.087L173.381 266H171.324L168.661 261.869ZM178.628 266.176C177.339 266.176 176.29 265.754 175.481 264.91C174.673 264.061 174.269 262.927 174.269 261.509V261.21C174.269 260.267 174.447 259.426 174.805 258.688C175.168 257.943 175.672 257.363 176.316 256.947C176.967 256.525 177.67 256.314 178.426 256.314C179.662 256.314 180.623 256.722 181.309 257.536C181.994 258.351 182.337 259.517 182.337 261.034V261.711H175.895C175.918 262.648 176.19 263.407 176.712 263.987C177.239 264.562 177.907 264.849 178.716 264.849C179.29 264.849 179.776 264.731 180.175 264.497C180.573 264.263 180.922 263.952 181.221 263.565L182.214 264.339C181.417 265.563 180.222 266.176 178.628 266.176ZM178.426 257.65C177.77 257.65 177.219 257.891 176.773 258.371C176.328 258.846 176.053 259.514 175.947 260.375H180.711V260.252C180.664 259.426 180.441 258.787 180.043 258.336C179.645 257.879 179.105 257.65 178.426 257.65ZM191.996 266H190.37V261.939H186.002V266H184.367V256.49H186.002V260.612H190.37V256.49H191.996V266ZM200.768 256.49H202.394V266H200.768V259.065L196.382 266H194.756V256.49H196.382V263.434L200.768 256.49ZM212.272 256.49V266H210.638V262.3H208.186L205.944 266H204.187L206.577 262.054C205.968 261.831 205.499 261.488 205.171 261.025C204.849 260.557 204.688 260.012 204.688 259.391C204.688 258.523 205.013 257.826 205.663 257.299C206.313 256.766 207.184 256.496 208.273 256.49H212.272ZM206.322 259.408C206.322 259.871 206.48 260.246 206.797 260.533C207.113 260.814 207.532 260.958 208.054 260.964H210.638V257.809H208.3C207.696 257.809 207.216 257.958 206.858 258.257C206.501 258.55 206.322 258.934 206.322 259.408Z" fill="#3D4B66"/>
<rect x="0.5" y="0.5" width="279" height="299" rx="3.5" stroke="#DDDFE0"/>
<defs>
<clipPath id="clip0">
<rect width="80" height="80" fill="white" transform="translate(100 52)"/>
</clipPath>
</defs>
</svg>
