<svg width="364" height="78" viewBox="0 0 364 78" fill="none" xmlns="http://www.w3.org/2000/svg">
<path d="M6.66797 10.9609C7.37891 10.9609 7.96875 10.7539 8.4375 10.3398C8.90625 9.92578 9.15625 9.41406 9.1875 8.80469H11.8711C11.8398 9.59375 11.5938 10.332 11.1328 11.0195C10.6719 11.6992 10.0469 12.2383 9.25781 12.6367C8.46875 13.0352 7.61719 13.2344 6.70312 13.2344C4.92969 13.2344 3.52344 12.6602 2.48438 11.5117C1.44531 10.3633 0.925781 8.77734 0.925781 6.75391V6.46094C0.925781 4.53125 1.44141 2.98828 2.47266 1.83203C3.50391 0.667969 4.91016 0.0859375 6.69141 0.0859375C8.19922 0.0859375 9.42578 0.527344 10.3711 1.41016C11.3242 2.28516 11.8242 3.4375 11.8711 4.86719H9.1875C9.15625 4.14062 8.90625 3.54297 8.4375 3.07422C7.97656 2.60547 7.38672 2.37109 6.66797 2.37109C5.74609 2.37109 5.03516 2.70703 4.53516 3.37891C4.03516 4.04297 3.78125 5.05469 3.77344 6.41406V6.87109C3.77344 8.24609 4.01953 9.27344 4.51172 9.95312C5.01172 10.625 5.73047 10.9609 6.66797 10.9609ZM24 2.58203H19.8867V13H17.0391V2.58203H12.9727V0.320312H24V2.58203ZM25.0195 6.54297C25.0195 5.30078 25.2656 4.18359 25.7578 3.19141C26.25 2.19141 26.9414 1.42578 27.832 0.894531C28.7227 0.355469 29.7461 0.0859375 30.9023 0.0859375C32.6133 0.0859375 34 0.636719 35.0625 1.73828C36.1328 2.83984 36.7109 4.30078 36.7969 6.12109L36.8086 6.78906C36.8086 8.03906 36.5664 9.15625 36.082 10.1406C35.6055 11.125 34.918 11.8867 34.0195 12.4258C33.1289 12.9648 32.0977 13.2344 30.9258 13.2344C29.1367 13.2344 27.7031 12.6406 26.625 11.4531C25.5547 10.2578 25.0195 8.66797 25.0195 6.68359V6.54297ZM27.8672 6.78906C27.8672 8.09375 28.1367 9.11719 28.6758 9.85938C29.2148 10.5938 29.9648 10.9609 30.9258 10.9609C31.8867 10.9609 32.6328 10.5859 33.1641 9.83594C33.7031 9.08594 33.9727 7.98828 33.9727 6.54297C33.9727 5.26172 33.6953 4.24609 33.1406 3.49609C32.5938 2.74609 31.8477 2.37109 30.9023 2.37109C29.9727 2.37109 29.2344 2.74219 28.6875 3.48438C28.1406 4.21875 27.8672 5.32031 27.8672 6.78906ZM47.1328 0.320312H49.9688V13H47.1328V4.53906L42.1641 13H39.3281V0.320312H42.1641V8.78125L47.1328 0.320312ZM60.5273 9.49609L64.2773 0.320312H67.8398V13H64.9922V4.60938L61.5 13H59.5664L56.0625 4.5625V13H53.2148V0.320312H56.8008L60.5273 9.49609ZM70.5117 6.54297C70.5117 5.30078 70.7578 4.18359 71.25 3.19141C71.7422 2.19141 72.4336 1.42578 73.3242 0.894531C74.2148 0.355469 75.2383 0.0859375 76.3945 0.0859375C78.1055 0.0859375 79.4922 0.636719 80.5547 1.73828C81.625 2.83984 82.2031 4.30078 82.2891 6.12109L82.3008 6.78906C82.3008 8.03906 82.0586 9.15625 81.5742 10.1406C81.0977 11.125 80.4102 11.8867 79.5117 12.4258C78.6211 12.9648 77.5898 13.2344 76.418 13.2344C74.6289 13.2344 73.1953 12.6406 72.1172 11.4531C71.0469 10.2578 70.5117 8.66797 70.5117 6.68359V6.54297ZM73.3594 6.78906C73.3594 8.09375 73.6289 9.11719 74.168 9.85938C74.707 10.5938 75.457 10.9609 76.418 10.9609C77.3789 10.9609 78.125 10.5859 78.6562 9.83594C79.1953 9.08594 79.4648 7.98828 79.4648 6.54297C79.4648 5.26172 79.1875 4.24609 78.6328 3.49609C78.0859 2.74609 77.3398 2.37109 76.3945 2.37109C75.4648 2.37109 74.7266 2.74219 74.1797 3.48438C73.6328 4.21875 73.3594 5.32031 73.3594 6.78906ZM89.918 10.9609C90.6289 10.9609 91.2188 10.7539 91.6875 10.3398C92.1562 9.92578 92.4062 9.41406 92.4375 8.80469H95.1211C95.0898 9.59375 94.8438 10.332 94.3828 11.0195C93.9219 11.6992 93.2969 12.2383 92.5078 12.6367C91.7188 13.0352 90.8672 13.2344 89.9531 13.2344C88.1797 13.2344 86.7734 12.6602 85.7344 11.5117C84.6953 10.3633 84.1758 8.77734 84.1758 6.75391V6.46094C84.1758 4.53125 84.6914 2.98828 85.7227 1.83203C86.7539 0.667969 88.1602 0.0859375 89.9414 0.0859375C91.4492 0.0859375 92.6758 0.527344 93.6211 1.41016C94.5742 2.28516 95.0742 3.4375 95.1211 4.86719H92.4375C92.4062 4.14062 92.1562 3.54297 91.6875 3.07422C91.2266 2.60547 90.6367 2.37109 89.918 2.37109C88.9961 2.37109 88.2852 2.70703 87.7852 3.37891C87.2852 4.04297 87.0312 5.05469 87.0234 6.41406V6.87109C87.0234 8.24609 87.2695 9.27344 87.7617 9.95312C88.2617 10.625 88.9805 10.9609 89.918 10.9609ZM107.25 2.58203H103.137V13H100.289V2.58203H96.2227V0.320312H107.25V2.58203ZM112.219 4.35156H115.008C116.047 4.35156 116.953 4.53125 117.727 4.89062C118.5 5.25 119.086 5.75391 119.484 6.40234C119.891 7.05078 120.094 7.80469 120.094 8.66406C120.094 9.96875 119.633 11.0156 118.711 11.8047C117.789 12.5938 116.562 12.9922 115.031 13H109.371V0.320312H112.219V4.35156ZM112.219 6.63672V10.7266H114.996C115.691 10.7266 116.238 10.5547 116.637 10.2109C117.043 9.85938 117.246 9.36328 117.246 8.72266C117.246 8.08203 117.047 7.57812 116.648 7.21094C116.258 6.83594 115.727 6.64453 115.055 6.63672H112.219ZM139.102 13H136.254V2.61719H131.309V13H128.461V0.320312H139.102V13ZM141.598 6.54297C141.598 5.30078 141.844 4.18359 142.336 3.19141C142.828 2.19141 143.52 1.42578 144.41 0.894531C145.301 0.355469 146.324 0.0859375 147.48 0.0859375C149.191 0.0859375 150.578 0.636719 151.641 1.73828C152.711 2.83984 153.289 4.30078 153.375 6.12109L153.387 6.78906C153.387 8.03906 153.145 9.15625 152.66 10.1406C152.184 11.125 151.496 11.8867 150.598 12.4258C149.707 12.9648 148.676 13.2344 147.504 13.2344C145.715 13.2344 144.281 12.6406 143.203 11.4531C142.133 10.2578 141.598 8.66797 141.598 6.68359V6.54297ZM144.445 6.78906C144.445 8.09375 144.715 9.11719 145.254 9.85938C145.793 10.5938 146.543 10.9609 147.504 10.9609C148.465 10.9609 149.211 10.5859 149.742 9.83594C150.281 9.08594 150.551 7.98828 150.551 6.54297C150.551 5.26172 150.273 4.24609 149.719 3.49609C149.172 2.74609 148.426 2.37109 147.48 2.37109C146.551 2.37109 145.812 2.74219 145.266 3.48438C144.719 4.21875 144.445 5.32031 144.445 6.78906ZM166.383 0.320312V13H163.535V2.61719H159.949L159.715 7.03516C159.566 9.16016 159.156 10.6875 158.484 11.6172C157.82 12.5391 156.801 13 155.426 13H154.547L154.535 10.6328L155.121 10.5742C155.746 10.4883 156.199 10.1094 156.48 9.4375C156.77 8.75781 156.953 7.52344 157.031 5.73438L157.266 0.320312H166.383ZM180.152 13H177.305V7.87891H172.371V13H169.523V0.320312H172.371V5.60547H177.305V0.320312H180.152V13ZM182.66 6.54297C182.66 5.30078 182.906 4.18359 183.398 3.19141C183.891 2.19141 184.582 1.42578 185.473 0.894531C186.363 0.355469 187.387 0.0859375 188.543 0.0859375C190.254 0.0859375 191.641 0.636719 192.703 1.73828C193.773 2.83984 194.352 4.30078 194.438 6.12109L194.449 6.78906C194.449 8.03906 194.207 9.15625 193.723 10.1406C193.246 11.125 192.559 11.8867 191.66 12.4258C190.77 12.9648 189.738 13.2344 188.566 13.2344C186.777 13.2344 185.344 12.6406 184.266 11.4531C183.195 10.2578 182.66 8.66797 182.66 6.68359V6.54297ZM185.508 6.78906C185.508 8.09375 185.777 9.11719 186.316 9.85938C186.855 10.5938 187.605 10.9609 188.566 10.9609C189.527 10.9609 190.273 10.5859 190.805 9.83594C191.344 9.08594 191.613 7.98828 191.613 6.54297C191.613 5.26172 191.336 4.24609 190.781 3.49609C190.234 2.74609 189.488 2.37109 188.543 2.37109C187.613 2.37109 186.875 2.74219 186.328 3.48438C185.781 4.21875 185.508 5.32031 185.508 6.78906ZM205.301 2.61719H199.793V13H196.957V0.320312H205.301V2.61719ZM206.145 6.54297C206.145 5.30078 206.391 4.18359 206.883 3.19141C207.375 2.19141 208.066 1.42578 208.957 0.894531C209.848 0.355469 210.871 0.0859375 212.027 0.0859375C213.738 0.0859375 215.125 0.636719 216.188 1.73828C217.258 2.83984 217.836 4.30078 217.922 6.12109L217.934 6.78906C217.934 8.03906 217.691 9.15625 217.207 10.1406C216.73 11.125 216.043 11.8867 215.145 12.4258C214.254 12.9648 213.223 13.2344 212.051 13.2344C210.262 13.2344 208.828 12.6406 207.75 11.4531C206.68 10.2578 206.145 8.66797 206.145 6.68359V6.54297ZM208.992 6.78906C208.992 8.09375 209.262 9.11719 209.801 9.85938C210.34 10.5938 211.09 10.9609 212.051 10.9609C213.012 10.9609 213.758 10.5859 214.289 9.83594C214.828 9.08594 215.098 7.98828 215.098 6.54297C215.098 5.26172 214.82 4.24609 214.266 3.49609C213.719 2.74609 212.973 2.37109 212.027 2.37109C211.098 2.37109 210.359 2.74219 209.812 3.48438C209.266 4.21875 208.992 5.32031 208.992 6.78906ZM230.824 7.98438H229.383V13H226.535V0.320312H229.383V5.38281H230.637L234.141 0.320312H237.656L233.074 6.39062L238.043 13H234.34L230.824 7.98438ZM238.395 6.54297C238.395 5.30078 238.641 4.18359 239.133 3.19141C239.625 2.19141 240.316 1.42578 241.207 0.894531C242.098 0.355469 243.121 0.0859375 244.277 0.0859375C245.988 0.0859375 247.375 0.636719 248.438 1.73828C249.508 2.83984 250.086 4.30078 250.172 6.12109L250.184 6.78906C250.184 8.03906 249.941 9.15625 249.457 10.1406C248.98 11.125 248.293 11.8867 247.395 12.4258C246.504 12.9648 245.473 13.2344 244.301 13.2344C242.512 13.2344 241.078 12.6406 240 11.4531C238.93 10.2578 238.395 8.66797 238.395 6.68359V6.54297ZM241.242 6.78906C241.242 8.09375 241.512 9.11719 242.051 9.85938C242.59 10.5938 243.34 10.9609 244.301 10.9609C245.262 10.9609 246.008 10.5859 246.539 9.83594C247.078 9.08594 247.348 7.98828 247.348 6.54297C247.348 5.26172 247.07 4.24609 246.516 3.49609C245.969 2.74609 245.223 2.37109 244.277 2.37109C243.348 2.37109 242.609 2.74219 242.062 3.48438C241.516 4.21875 241.242 5.32031 241.242 6.78906ZM260.121 9.49609L263.871 0.320312H267.434V13H264.586V4.60938L261.094 13H259.16L255.656 4.5625V13H252.809V0.320312H256.395L260.121 9.49609ZM281.391 13H278.543V2.61719H273.598V13H270.75V0.320312H281.391V13ZM295.195 0.320312V13H292.348V2.61719H288.762L288.527 7.03516C288.379 9.16016 287.969 10.6875 287.297 11.6172C286.633 12.5391 285.613 13 284.238 13H283.359L283.348 10.6328L283.934 10.5742C284.559 10.4883 285.012 10.1094 285.293 9.4375C285.582 8.75781 285.766 7.52344 285.844 5.73438L286.078 0.320312H295.195ZM303.809 13.2344C302.004 13.2344 300.539 12.668 299.414 11.5352C298.297 10.3945 297.738 8.87891 297.738 6.98828V6.63672C297.738 5.37109 297.98 4.24219 298.465 3.25C298.957 2.25 299.645 1.47266 300.527 0.917969C301.41 0.363281 302.395 0.0859375 303.48 0.0859375C305.207 0.0859375 306.539 0.636719 307.477 1.73828C308.422 2.83984 308.895 4.39844 308.895 6.41406V7.5625H300.609C300.695 8.60938 301.043 9.4375 301.652 10.0469C302.27 10.6562 303.043 10.9609 303.973 10.9609C305.277 10.9609 306.34 10.4336 307.16 9.37891L308.695 10.8438C308.188 11.6016 307.508 12.1914 306.656 12.6133C305.812 13.0273 304.863 13.2344 303.809 13.2344ZM303.469 2.37109C302.688 2.37109 302.055 2.64453 301.57 3.19141C301.094 3.73828 300.789 4.5 300.656 5.47656H306.082V5.26562C306.02 4.3125 305.766 3.59375 305.32 3.10938C304.875 2.61719 304.258 2.37109 303.469 2.37109ZM315.621 7.98438H314.18V13H311.332V0.320312H314.18V5.38281H315.434L318.938 0.320312H322.453L317.871 6.39062L322.84 13H319.137L315.621 7.98438ZM334.383 2.58203H330.27V13H327.422V2.58203H323.355V0.320312H334.383V2.58203ZM343.676 13C343.551 12.7578 343.441 12.3633 343.348 11.8164C342.441 12.7617 341.332 13.2344 340.02 13.2344C338.746 13.2344 337.707 12.8711 336.902 12.1445C336.098 11.418 335.695 10.5195 335.695 9.44922C335.695 8.09766 336.195 7.0625 337.195 6.34375C338.203 5.61719 339.641 5.25391 341.508 5.25391H343.254V4.42188C343.254 3.76562 343.07 3.24219 342.703 2.85156C342.336 2.45312 341.777 2.25391 341.027 2.25391C340.379 2.25391 339.848 2.41797 339.434 2.74609C339.02 3.06641 338.812 3.47656 338.812 3.97656H335.965C335.965 3.28125 336.195 2.63281 336.656 2.03125C337.117 1.42188 337.742 0.945312 338.531 0.601562C339.328 0.257812 340.215 0.0859375 341.191 0.0859375C342.676 0.0859375 343.859 0.460938 344.742 1.21094C345.625 1.95312 346.078 3 346.102 4.35156V10.0703C346.102 11.2109 346.262 12.1211 346.582 12.8008V13H343.676ZM340.547 10.9492C341.109 10.9492 341.637 10.8125 342.129 10.5391C342.629 10.2656 343.004 9.89844 343.254 9.4375V7.04688H341.719C340.664 7.04688 339.871 7.23047 339.34 7.59766C338.809 7.96484 338.543 8.48438 338.543 9.15625C338.543 9.70312 338.723 10.1406 339.082 10.4688C339.449 10.7891 339.938 10.9492 340.547 10.9492ZM1.51172 42.7266C2.30078 41.8438 2.82812 41.0078 3.09375 40.2188C3.36719 39.4219 3.53125 38.4062 3.58594 37.1719L3.75 32.3203H12.5508V42.7266H14.3086V48.7734H11.4727V45H3.33984V48.7734H0.457031L0.46875 42.7266H1.51172ZM4.85156 42.7266H9.71484V34.7695H6.51562L6.43359 37.1953C6.32422 39.5234 5.79688 41.3672 4.85156 42.7266ZM15.8086 38.543C15.8086 37.3008 16.0547 36.1836 16.5469 35.1914C17.0391 34.1914 17.7305 33.4258 18.6211 32.8945C19.5117 32.3555 20.5352 32.0859 21.6914 32.0859C23.4023 32.0859 24.7891 32.6367 25.8516 33.7383C26.9219 34.8398 27.5 36.3008 27.5859 38.1211L27.5977 38.7891C27.5977 40.0391 27.3555 41.1562 26.8711 42.1406C26.3945 43.125 25.707 43.8867 24.8086 44.4258C23.918 44.9648 22.8867 45.2344 21.7148 45.2344C19.9258 45.2344 18.4922 44.6406 17.4141 43.4531C16.3438 42.2578 15.8086 40.668 15.8086 38.6836V38.543ZM18.6562 38.7891C18.6562 40.0938 18.9258 41.1172 19.4648 41.8594C20.0039 42.5938 20.7539 42.9609 21.7148 42.9609C22.6758 42.9609 23.4219 42.5859 23.9531 41.8359C24.4922 41.0859 24.7617 39.9883 24.7617 38.543C24.7617 37.2617 24.4844 36.2461 23.9297 35.4961C23.3828 34.7461 22.6367 34.3711 21.6914 34.3711C20.7617 34.3711 20.0234 34.7422 19.4766 35.4844C18.9297 36.2188 18.6562 37.3203 18.6562 38.7891ZM34.5117 39.9844H33.0703V45H30.2227V32.3203H33.0703V37.3828H34.3242L37.8281 32.3203H41.3438L36.7617 38.3906L41.7305 45H38.0273L34.5117 39.9844ZM47.7305 40.9219L50.3086 32.3203H53.3438L48.3047 46.9219C47.5312 49.0547 46.2188 50.1211 44.3672 50.1211C43.9531 50.1211 43.4961 50.0508 42.9961 49.9102V47.707L43.5352 47.7422C44.2539 47.7422 44.793 47.6094 45.1523 47.3438C45.5195 47.0859 45.8086 46.6484 46.0195 46.0312L46.4297 44.9414L41.9766 32.3203H45.0469L47.7305 40.9219ZM62.5195 41.4961L66.2695 32.3203H69.832V45H66.9844V36.6094L63.4922 45H61.5586L58.0547 36.5625V45H55.207V32.3203H58.793L62.5195 41.4961ZM78.6211 45.2344C76.8164 45.2344 75.3516 44.668 74.2266 43.5352C73.1094 42.3945 72.5508 40.8789 72.5508 38.9883V38.6367C72.5508 37.3711 72.793 36.2422 73.2773 35.25C73.7695 34.25 74.457 33.4727 75.3398 32.918C76.2227 32.3633 77.207 32.0859 78.293 32.0859C80.0195 32.0859 81.3516 32.6367 82.2891 33.7383C83.2344 34.8398 83.707 36.3984 83.707 38.4141V39.5625H75.4219C75.5078 40.6094 75.8555 41.4375 76.4648 42.0469C77.082 42.6562 77.8555 42.9609 78.7852 42.9609C80.0898 42.9609 81.1523 42.4336 81.9727 41.3789L83.5078 42.8438C83 43.6016 82.3203 44.1914 81.4688 44.6133C80.625 45.0273 79.6758 45.2344 78.6211 45.2344ZM78.2812 34.3711C77.5 34.3711 76.8672 34.6445 76.3828 35.1914C75.9062 35.7383 75.6016 36.5 75.4688 37.4766H80.8945V37.2656C80.832 36.3125 80.5781 35.5938 80.1328 35.1094C79.6875 34.6172 79.0703 34.3711 78.2812 34.3711ZM96.668 45H93.8203V39.8789H88.8867V45H86.0391V32.3203H88.8867V37.6055H93.8203V32.3203H96.668V45ZM109.688 34.582H105.574V45H102.727V34.582H98.6602V32.3203H109.688V34.582ZM110.707 38.543C110.707 37.3008 110.953 36.1836 111.445 35.1914C111.938 34.1914 112.629 33.4258 113.52 32.8945C114.41 32.3555 115.434 32.0859 116.59 32.0859C118.301 32.0859 119.688 32.6367 120.75 33.7383C121.82 34.8398 122.398 36.3008 122.484 38.1211L122.496 38.7891C122.496 40.0391 122.254 41.1562 121.77 42.1406C121.293 43.125 120.605 43.8867 119.707 44.4258C118.816 44.9648 117.785 45.2344 116.613 45.2344C114.824 45.2344 113.391 44.6406 112.312 43.4531C111.242 42.2578 110.707 40.668 110.707 38.6836V38.543ZM113.555 38.7891C113.555 40.0938 113.824 41.1172 114.363 41.8594C114.902 42.5938 115.652 42.9609 116.613 42.9609C117.574 42.9609 118.32 42.5859 118.852 41.8359C119.391 41.0859 119.66 39.9883 119.66 38.543C119.66 37.2617 119.383 36.2461 118.828 35.4961C118.281 34.7461 117.535 34.3711 116.59 34.3711C115.66 34.3711 114.922 34.7422 114.375 35.4844C113.828 36.2188 113.555 37.3203 113.555 38.7891ZM125.121 45V32.3203H130.266C132 32.3203 133.32 32.625 134.227 33.2344C135.133 33.8359 135.586 34.7031 135.586 35.8359C135.586 36.4219 135.402 36.9492 135.035 37.418C134.676 37.8789 134.141 38.2344 133.43 38.4844C134.258 38.6562 134.914 39.0039 135.398 39.5273C135.883 40.0508 136.125 40.668 136.125 41.3789C136.125 42.5586 135.688 43.457 134.812 44.0742C133.945 44.6914 132.695 45 131.062 45H125.121ZM127.969 39.5977V42.75H131.086C132.547 42.75 133.277 42.2266 133.277 41.1797C133.277 40.125 132.535 39.5977 131.051 39.5977H127.969ZM127.969 37.5586H130.312C131.93 37.5586 132.738 37.082 132.738 36.1289C132.738 35.1289 131.973 34.6133 130.441 34.582H127.969V37.5586ZM138.996 48.8438L137.461 47.9297C137.914 47.2188 138.223 46.5977 138.387 46.0664C138.559 45.543 138.648 45.0078 138.656 44.4609V42.2461H141.223L141.211 44.2969C141.203 45.125 140.992 45.9531 140.578 46.7812C140.172 47.6172 139.645 48.3047 138.996 48.8438ZM149.895 42.7266C150.684 41.8438 151.211 41.0078 151.477 40.2188C151.75 39.4219 151.914 38.4062 151.969 37.1719L152.133 32.3203H160.934V42.7266H162.691V48.7734H159.855V45H151.723V48.7734H148.84L148.852 42.7266H149.895ZM153.234 42.7266H158.098V34.7695H154.898L154.816 37.1953C154.707 39.5234 154.18 41.3672 153.234 42.7266ZM175.5 32.3203V45H172.652V34.6172H169.066L168.832 39.0352C168.684 41.1602 168.273 42.6875 167.602 43.6172C166.938 44.5391 165.918 45 164.543 45H163.664L163.652 42.6328L164.238 42.5742C164.863 42.4883 165.316 42.1094 165.598 41.4375C165.887 40.7578 166.07 39.5234 166.148 37.7344L166.383 32.3203H175.5ZM188.684 32.3203V45H185.848V40.3477H183.188L180.48 45H177.527L180.516 39.8789C179.734 39.5508 179.133 39.082 178.711 38.4727C178.297 37.8633 178.09 37.1641 178.09 36.375C178.09 35.1953 178.543 34.2305 179.449 33.4805C180.363 32.7227 181.594 32.3359 183.141 32.3203H188.684ZM180.938 36.4453C180.938 36.9766 181.133 37.4102 181.523 37.7461C181.922 38.0742 182.43 38.2383 183.047 38.2383H185.848V34.582H183.223C182.527 34.582 181.973 34.7578 181.559 35.1094C181.145 35.4609 180.938 35.9062 180.938 36.4453ZM208.57 45H205.723V34.6172H200.777V45H197.93V32.3203H208.57V45ZM211.066 38.543C211.066 37.3008 211.312 36.1836 211.805 35.1914C212.297 34.1914 212.988 33.4258 213.879 32.8945C214.77 32.3555 215.793 32.0859 216.949 32.0859C218.66 32.0859 220.047 32.6367 221.109 33.7383C222.18 34.8398 222.758 36.3008 222.844 38.1211L222.855 38.7891C222.855 40.0391 222.613 41.1562 222.129 42.1406C221.652 43.125 220.965 43.8867 220.066 44.4258C219.176 44.9648 218.145 45.2344 216.973 45.2344C215.184 45.2344 213.75 44.6406 212.672 43.4531C211.602 42.2578 211.066 40.668 211.066 38.6836V38.543ZM213.914 38.7891C213.914 40.0938 214.184 41.1172 214.723 41.8594C215.262 42.5938 216.012 42.9609 216.973 42.9609C217.934 42.9609 218.68 42.5859 219.211 41.8359C219.75 41.0859 220.02 39.9883 220.02 38.543C220.02 37.2617 219.742 36.2461 219.188 35.4961C218.641 34.7461 217.895 34.3711 216.949 34.3711C216.02 34.3711 215.281 34.7422 214.734 35.4844C214.188 36.2188 213.914 37.3203 213.914 38.7891ZM224.473 42.7266C225.262 41.8438 225.789 41.0078 226.055 40.2188C226.328 39.4219 226.492 38.4062 226.547 37.1719L226.711 32.3203H235.512V42.7266H237.27V48.7734H234.434V45H226.301V48.7734H223.418L223.43 42.7266H224.473ZM227.812 42.7266H232.676V34.7695H229.477L229.395 37.1953C229.285 39.5234 228.758 41.3672 227.812 42.7266ZM246.879 45C246.754 44.7578 246.645 44.3633 246.551 43.8164C245.645 44.7617 244.535 45.2344 243.223 45.2344C241.949 45.2344 240.91 44.8711 240.105 44.1445C239.301 43.418 238.898 42.5195 238.898 41.4492C238.898 40.0977 239.398 39.0625 240.398 38.3438C241.406 37.6172 242.844 37.2539 244.711 37.2539H246.457V36.4219C246.457 35.7656 246.273 35.2422 245.906 34.8516C245.539 34.4531 244.98 34.2539 244.23 34.2539C243.582 34.2539 243.051 34.418 242.637 34.7461C242.223 35.0664 242.016 35.4766 242.016 35.9766H239.168C239.168 35.2812 239.398 34.6328 239.859 34.0312C240.32 33.4219 240.945 32.9453 241.734 32.6016C242.531 32.2578 243.418 32.0859 244.395 32.0859C245.879 32.0859 247.062 32.4609 247.945 33.2109C248.828 33.9531 249.281 35 249.305 36.3516V42.0703C249.305 43.2109 249.465 44.1211 249.785 44.8008V45H246.879ZM243.75 42.9492C244.312 42.9492 244.84 42.8125 245.332 42.5391C245.832 42.2656 246.207 41.8984 246.457 41.4375V39.0469H244.922C243.867 39.0469 243.074 39.2305 242.543 39.5977C242.012 39.9648 241.746 40.4844 241.746 41.1562C241.746 41.7031 241.926 42.1406 242.285 42.4688C242.652 42.7891 243.141 42.9492 243.75 42.9492ZM262.453 45H259.605V40.7695C258.871 40.9414 258.098 41.0273 257.285 41.0273C255.551 41.0273 254.227 40.6133 253.312 39.7852C252.398 38.9492 251.941 37.7539 251.941 36.1992V32.3086H254.789V36.1992C254.789 37.1211 254.992 37.7734 255.398 38.1562C255.812 38.5391 256.441 38.7305 257.285 38.7305C258.051 38.7305 258.824 38.6406 259.605 38.4609V32.3203H262.453V45ZM273.398 32.3203H276.234V45H273.398V36.5391L268.43 45H265.594V32.3203H268.43V40.7812L273.398 32.3203ZM295.98 45H293.133V39.8789H288.199V45H285.352V32.3203H288.199V37.6055H293.133V32.3203H295.98V45ZM306.598 45C306.473 44.7578 306.363 44.3633 306.27 43.8164C305.363 44.7617 304.254 45.2344 302.941 45.2344C301.668 45.2344 300.629 44.8711 299.824 44.1445C299.02 43.418 298.617 42.5195 298.617 41.4492C298.617 40.0977 299.117 39.0625 300.117 38.3438C301.125 37.6172 302.562 37.2539 304.43 37.2539H306.176V36.4219C306.176 35.7656 305.992 35.2422 305.625 34.8516C305.258 34.4531 304.699 34.2539 303.949 34.2539C303.301 34.2539 302.77 34.418 302.355 34.7461C301.941 35.0664 301.734 35.4766 301.734 35.9766H298.887C298.887 35.2812 299.117 34.6328 299.578 34.0312C300.039 33.4219 300.664 32.9453 301.453 32.6016C302.25 32.2578 303.137 32.0859 304.113 32.0859C305.598 32.0859 306.781 32.4609 307.664 33.2109C308.547 33.9531 309 35 309.023 36.3516V42.0703C309.023 43.2109 309.184 44.1211 309.504 44.8008V45H306.598ZM303.469 42.9492C304.031 42.9492 304.559 42.8125 305.051 42.5391C305.551 42.2656 305.926 41.8984 306.176 41.4375V39.0469H304.641C303.586 39.0469 302.793 39.2305 302.262 39.5977C301.73 39.9648 301.465 40.4844 301.465 41.1562C301.465 41.7031 301.645 42.1406 302.004 42.4688C302.371 42.7891 302.859 42.9492 303.469 42.9492ZM324.398 36.8555L327.82 27.9375H331.113L325.172 42.0938L324.633 43.1602C323.852 44.5508 322.586 45.2461 320.836 45.2461L319.617 45.1758L319.641 42.832C319.828 42.8633 320.16 42.8789 320.637 42.8789C321.48 42.8789 322.074 42.5195 322.418 41.8008L323.027 40.3594L317.191 27.9375H320.426L324.398 36.8555ZM348.105 49.1953H345.293V45H334.055V49.1953H331.195L331.102 42.6328H332.473C333.152 41.9766 333.695 41.0234 334.102 39.7734C334.508 38.5156 334.77 37.0938 334.887 35.5078L335.332 27.9375H346.09V42.6328H348.258L348.105 49.1953ZM335.824 42.6328H343.137V30.3281H338.156L337.875 35.1328C337.664 38.3438 336.98 40.8438 335.824 42.6328ZM363.82 36.9141C363.82 38.5859 363.531 40.0547 362.953 41.3203C362.375 42.5781 361.547 43.5469 360.469 44.2266C359.398 44.8984 358.164 45.2344 356.766 45.2344C355.383 45.2344 354.148 44.8984 353.062 44.2266C351.984 43.5469 351.148 42.582 350.555 41.332C349.969 40.082 349.672 38.6406 349.664 37.0078V36.0469C349.664 34.3828 349.957 32.9141 350.543 31.6406C351.137 30.3672 351.969 29.3945 353.039 28.7227C354.117 28.043 355.352 27.7031 356.742 27.7031C358.133 27.7031 359.363 28.0391 360.434 28.7109C361.512 29.375 362.344 30.3359 362.93 31.5938C363.516 32.8438 363.812 34.3008 363.82 35.9648V36.9141ZM360.855 36.0234C360.855 34.1328 360.496 32.6836 359.777 31.6758C359.066 30.668 358.055 30.1641 356.742 30.1641C355.461 30.1641 354.457 30.668 353.73 31.6758C353.012 32.6758 352.645 34.0938 352.629 35.9297V36.9141C352.629 38.7891 352.992 40.2383 353.719 41.2617C354.453 42.2852 355.469 42.7969 356.766 42.7969C358.078 42.7969 359.086 42.2969 359.789 41.2969C360.5 40.2969 360.855 38.8359 360.855 36.9141V36.0234ZM0.925781 70.543C0.925781 69.3008 1.17188 68.1836 1.66406 67.1914C2.15625 66.1914 2.84766 65.4258 3.73828 64.8945C4.62891 64.3555 5.65234 64.0859 6.80859 64.0859C8.51953 64.0859 9.90625 64.6367 10.9688 65.7383C12.0391 66.8398 12.6172 68.3008 12.7031 70.1211L12.7148 70.7891C12.7148 72.0391 12.4727 73.1562 11.9883 74.1406C11.5117 75.125 10.8242 75.8867 9.92578 76.4258C9.03516 76.9648 8.00391 77.2344 6.83203 77.2344C5.04297 77.2344 3.60938 76.6406 2.53125 75.4531C1.46094 74.2578 0.925781 72.668 0.925781 70.6836V70.543ZM3.77344 70.7891C3.77344 72.0938 4.04297 73.1172 4.58203 73.8594C5.12109 74.5938 5.87109 74.9609 6.83203 74.9609C7.79297 74.9609 8.53906 74.5859 9.07031 73.8359C9.60938 73.0859 9.87891 71.9883 9.87891 70.543C9.87891 69.2617 9.60156 68.2461 9.04688 67.4961C8.5 66.7461 7.75391 66.3711 6.80859 66.3711C5.87891 66.3711 5.14062 66.7422 4.59375 67.4844C4.04688 68.2188 3.77344 69.3203 3.77344 70.7891ZM24.75 66.582H20.6367V77H17.7891V66.582H13.7227V64.3203H24.75V66.582ZM40.5469 64.3203H43.3828V77H40.5469V68.5391L35.5781 77H32.7422V64.3203H35.5781V72.7812L40.5469 64.3203ZM53.9414 73.4961L57.6914 64.3203H61.2539V77H58.4062V68.6094L54.9141 77H52.9805L49.4766 68.5625V77H46.6289V64.3203H50.2148L53.9414 73.4961ZM70.043 77.2344C68.2383 77.2344 66.7734 76.668 65.6484 75.5352C64.5312 74.3945 63.9727 72.8789 63.9727 70.9883V70.6367C63.9727 69.3711 64.2148 68.2422 64.6992 67.25C65.1914 66.25 65.8789 65.4727 66.7617 64.918C67.6445 64.3633 68.6289 64.0859 69.7148 64.0859C71.4414 64.0859 72.7734 64.6367 73.7109 65.7383C74.6562 66.8398 75.1289 68.3984 75.1289 70.4141V71.5625H66.8438C66.9297 72.6094 67.2773 73.4375 67.8867 74.0469C68.5039 74.6562 69.2773 74.9609 70.207 74.9609C71.5117 74.9609 72.5742 74.4336 73.3945 73.3789L74.9297 74.8438C74.4219 75.6016 73.7422 76.1914 72.8906 76.6133C72.0469 77.0273 71.0977 77.2344 70.043 77.2344ZM69.7031 66.3711C68.9219 66.3711 68.2891 66.6445 67.8047 67.1914C67.3281 67.7383 67.0234 68.5 66.8906 69.4766H72.3164V69.2656C72.2539 68.3125 72 67.5938 71.5547 67.1094C71.1094 66.6172 70.4922 66.3711 69.7031 66.3711ZM88.0898 77H85.2422V71.8789H80.3086V77H77.4609V64.3203H80.3086V69.6055H85.2422V64.3203H88.0898V77ZM99.0469 64.3203H101.883V77H99.0469V68.5391L94.0781 77H91.2422V64.3203H94.0781V72.7812L99.0469 64.3203ZM120.492 67.7891C120.492 68.3516 120.32 68.8711 119.977 69.3477C119.641 69.8164 119.164 70.1914 118.547 70.4727C120 70.9805 120.727 71.9609 120.727 73.4141C120.727 74.5781 120.254 75.5078 119.309 76.2031C118.363 76.8906 117.098 77.2344 115.512 77.2344C114.543 77.2344 113.66 77.0742 112.863 76.7539C112.066 76.4258 111.445 75.9648 111 75.3711C110.555 74.7695 110.332 74.0586 110.332 73.2383H113.168C113.168 73.7539 113.398 74.1875 113.859 74.5391C114.32 74.8828 114.902 75.0547 115.605 75.0547C116.301 75.0547 116.852 74.8945 117.258 74.5742C117.672 74.2461 117.879 73.8203 117.879 73.2969C117.879 72.6797 117.699 72.2344 117.34 71.9609C116.98 71.6875 116.426 71.5508 115.676 71.5508H113.637V69.5H115.746C117.02 69.4844 117.656 68.9609 117.656 67.9297C117.656 67.4141 117.473 67.0117 117.105 66.7227C116.738 66.4336 116.234 66.2891 115.594 66.2891C114.969 66.2891 114.441 66.4453 114.012 66.7578C113.582 67.0625 113.367 67.4492 113.367 67.918H110.531C110.531 66.8008 111 65.8867 111.938 65.1758C112.875 64.457 114.066 64.0977 115.512 64.0977C117.082 64.0977 118.305 64.418 119.18 65.0586C120.055 65.6992 120.492 66.6094 120.492 67.7891ZM130.723 77C130.598 76.7578 130.488 76.3633 130.395 75.8164C129.488 76.7617 128.379 77.2344 127.066 77.2344C125.793 77.2344 124.754 76.8711 123.949 76.1445C123.145 75.418 122.742 74.5195 122.742 73.4492C122.742 72.0977 123.242 71.0625 124.242 70.3438C125.25 69.6172 126.688 69.2539 128.555 69.2539H130.301V68.4219C130.301 67.7656 130.117 67.2422 129.75 66.8516C129.383 66.4531 128.824 66.2539 128.074 66.2539C127.426 66.2539 126.895 66.418 126.48 66.7461C126.066 67.0664 125.859 67.4766 125.859 67.9766H123.012C123.012 67.2812 123.242 66.6328 123.703 66.0312C124.164 65.4219 124.789 64.9453 125.578 64.6016C126.375 64.2578 127.262 64.0859 128.238 64.0859C129.723 64.0859 130.906 64.4609 131.789 65.2109C132.672 65.9531 133.125 67 133.148 68.3516V74.0703C133.148 75.2109 133.309 76.1211 133.629 76.8008V77H130.723ZM127.594 74.9492C128.156 74.9492 128.684 74.8125 129.176 74.5391C129.676 74.2656 130.051 73.8984 130.301 73.4375V71.0469H128.766C127.711 71.0469 126.918 71.2305 126.387 71.5977C125.855 71.9648 125.59 72.4844 125.59 73.1562C125.59 73.7031 125.77 74.1406 126.129 74.4688C126.496 74.7891 126.984 74.9492 127.594 74.9492ZM140.637 71.9844H139.195V77H136.348V64.3203H139.195V69.3828H140.449L143.953 64.3203H147.469L142.887 70.3906L147.855 77H144.152L140.637 71.9844ZM160.195 64.3203V77H157.348V66.6172H153.762L153.527 71.0352C153.379 73.1602 152.969 74.6875 152.297 75.6172C151.633 76.5391 150.613 77 149.238 77H148.359L148.348 74.6328L148.934 74.5742C149.559 74.4883 150.012 74.1094 150.293 73.4375C150.582 72.7578 150.766 71.5234 150.844 69.7344L151.078 64.3203H160.195ZM166.312 69.418H168.703C168.914 67.8008 169.539 66.5078 170.578 65.5391C171.617 64.5703 172.93 64.0859 174.516 64.0859C176.227 64.0859 177.613 64.6367 178.676 65.7383C179.746 66.8398 180.324 68.3008 180.41 70.1211L180.422 70.7891C180.422 72.0391 180.18 73.1562 179.695 74.1406C179.219 75.125 178.531 75.8867 177.633 76.4258C176.742 76.9648 175.711 77.2344 174.539 77.2344C172.898 77.2344 171.551 76.7266 170.496 75.7109C169.449 74.6953 168.844 73.3594 168.68 71.7031H166.312V77H163.465V64.3203H166.312V69.418ZM171.48 70.7891C171.48 72.0938 171.75 73.1172 172.289 73.8594C172.828 74.5938 173.578 74.9609 174.539 74.9609C175.5 74.9609 176.246 74.5859 176.777 73.8359C177.309 73.0859 177.574 71.9883 177.574 70.543C177.574 69.2383 177.297 68.2188 176.742 67.4844C176.195 66.7422 175.453 66.3711 174.516 66.3711C173.586 66.3711 172.848 66.7422 172.301 67.4844C171.754 68.2188 171.48 69.3203 171.48 70.7891ZM192.938 77H190.09V72.7695C189.355 72.9414 188.582 73.0273 187.77 73.0273C186.035 73.0273 184.711 72.6133 183.797 71.7852C182.883 70.9492 182.426 69.7539 182.426 68.1992V64.3086H185.273V68.1992C185.273 69.1211 185.477 69.7734 185.883 70.1562C186.297 70.5391 186.926 70.7305 187.77 70.7305C188.535 70.7305 189.309 70.6406 190.09 70.4609V64.3203H192.938V77ZM201.551 77.2344C199.746 77.2344 198.281 76.668 197.156 75.5352C196.039 74.3945 195.48 72.8789 195.48 70.9883V70.6367C195.48 69.3711 195.723 68.2422 196.207 67.25C196.699 66.25 197.387 65.4727 198.27 64.918C199.152 64.3633 200.137 64.0859 201.223 64.0859C202.949 64.0859 204.281 64.6367 205.219 65.7383C206.164 66.8398 206.637 68.3984 206.637 70.4141V71.5625H198.352C198.438 72.6094 198.785 73.4375 199.395 74.0469C200.012 74.6562 200.785 74.9609 201.715 74.9609C203.02 74.9609 204.082 74.4336 204.902 73.3789L206.438 74.8438C205.93 75.6016 205.25 76.1914 204.398 76.6133C203.555 77.0273 202.605 77.2344 201.551 77.2344ZM201.211 66.3711C200.43 66.3711 199.797 66.6445 199.312 67.1914C198.836 67.7383 198.531 68.5 198.398 69.4766H203.824V69.2656C203.762 68.3125 203.508 67.5938 203.062 67.1094C202.617 66.6172 202 66.3711 201.211 66.3711ZM219.598 77H216.75V71.8789H211.816V77H208.969V64.3203H211.816V69.6055H216.75V64.3203H219.598V77ZM233.379 77H230.531V71.8789H225.598V77H222.75V64.3203H225.598V69.6055H230.531V64.3203H233.379V77ZM235.887 70.543C235.887 69.3008 236.133 68.1836 236.625 67.1914C237.117 66.1914 237.809 65.4258 238.699 64.8945C239.59 64.3555 240.613 64.0859 241.77 64.0859C243.48 64.0859 244.867 64.6367 245.93 65.7383C247 66.8398 247.578 68.3008 247.664 70.1211L247.676 70.7891C247.676 72.0391 247.434 73.1562 246.949 74.1406C246.473 75.125 245.785 75.8867 244.887 76.4258C243.996 76.9648 242.965 77.2344 241.793 77.2344C240.004 77.2344 238.57 76.6406 237.492 75.4531C236.422 74.2578 235.887 72.668 235.887 70.6836V70.543ZM238.734 70.7891C238.734 72.0938 239.004 73.1172 239.543 73.8594C240.082 74.5938 240.832 74.9609 241.793 74.9609C242.754 74.9609 243.5 74.5859 244.031 73.8359C244.57 73.0859 244.84 71.9883 244.84 70.543C244.84 69.2617 244.562 68.2461 244.008 67.4961C243.461 66.7461 242.715 66.3711 241.77 66.3711C240.84 66.3711 240.102 66.7422 239.555 67.4844C239.008 68.2188 238.734 69.3203 238.734 70.7891ZM258.527 66.6172H253.02V77H250.184V64.3203H258.527V66.6172ZM259.371 70.543C259.371 69.3008 259.617 68.1836 260.109 67.1914C260.602 66.1914 261.293 65.4258 262.184 64.8945C263.074 64.3555 264.098 64.0859 265.254 64.0859C266.965 64.0859 268.352 64.6367 269.414 65.7383C270.484 66.8398 271.062 68.3008 271.148 70.1211L271.16 70.7891C271.16 72.0391 270.918 73.1562 270.434 74.1406C269.957 75.125 269.27 75.8867 268.371 76.4258C267.48 76.9648 266.449 77.2344 265.277 77.2344C263.488 77.2344 262.055 76.6406 260.977 75.4531C259.906 74.2578 259.371 72.668 259.371 70.6836V70.543ZM262.219 70.7891C262.219 72.0938 262.488 73.1172 263.027 73.8594C263.566 74.5938 264.316 74.9609 265.277 74.9609C266.238 74.9609 266.984 74.5859 267.516 73.8359C268.055 73.0859 268.324 71.9883 268.324 70.543C268.324 69.2617 268.047 68.2461 267.492 67.4961C266.945 66.7461 266.199 66.3711 265.254 66.3711C264.324 66.3711 263.586 66.7422 263.039 67.4844C262.492 68.2188 262.219 69.3203 262.219 70.7891Z" fill="#3D4B66"/>
</svg>
